<?xml version="1.0" encoding="utf-8"?>
<!-- Generator: Adobe Illustrator 24.0.0, SVG Export Plug-In . SVG Version: 6.00 Build 0)  -->
<svg version="1.1" id="Layer_1" xmlns="http://www.w3.org/2000/svg" xmlns:xlink="http://www.w3.org/1999/xlink" x="0px" y="0px"
	 viewBox="0 0 178.72 178.72" style="enable-background:new 0 0 178.72 178.72;" xml:space="preserve">
<style type="text/css">
	.st0{display:none;fill:#FFFFFF;}
	.st1{display:none;}
	.st2{display:inline;fill:#FFFFFF;}
	.st3{display:inline;fill:#DB380E;}
	.st4{display:inline;fill:#73A1FB;}
	.st5{display:inline;fill:#66A060;}
	.st6{opacity:0.03;}
	.st7{fill:#0B2139;}
	.st8{fill:#F5C713;}
	.st9{display:inline;}
	.st10{fill:#DD0031;}
	.st11{fill:#C3002F;}
	.st12{fill:#FFFFFF;}
	.st13{display:inline;fill:#61DAFB;}
	.st14{fill:none;stroke:#61DAFB;}
</style>
<path class="st0" d="M154.72,178.72H24c-13.25,0-24-10.75-24-24V24C0,10.75,10.75,0,24,0h130.72c13.25,0,24,10.75,24,24v130.72
	C178.72,167.98,167.98,178.72,154.72,178.72z"/>
<g id="service1">
	<g id="Layer_2" class="st1">
		<polygon class="st2" points="161.96,132.32 161.96,48.49 89.36,6.58 16.77,48.49 16.77,132.32 89.36,174.23 		"/>
		
			<rect x="47.47" y="17.81" transform="matrix(0.866 -0.5 0.5 0.866 -33.2253 56.8023)" class="st2" width="83.82" height="145.18"/>
		<polygon class="st2" points="16.79,132.32 41.72,91.67 16.79,48.49 		"/>
		<polygon class="st2" points="137.78,90.4 161.98,48.49 89.38,6.58 		"/>
	</g>
	<g class="st1">
		<path class="st3" d="M123.02,90.11c-3.93,2.76-8.38,5.89-10.76,11.07c-4.14,9.04,8.48,18.9,9.02,19.31
			c0.13,0.1,0.28,0.14,0.43,0.14c0.16,0,0.32-0.05,0.45-0.16c0.25-0.21,0.32-0.57,0.17-0.86c-0.05-0.09-4.58-8.89-4.41-15.2
			c0.06-2.2,3.14-4.69,6.39-7.33c2.98-2.42,6.37-5.16,8.34-8.37c4.34-7.06-0.48-14-0.53-14.07c-0.19-0.27-0.55-0.37-0.85-0.23
			c-0.3,0.13-0.47,0.46-0.4,0.78c0.01,0.05,0.95,4.64-1.66,9.36C128.12,86.52,125.76,88.18,123.02,90.11z"/>
		<path class="st3" d="M139.57,93.22c0.28-0.21,0.36-0.59,0.19-0.89c-0.17-0.3-0.53-0.44-0.86-0.31
			c-0.67,0.25-16.34,6.29-16.34,13.59c0,5.03,2.15,7.69,3.72,9.63c0.62,0.76,1.15,1.42,1.32,1.98c0.49,1.62-0.68,4.54-1.17,5.53
			c-0.14,0.28-0.07,0.63,0.17,0.84c0.13,0.11,0.29,0.17,0.46,0.17c0.14,0,0.28-0.04,0.4-0.12c0.27-0.19,6.59-4.65,5.45-10.03
			c-0.42-2.05-1.43-3.54-2.31-4.86c-1.37-2.04-2.37-3.52-0.86-6.24C131.5,99.32,139.49,93.28,139.57,93.22z"/>
	</g>
	<g class="st1">
		<path class="st4" d="M98.77,123.87c-0.27,0.8-0.14,1.6,0.37,2.31c1.7,2.36,7.72,3.66,16.95,3.66c0,0,0,0,0,0
			c1.25,0,2.57-0.02,3.92-0.07c14.76-0.53,20.23-5.12,20.45-5.32c0.25-0.21,0.31-0.57,0.16-0.85c-0.15-0.29-0.48-0.43-0.8-0.34
			c-5.2,1.42-14.9,1.92-21.63,1.92c-7.53,0-11.37-0.54-12.31-0.94c0.48-0.66,3.45-1.84,7.14-2.57c0.35-0.07,0.59-0.39,0.56-0.75
			c-0.03-0.36-0.33-0.63-0.69-0.63C110.73,120.28,99.9,120.45,98.77,123.87z"/>
		<path class="st4" d="M148.15,119.14c-3.04,0-5.93,1.53-6.05,1.59c-0.28,0.15-0.42,0.47-0.35,0.78c0.08,0.31,0.36,0.53,0.68,0.53
			c0.06,0,6.49,0.05,7.07,3.72c0.52,3.17-6.08,8.3-8.67,10.01c-0.28,0.18-0.39,0.54-0.26,0.85c0.11,0.26,0.37,0.43,0.64,0.43
			c0.05,0,0.1,0,0.15-0.02c0.61-0.13,15.01-3.3,13.49-11.69C153.92,120.22,150.69,119.14,148.15,119.14z"/>
		<path class="st4" d="M138.27,134.75c0.05-0.27-0.06-0.54-0.29-0.7l-3.45-2.42c-0.17-0.12-0.38-0.15-0.58-0.1
			c-0.04,0.01-3.65,0.96-8.89,1.54c-2.08,0.23-4.41,0.36-6.74,0.36c-5.24,0-8.66-0.62-9.16-1.07c-0.07-0.13-0.05-0.18-0.03-0.22
			c0.09-0.25,0.58-0.55,0.89-0.67c0.35-0.13,0.53-0.5,0.42-0.86c-0.11-0.35-0.47-0.56-0.83-0.47c-3.46,0.84-5.16,2-5.03,3.47
			c0.22,2.6,6.25,3.94,11.35,4.29c0.73,0.05,1.53,0.08,2.36,0.08c0,0,0,0,0,0c8.48,0,19.35-2.66,19.46-2.69
			C138.02,135.23,138.22,135.02,138.27,134.75z"/>
		<path class="st4" d="M112.25,140.34c0.26-0.17,0.38-0.49,0.28-0.79c-0.09-0.3-0.37-0.49-0.68-0.49c-0.46,0.01-4.54,0.2-4.83,2.79
			c-0.09,0.78,0.14,1.48,0.66,2.11c1.46,1.73,5.41,2.77,12.08,3.15c0.79,0.05,1.59,0.07,2.38,0.07c8.47,0,14.17-2.65,14.41-2.76
			c0.23-0.11,0.38-0.34,0.4-0.59c0.01-0.26-0.11-0.5-0.33-0.63l-4.36-2.66c-0.15-0.09-0.33-0.12-0.51-0.09
			c-0.03,0.01-2.8,0.58-6.98,1.15c-0.79,0.11-1.78,0.16-2.94,0.16c-4.18,0-8.82-0.68-9.71-1.13
			C112.11,140.54,112.13,140.43,112.25,140.34z"/>
		<path class="st4" d="M118.2,155.19c19.4-0.02,29.81-3.47,31.82-5.64c0.71-0.77,0.79-1.5,0.73-1.97c-0.15-1.17-1.21-1.88-1.33-1.96
			c-0.29-0.19-0.68-0.14-0.91,0.12c-0.23,0.26-0.23,0.64,0,0.91c0.12,0.16,0.19,0.42-0.16,0.78c-0.8,0.75-8.89,3.02-22.36,3.71
			c-1.84,0.1-3.78,0.14-5.75,0.14c-12.06,0-20.88-1.65-22.04-2.61c0.45-0.64,3.57-1.67,6.89-2.25c0.37-0.07,0.63-0.42,0.57-0.79
			c-0.06-0.38-0.4-0.63-0.78-0.58c-0.09,0.01-0.41,0.03-0.78,0.05c-5.48,0.33-11.81,1.08-12.14,3.9c-0.1,0.86,0.16,1.64,0.76,2.32
			C94.18,152.98,98.43,155.19,118.2,155.19C118.2,155.19,118.2,155.19,118.2,155.19z"/>
		<path class="st4" d="M153.82,150.16c-0.27-0.13-0.6-0.06-0.8,0.16c-0.03,0.03-2.95,3.08-11.72,4.87
			c-3.36,0.67-9.66,1.01-18.73,1.01c-9.09,0-17.74-0.36-17.82-0.36c-0.36-0.02-0.67,0.25-0.72,0.6c-0.05,0.36,0.18,0.69,0.53,0.77
			c0.09,0.02,9.15,2.14,21.55,2.14c5.94,0,11.73-0.48,17.19-1.44c10.19-1.79,10.9-6.84,10.93-7.05
			C154.26,150.58,154.1,150.29,153.82,150.16z"/>
	</g>
	<g class="st1">
		<path class="st5" d="M66.35,52.72c0,0-0.61-5.23-6.21-5.23c-5.6,0-9.43,0.73-9.43,3.83c0,3.1,10.89,3.1,15.03,4.32
			c4.14,1.22,7.79,4.38,5.96,9.98c-1.83,5.6-7.42,6.21-16.06,6.21s-10.59-7.18-10.59-9.98h4.87c0,0-0.61,4.38,5.11,5.11
			c5.72,0.73,11.19,1.14,11.92-3.28c0.97-5.84-18.5-2.92-20.2-8.64c-1.44-4.83-0.61-11.19,9.13-12.17
			c9.73-0.97,15.09,3.32,15.09,9.73L66.35,52.72z"/>
		<path class="st5" d="M19.34,75.53l10.76,6.21c5.41,3.12,12.16-0.78,12.16-7.02V63.83V43.8h-4.39v29.7c0,3.41-3.69,5.54-6.64,3.83
			L23.72,73V41.3l27.45-15.85L78.62,41.3V73L51.17,88.84l-7.91-4.57l-5.16,2.08l13.07,7.55l31.84-18.38V38.77L51.17,20.39
			L19.33,38.77L19.34,75.53L19.34,75.53L19.34,75.53z"/>
	</g>
</g>
<g id="service2">
	<g class="st6">
		<path class="st7" d="M157.29,97.72V80.73l-20.21-3.31c-1.19-4.78-3.07-9.27-5.55-13.42l11.77-16.78L131.3,35.22l-16.57,11.92
			c-4.13-2.5-8.66-4.42-13.47-5.6l-3.53-20.11H80.73l-3.27,20.05c-4.82,1.18-9.37,3.06-13.52,5.54l-16.53-11.8L35.4,47.23
			l11.63,16.62c-2.52,4.17-4.44,8.71-5.64,13.56l-19.96,3.32v16.98l19.95,3.53c1.19,4.86,3.1,9.41,5.64,13.57L35.23,131.3
			l12.01,12.02l16.64-11.65c4.17,2.5,8.71,4.38,13.52,5.57l3.33,20.05h16.98l3.57-20.11c4.79-1.2,9.32-3.12,13.45-5.63l16.77,11.76
			l12-12.02l-11.97-16.61c2.48-4.13,4.36-8.64,5.54-13.44L157.29,97.72z M89.36,113.05c-13.07,0-23.68-10.6-23.68-23.68
			c0-13.07,10.62-23.68,23.68-23.68c13.09,0,23.68,10.62,23.68,23.68C113.05,102.45,102.45,113.05,89.36,113.05z"/>
	</g>
	<g>
		<g>
			<path class="st8" d="M69.87,60.83V50.27c0,2.91-5.91,5.28-13.19,5.28c-7.29,0-13.19-2.36-13.19-5.28v10.55
				c0,2.92,5.91,5.28,13.19,5.28C63.97,66.1,69.87,63.74,69.87,60.83z"/>
			<path class="st8" d="M56.68,39.72c7.28,0,13.19-2.36,13.19-5.28V23.89c0-2.92-5.91-5.28-13.19-5.28
				c-7.29,0-13.19,2.36-13.19,5.28v10.55C43.49,37.36,49.39,39.72,56.68,39.72z M56.68,19.94c7.25,0,11.87,2.34,11.87,3.96
				c0,1.61-4.62,3.96-11.87,3.96c-7.25,0-11.87-2.34-11.87-3.96C44.81,22.28,49.43,19.94,56.68,19.94z"/>
			<path class="st8" d="M30.3,103.04c-7.29,0-13.19-2.36-13.19-5.27v10.55c0,2.91,5.91,5.28,13.19,5.28s13.19-2.36,13.19-5.28V97.77
				C43.49,100.68,37.59,103.04,30.3,103.04z"/>
			<path class="st8" d="M83.06,89.85c-7.28,0-13.19-2.36-13.19-5.28v6.22H43.49v-6.22c0,2.92-5.9,5.28-13.19,5.28
				s-13.19-2.36-13.19-5.28v10.55c0,2.91,5.91,5.28,13.19,5.28c7.29,0,13.19-2.36,13.19-5.28v-0.94h26.38v0.94
				c0,2.91,5.91,5.28,13.19,5.28c7.29,0,13.19-2.36,13.19-5.28V84.57C96.25,87.49,90.35,89.85,83.06,89.85z"/>
			<path class="st8" d="M83.06,103.04c-7.28,0-13.19-2.36-13.19-5.27v10.55c0,2.91,5.91,5.28,13.19,5.28
				c7.29,0,13.19-2.36,13.19-5.28V97.77C96.25,100.68,90.35,103.04,83.06,103.04z"/>
			<path class="st8" d="M85.11,66.19L69.87,41.8v-4.72c0.01,2.92-5.9,5.28-13.19,5.28c-7.29,0-13.19-2.36-13.19-5.28v4.72
				L28.25,66.19c-6.3,0.4-11.14,2.56-11.14,5.19v10.55c0,2.91,5.91,5.28,13.19,5.28c7.29,0,13.19-2.37,13.19-5.28V71.38
				c0-2.65-4.88-4.82-11.24-5.2l11.34-18.15c0.52,2.72,6.15,4.88,13.09,4.88s12.57-2.15,13.09-4.88l11.34,18.15
				c-6.35,0.38-11.24,2.55-11.24,5.2v10.55c0,2.91,5.9,5.28,13.19,5.28c7.28,0,13.19-2.37,13.19-5.28V71.38
				C96.25,68.75,91.42,66.58,85.11,66.19z M42.17,71.38c0,1.61-4.62,3.96-11.87,3.96c-7.25,0-11.87-2.34-11.87-3.96
				c0-1.62,4.62-3.96,11.87-3.96C37.55,67.43,42.17,69.77,42.17,71.38z M83.06,75.34c-7.25,0-11.87-2.35-11.87-3.96
				c0-1.61,4.62-3.96,11.87-3.96c7.25,0,11.87,2.34,11.87,3.96C94.93,72.99,90.31,75.34,83.06,75.34z"/>
		</g>
	</g>
	<g>
		<g>
			<ellipse class="st7" cx="135.51" cy="125.83" rx="16.4" ry="7.3"/>
			<path class="st7" d="M139.3,152.64c-1.15-0.29-2.01-1.23-2.22-2.38c-0.52,0.02-1.04,0.03-1.57,0.03c-9.06,0-16.4-3.27-16.4-7.3
				c0,1.68,0,2.81,0,5.58c0,4.03,7.34,7.3,16.4,7.3c1.3,0,2.56-0.07,3.78-0.2C138.76,154.74,138.73,153.59,139.3,152.64z"/>
			<path class="st7" d="M135.51,148.3c0.51,0,1.02-0.01,1.52-0.03v-0.84c0-1.4,0.96-2.61,2.3-2.94c-0.35-0.6-0.48-1.27-0.4-1.93
				c-1.1,0.1-2.24,0.16-3.42,0.16c-9.06,0-16.4-3.27-16.4-7.3c0,1.68,0,2.81,0,5.58C119.11,145.03,126.45,148.3,135.51,148.3z"/>
			<path class="st7" d="M135.51,140.71c1.62,0,3.18-0.11,4.66-0.3l1.23-1.23c0.59-0.59,1.36-0.89,2.15-0.89
				c0.53,0,1.05,0.14,1.53,0.41c0.35-1.32,1.54-2.26,2.93-2.26h2.27c0.04,0,0.08,0.01,0.12,0.01c0.96-0.93,1.51-1.96,1.51-3.04
				c0-1.48,0-3.03,0-5.58c0,4.03-7.34,7.3-16.4,7.3s-16.4-3.27-16.4-7.3c0,1.68,0,2.81,0,5.58
				C119.11,137.45,126.45,140.71,135.51,140.71z"/>
		</g>
		<g>
			<path class="st7" d="M158.26,149.7v-2.27l-2.71-0.44c-0.16-0.64-0.41-1.24-0.74-1.8l1.58-2.25l-1.61-1.61l-2.22,1.6
				c-0.55-0.34-1.16-0.59-1.8-0.75l-0.47-2.69H148l-0.44,2.69c-0.65,0.16-1.26,0.41-1.81,0.74l-2.21-1.58l-1.61,1.61l1.56,2.23
				c-0.34,0.56-0.59,1.17-0.76,1.82l-2.67,0.44v2.27l2.67,0.47c0.16,0.65,0.42,1.26,0.76,1.82l-1.58,2.21l1.61,1.61l2.23-1.56
				c0.56,0.34,1.17,0.59,1.81,0.75l0.45,2.69h2.27l0.48-2.69c0.64-0.16,1.25-0.42,1.8-0.75l2.25,1.58l1.61-1.61l-1.6-2.22
				c0.33-0.55,0.58-1.16,0.74-1.8L158.26,149.7z M149.16,151.75c-1.75,0-3.17-1.42-3.17-3.17c0-1.75,1.42-3.17,3.17-3.17
				c1.75,0,3.17,1.42,3.17,3.17C152.33,150.33,150.91,151.75,149.16,151.75z"/>
		</g>
	</g>
</g>
<g id="service3" class="st1">
	<circle class="st2" cx="89.36" cy="89.36" r="73.75"/>
	<g class="st9">
		<polygon class="st10" points="55.36,19.47 55.36,19.47 55.36,19.47 19.11,32.4 24.64,80.33 55.36,97.34 55.36,97.34 55.36,97.34 
			86.08,80.33 91.61,32.4 		"/>
		<polygon class="st11" points="55.36,19.47 55.36,28.11 55.36,28.07 55.36,67.52 55.36,67.52 55.36,97.34 55.36,97.34 86.08,80.33 
			91.61,32.4 		"/>
		<path class="st12" d="M55.36,28.07L32.7,78.89l0,0h8.45l0,0l4.56-11.37h19.24l4.56,11.37l0,0h8.45l0,0L55.36,28.07L55.36,28.07
			L55.36,28.07L55.36,28.07L55.36,28.07z M61.98,60.51H48.74l6.62-15.93L61.98,60.51z"/>
	</g>
	<title>React Logo</title>
	<circle class="st13" cx="122.68" cy="126.11" r="7.78"/>
	<g class="st9">
		<ellipse class="st14" cx="122.68" cy="126.11" rx="41.72" ry="15.93"/>
		
			<ellipse transform="matrix(0.866 -0.5 0.5 0.866 -46.6171 78.2355)" class="st14" cx="122.68" cy="126.11" rx="15.93" ry="41.72"/>
		
			<ellipse transform="matrix(0.5 -0.866 0.866 0.5 -47.8709 169.2979)" class="st14" cx="122.68" cy="126.11" rx="41.72" ry="15.93"/>
	</g>
</g>
</svg>
