<?xml version="1.0" encoding="utf-8"?>
<!-- Generator: Adobe Illustrator 24.0.0, SVG Export Plug-In . SVG Version: 6.00 Build 0)  -->
<svg version="1.1" id="Layer_1" xmlns="http://www.w3.org/2000/svg" xmlns:xlink="http://www.w3.org/1999/xlink" x="0px" y="0px"
	 viewBox="0 0 178.7 178.7" style="enable-background:new 0 0 178.7 178.7;" xml:space="preserve">
<style type="text/css">
	.st0{display:none;fill:#FFFFFF;}
	.st1{display:none;}
	.st2{display:inline;}
	.st3{fill:#FFFFFF;}
	.st4{fill:#DB380E;}
	.st5{fill:#73A1FB;}
	.st6{fill:#66A060;}
	.st7{display:inline;opacity:3.000000e-02;}
	.st8{fill:#0B2139;}
	.st9{fill:#F5C713;}
	.st10{fill:#F9F9F9;}
	.st11{fill:#DD0031;}
	.st12{fill:#C3002F;}
	.st13{fill:#61DAFB;}
	.st14{fill:none;stroke:#61DAFB;}
	.st15{fill:none;stroke:#61DAFB;stroke-width:1;stroke-miterlimit:3.9999;}
</style>
<path class="st0" d="M154.7,178.7H24c-13.3,0-24-10.8-24-24V24C0,10.8,10.8,0,24,0h130.7c13.3,0,24,10.8,24,24v130.7
	C178.7,168,168,178.7,154.7,178.7z"/>
<g id="service1" class="st1">
	<g id="Layer_2_1_" class="st2">
		<polygon class="st3" points="162,132.3 162,48.5 89.4,6.6 16.8,48.5 16.8,132.3 89.4,174.2 		"/>
		<rect x="47.5" y="17.8" transform="matrix(0.866 -0.5 0.5 0.866 -33.2254 56.8016)" class="st3" width="83.8" height="145.2"/>
		<polygon class="st3" points="16.8,132.3 41.7,91.7 16.8,48.5 		"/>
		<polygon class="st3" points="137.8,90.4 162,48.5 89.4,6.6 		"/>
	</g>
	<g class="st2">
		<path class="st4" d="M123,90.1c-3.9,2.8-8.4,5.9-10.8,11.1c-4.1,9,8.5,18.9,9,19.3c0.1,0.1,0.3,0.1,0.4,0.1c0.2,0,0.3-0.1,0.4-0.2
			c0.3-0.2,0.3-0.6,0.2-0.9c-0.1-0.1-4.6-8.9-4.4-15.2c0.1-2.2,3.1-4.7,6.4-7.3c3-2.4,6.4-5.2,8.3-8.4c4.3-7.1-0.5-14-0.5-14.1
			c-0.2-0.3-0.6-0.4-0.9-0.2c-0.3,0.1-0.5,0.5-0.4,0.8c0,0.1,0.9,4.6-1.7,9.4C128.1,86.5,125.8,88.2,123,90.1z"/>
		<path class="st4" d="M139.6,93.2c0.3-0.2,0.4-0.6,0.2-0.9s-0.5-0.4-0.9-0.3c-0.7,0.3-16.3,6.3-16.3,13.6c0,5,2.2,7.7,3.7,9.6
			c0.6,0.8,1.2,1.4,1.3,2c0.5,1.6-0.7,4.5-1.2,5.5c-0.1,0.3-0.1,0.6,0.2,0.8c0.1,0.1,0.3,0.2,0.5,0.2c0.1,0,0.3,0,0.4-0.1
			c0.3-0.2,6.6-4.7,5.5-10c-0.4-2.1-1.4-3.5-2.3-4.9c-1.4-2-2.4-3.5-0.9-6.2C131.5,99.3,139.5,93.3,139.6,93.2z"/>
	</g>
	<g class="st2">
		<path class="st5" d="M98.8,123.9c-0.3,0.8-0.1,1.6,0.4,2.3c1.7,2.4,7.7,3.7,16.9,3.7l0,0c1.3,0,2.6,0,3.9-0.1
			c14.8-0.5,20.2-5.1,20.4-5.3c0.3-0.2,0.3-0.6,0.2-0.8c-0.1-0.3-0.5-0.4-0.8-0.3c-5.2,1.4-14.9,1.9-21.6,1.9
			c-7.5,0-11.4-0.5-12.3-0.9c0.5-0.7,3.4-1.8,7.1-2.6c0.3-0.1,0.6-0.4,0.6-0.8s-0.3-0.6-0.7-0.6C110.7,120.3,99.9,120.4,98.8,123.9z
			"/>
		<path class="st5" d="M148.1,119.1c-3,0-5.9,1.5-6.1,1.6c-0.3,0.2-0.4,0.5-0.4,0.8c0.1,0.3,0.4,0.5,0.7,0.5c0.1,0,6.5,0.1,7.1,3.7
			c0.5,3.2-6.1,8.3-8.7,10c-0.3,0.2-0.4,0.5-0.3,0.9c0.1,0.3,0.4,0.4,0.6,0.4c0.1,0,0.1,0,0.1,0c0.6-0.1,15-3.3,13.5-11.7
			C153.9,120.2,150.7,119.1,148.1,119.1z"/>
		<path class="st5" d="M138.3,134.8c0.1-0.3-0.1-0.5-0.3-0.7l-3.4-2.4c-0.2-0.1-0.4-0.1-0.6-0.1c0,0-3.6,1-8.9,1.5
			c-2.1,0.2-4.4,0.4-6.7,0.4c-5.2,0-8.7-0.6-9.2-1.1c-0.1-0.1-0.1-0.2,0-0.2c0.1-0.3,0.6-0.6,0.9-0.7c0.3-0.1,0.5-0.5,0.4-0.9
			c-0.1-0.4-0.5-0.6-0.8-0.5c-3.5,0.8-5.2,2-5,3.5c0.2,2.6,6.3,3.9,11.3,4.3c0.7,0.1,1.5,0.1,2.4,0.1l0,0c8.5,0,19.3-2.7,19.5-2.7
			C138,135.2,138.2,135,138.3,134.8z"/>
		<path class="st5" d="M112.3,140.3c0.3-0.2,0.4-0.5,0.3-0.8c-0.1-0.3-0.4-0.5-0.7-0.5c-0.5,0-4.5,0.2-4.8,2.8
			c-0.1,0.8,0.1,1.5,0.7,2.1c1.5,1.7,5.4,2.8,12.1,3.1c0.8,0.1,1.6,0.1,2.4,0.1c8.5,0,14.2-2.6,14.4-2.8c0.2-0.1,0.4-0.3,0.4-0.6
			c0-0.3-0.1-0.5-0.3-0.6l-4.4-2.7c-0.1-0.1-0.3-0.1-0.5-0.1c0,0-2.8,0.6-7,1.1c-0.8,0.1-1.8,0.2-2.9,0.2c-4.2,0-8.8-0.7-9.7-1.1
			C112.1,140.5,112.1,140.4,112.3,140.3z"/>
		<path class="st5" d="M118.2,155.2c19.4,0,29.8-3.5,31.8-5.6c0.7-0.8,0.8-1.5,0.7-2c-0.1-1.2-1.2-1.9-1.3-2
			c-0.3-0.2-0.7-0.1-0.9,0.1c-0.2,0.3-0.2,0.6,0,0.9c0.1,0.2,0.2,0.4-0.2,0.8c-0.8,0.8-8.9,3-22.4,3.7c-1.8,0.1-3.8,0.1-5.8,0.1
			c-12.1,0-20.9-1.6-22-2.6c0.4-0.6,3.6-1.7,6.9-2.3c0.4-0.1,0.6-0.4,0.6-0.8c-0.1-0.4-0.4-0.6-0.8-0.6c-0.1,0-0.4,0-0.8,0.1
			c-5.5,0.3-11.8,1.1-12.1,3.9c-0.1,0.9,0.2,1.6,0.8,2.3C94.2,153,98.4,155.2,118.2,155.2L118.2,155.2z"/>
		<path class="st5" d="M153.8,150.2c-0.3-0.1-0.6-0.1-0.8,0.2c0,0-2.9,3.1-11.7,4.9c-3.4,0.7-9.7,1-18.7,1c-9.1,0-17.7-0.4-17.8-0.4
			c-0.4,0-0.7,0.3-0.7,0.6c-0.1,0.4,0.2,0.7,0.5,0.8c0.1,0,9.2,2.1,21.5,2.1c5.9,0,11.7-0.5,17.2-1.4c10.2-1.8,10.9-6.8,10.9-7.1
			C154.3,150.6,154.1,150.3,153.8,150.2z"/>
	</g>
	<g class="st2">
		<path class="st6" d="M66.3,52.7c0,0-0.6-5.2-6.2-5.2s-9.4,0.7-9.4,3.8s10.9,3.1,15,4.3s7.8,4.4,6,10s-7.4,6.2-16.1,6.2
			S45,64.6,45,61.8h4.9c0,0-0.6,4.4,5.1,5.1c5.7,0.7,11.2,1.1,11.9-3.3c1-5.8-18.5-2.9-20.2-8.6c-1.4-4.8-0.6-11.2,9.1-12.2
			c9.7-1,15.1,3.3,15.1,9.7L66.3,52.7z"/>
		<path class="st6" d="M19.3,75.5l10.8,6.2c5.4,3.1,12.2-0.8,12.2-7V63.8v-20h-4.4v29.7c0,3.4-3.7,5.5-6.6,3.8L23.7,73V41.3
			l27.4-15.9l27.5,15.9V73L51.2,88.8l-7.9-4.6l-5.2,2.1l13.1,7.6L83,75.5V38.8L51.2,20.4L19.3,38.8L19.3,75.5L19.3,75.5L19.3,75.5z"
			/>
	</g>
</g>
<g id="service2" class="st1">
	<g class="st7">
		<path class="st8" d="M157.3,97.7v-17l-20.2-3.3c-1.2-4.8-3.1-9.3-5.6-13.4l11.8-16.8l-12-12l-16.6,11.9c-4.1-2.5-8.7-4.4-13.5-5.6
			l-3.5-20.1h-17l-3.3,20c-4.8,1.2-9.4,3.1-13.5,5.5L47.4,35.2l-12,12L47,63.8c-2.5,4.2-4.4,8.7-5.6,13.6l-20,3.3v17l20,3.5
			c1.2,4.9,3.1,9.4,5.6,13.6l-11.8,16.5l12,12l16.6-11.6c4.2,2.5,8.7,4.4,13.5,5.6l3.3,20.1h17l3.6-20.1c4.8-1.2,9.3-3.1,13.4-5.6
			l16.8,11.8l12-12l-12-16.6c2.5-4.1,4.4-8.6,5.5-13.4L157.3,97.7z M89.4,113.1c-13.1,0-23.7-10.6-23.7-23.7
			c0-13.1,10.6-23.7,23.7-23.7c13.1,0,23.7,10.6,23.7,23.7C113.1,102.4,102.4,113.1,89.4,113.1z"/>
	</g>
	<g class="st2">
		<g>
			<path class="st9" d="M69.9,60.8V50.3c0,2.9-5.9,5.3-13.2,5.3c-7.3,0-13.2-2.4-13.2-5.3v10.5c0,2.9,5.9,5.3,13.2,5.3
				C64,66.1,69.9,63.7,69.9,60.8z"/>
			<path class="st9" d="M56.7,39.7c7.3,0,13.2-2.4,13.2-5.3V23.9c0-2.9-5.9-5.3-13.2-5.3c-7.3,0-13.2,2.4-13.2,5.3v10.5
				C43.5,37.4,49.4,39.7,56.7,39.7z M56.7,19.9c7.3,0,11.9,2.3,11.9,4c0,1.6-4.6,4-11.9,4s-11.9-2.3-11.9-4
				C44.8,22.3,49.4,19.9,56.7,19.9z"/>
			<path class="st9" d="M30.3,103c-7.3,0-13.2-2.4-13.2-5.3v10.6c0,2.9,5.9,5.3,13.2,5.3s13.2-2.4,13.2-5.3V97.8
				C43.5,100.7,37.6,103,30.3,103z"/>
			<path class="st9" d="M83.1,89.8c-7.3,0-13.2-2.4-13.2-5.3v6.2H43.5v-6.2c0,2.9-5.9,5.3-13.2,5.3s-13.2-2.4-13.2-5.3v10.6
				c0,2.9,5.9,5.3,13.2,5.3c7.3,0,13.2-2.4,13.2-5.3v-0.9h26.4v0.9c0,2.9,5.9,5.3,13.2,5.3c7.3,0,13.2-2.4,13.2-5.3V84.6
				C96.3,87.5,90.3,89.8,83.1,89.8z"/>
			<path class="st9" d="M83.1,103c-7.3,0-13.2-2.4-13.2-5.3v10.6c0,2.9,5.9,5.3,13.2,5.3c7.3,0,13.2-2.4,13.2-5.3V97.8
				C96.3,100.7,90.3,103,83.1,103z"/>
			<path class="st9" d="M85.1,66.2L69.9,41.8v-4.7c0,2.9-5.9,5.3-13.2,5.3S43.5,40,43.5,37.1v4.7L28.3,66.2
				c-6.3,0.4-11.1,2.6-11.1,5.2v10.6c0,2.9,5.9,5.3,13.2,5.3c7.3,0,13.2-2.4,13.2-5.3V71.4c0-2.7-4.9-4.8-11.2-5.2L43.6,48
				c0.5,2.7,6.2,4.9,13.1,4.9s12.6-2.2,13.1-4.9l11.3,18.2c-6.3,0.4-11.2,2.6-11.2,5.2v10.6c0,2.9,5.9,5.3,13.2,5.3
				c7.3,0,13.2-2.4,13.2-5.3V71.4C96.3,68.8,91.4,66.6,85.1,66.2z M42.2,71.4c0,1.6-4.6,4-11.9,4s-11.9-2.3-11.9-4s4.6-4,11.9-4
				C37.5,67.4,42.2,69.8,42.2,71.4z M83.1,75.3c-7.3,0-11.9-2.3-11.9-4s4.6-4,11.9-4s11.9,2.3,11.9,4C94.9,73,90.3,75.3,83.1,75.3z"
				/>
		</g>
	</g>
	<g class="st2">
		<g>
			<ellipse class="st8" cx="135.5" cy="125.8" rx="16.4" ry="7.3"/>
			<path class="st8" d="M139.3,152.6c-1.1-0.3-2-1.2-2.2-2.4c-0.5,0-1,0-1.6,0c-9.1,0-16.4-3.3-16.4-7.3c0,1.7,0,2.8,0,5.6
				c0,4,7.3,7.3,16.4,7.3c1.3,0,2.6-0.1,3.8-0.2C138.8,154.7,138.7,153.6,139.3,152.6z"/>
			<path class="st8" d="M135.5,148.3c0.5,0,1,0,1.5,0v-0.8c0-1.4,1-2.6,2.3-2.9c-0.4-0.6-0.5-1.3-0.4-1.9c-1.1,0.1-2.2,0.2-3.4,0.2
				c-9.1,0-16.4-3.3-16.4-7.3c0,1.7,0,2.8,0,5.6C119.1,145,126.4,148.3,135.5,148.3z"/>
			<path class="st8" d="M135.5,140.7c1.6,0,3.2-0.1,4.7-0.3l1.2-1.2c0.6-0.6,1.4-0.9,2.1-0.9c0.5,0,1.1,0.1,1.5,0.4
				c0.4-1.3,1.5-2.3,2.9-2.3h2.3c0,0,0.1,0,0.1,0c1-0.9,1.5-2,1.5-3c0-1.5,0-3,0-5.6c0,4-7.3,7.3-16.4,7.3s-16.4-3.3-16.4-7.3
				c0,1.7,0,2.8,0,5.6C119.1,137.4,126.4,140.7,135.5,140.7z"/>
		</g>
		<g>
			<path class="st8" d="M158.3,149.7v-2.3l-2.7-0.4c-0.2-0.6-0.4-1.2-0.7-1.8l1.6-2.3l-1.6-1.6l-2.2,1.6c-0.6-0.3-1.2-0.6-1.8-0.8
				l-0.5-2.7H148l-0.4,2.7c-0.6,0.2-1.3,0.4-1.8,0.7l-2.2-1.6l-1.6,1.6l1.6,2.2c-0.3,0.6-0.6,1.2-0.8,1.8l-2.7,0.4v2.3l2.7,0.5
				c0.2,0.6,0.4,1.3,0.8,1.8l-1.6,2.2l1.6,1.6l2.2-1.6c0.6,0.3,1.2,0.6,1.8,0.8l0.4,2.7h2.3l0.5-2.7c0.6-0.2,1.3-0.4,1.8-0.8
				l2.3,1.6l1.6-1.6l-1.6-2.2c0.3-0.6,0.6-1.2,0.7-1.8L158.3,149.7z M149.2,151.8c-1.8,0-3.2-1.4-3.2-3.2s1.4-3.2,3.2-3.2
				s3.2,1.4,3.2,3.2S150.9,151.8,149.2,151.8z"/>
		</g>
	</g>
</g>
<g id="service3">
	<circle class="st10" cx="89.4" cy="89.4" r="73.8"/>
	<g>
		<polygon class="st11" points="55.4,19.5 55.4,19.5 55.4,19.5 19.1,32.4 24.6,80.3 55.4,97.3 55.4,97.3 55.4,97.3 86.1,80.3 
			91.6,32.4 		"/>
		<polygon class="st12" points="55.4,19.5 55.4,28.1 55.4,28.1 55.4,67.5 55.4,67.5 55.4,97.3 55.4,97.3 86.1,80.3 91.6,32.4 		"/>
		<path class="st3" d="M55.4,28.1L32.7,78.9l0,0h8.5l0,0l4.6-11.4H65l4.6,11.4l0,0H78l0,0L55.4,28.1L55.4,28.1L55.4,28.1L55.4,28.1
			L55.4,28.1z M62,60.5H48.7l6.6-15.9L62,60.5z"/>
	</g>
	<title>React Logo</title>
	<circle class="st13" cx="122.7" cy="126.1" r="7.8"/>
	<g>
		<ellipse class="st14" cx="122.7" cy="126.1" rx="41.7" ry="15.9"/>
		<ellipse transform="matrix(0.866 -0.5 0.5 0.866 -46.6181 78.2366)" class="st15" cx="122.7" cy="126.1" rx="15.9" ry="41.7"/>
		<ellipse transform="matrix(0.5 -0.866 0.866 0.5 -47.8766 169.2982)" class="st15" cx="122.7" cy="126.1" rx="41.7" ry="15.9"/>
	</g>
</g>
</svg>
