<?xml version="1.0" encoding="utf-8"?>
<!-- Generator: Adobe Illustrator 24.0.0, SVG Export Plug-In . SVG Version: 6.00 Build 0)  -->
<svg version="1.1" id="Layer_1" xmlns="http://www.w3.org/2000/svg" xmlns:xlink="http://www.w3.org/1999/xlink" x="0px" y="0px"
	 viewBox="0 0 178.72 178.72" style="enable-background:new 0 0 178.72 178.72;" xml:space="preserve">
<style type="text/css">
	.st0{display:none;fill:#FFFFFF;}
	.st1{display:none;}
	.st2{display:inline;fill:#FFFFFF;}
	.st3{display:inline;fill:#DB380E;}
	.st4{display:inline;fill:#73A1FB;}
	.st5{display:inline;fill:#66A060;}
	.st6{display:inline;opacity:0.03;}
	.st7{fill:#0B2139;}
	.st8{display:inline;}
	.st9{fill:#F5C713;}
	.st10{fill:#DD0031;}
	.st11{fill:#C3002F;}
	.st12{fill:#FFFFFF;}
	.st13{display:inline;fill:#61DAFB;}
	.st14{fill:none;stroke:#61DAFB;}
	.st15{opacity:0.09;fill:#4F3030;}
	.st16{display:none;fill:#241616;}
	.st17{fill:#DF3A5C;}
	.st18{fill:#FF7C00;}
	.st19{opacity:0.11;fill:#261300;}
	.st20{fill:#0D0A22;}
	.st21{fill:#2BBBFA;}
</style>
<path class="st0" d="M154.72,178.72H24c-13.25,0-24-10.75-24-24V24C0,10.75,10.75,0,24,0h130.72c13.25,0,24,10.75,24,24v130.72
	C178.72,167.98,167.98,178.72,154.72,178.72z"/>
<g id="service1" class="st1">
	<g id="Layer_2">
		<polygon class="st2" points="161.96,132.32 161.96,48.49 89.36,6.58 16.77,48.49 16.77,132.32 89.36,174.23 		"/>
		
			<rect x="47.47" y="17.81" transform="matrix(0.866 -0.5 0.5 0.866 -33.2253 56.8023)" class="st2" width="83.82" height="145.18"/>
		<polygon class="st2" points="16.79,132.32 41.72,91.67 16.79,48.49 		"/>
		<polygon class="st2" points="137.78,90.4 161.98,48.49 89.38,6.58 		"/>
	</g>
	<g>
		<path class="st3" d="M123.02,90.11c-3.93,2.76-8.38,5.89-10.76,11.07c-4.14,9.04,8.48,18.9,9.02,19.31
			c0.13,0.1,0.28,0.14,0.43,0.14c0.16,0,0.32-0.05,0.45-0.16c0.25-0.21,0.32-0.57,0.17-0.86c-0.05-0.09-4.58-8.89-4.41-15.2
			c0.06-2.2,3.14-4.69,6.39-7.33c2.98-2.42,6.37-5.16,8.34-8.37c4.34-7.06-0.48-14-0.53-14.07c-0.19-0.27-0.55-0.37-0.85-0.23
			c-0.3,0.13-0.47,0.46-0.4,0.78c0.01,0.05,0.95,4.64-1.66,9.36C128.12,86.52,125.76,88.18,123.02,90.11z"/>
		<path class="st3" d="M139.57,93.22c0.28-0.21,0.36-0.59,0.19-0.89c-0.17-0.3-0.53-0.44-0.86-0.31
			c-0.67,0.25-16.34,6.29-16.34,13.59c0,5.03,2.15,7.69,3.72,9.63c0.62,0.76,1.15,1.42,1.32,1.98c0.49,1.62-0.68,4.54-1.17,5.53
			c-0.14,0.28-0.07,0.63,0.17,0.84c0.13,0.11,0.29,0.17,0.46,0.17c0.14,0,0.28-0.04,0.4-0.12c0.27-0.19,6.59-4.65,5.45-10.03
			c-0.42-2.05-1.43-3.54-2.31-4.86c-1.37-2.04-2.37-3.52-0.86-6.24C131.5,99.32,139.49,93.28,139.57,93.22z"/>
	</g>
	<g>
		<path class="st4" d="M98.77,123.87c-0.27,0.8-0.14,1.6,0.37,2.31c1.7,2.36,7.72,3.66,16.95,3.66c0,0,0,0,0,0
			c1.25,0,2.57-0.02,3.92-0.07c14.76-0.53,20.23-5.12,20.45-5.32c0.25-0.21,0.31-0.57,0.16-0.85c-0.15-0.29-0.48-0.43-0.8-0.34
			c-5.2,1.42-14.9,1.92-21.63,1.92c-7.53,0-11.37-0.54-12.31-0.94c0.48-0.66,3.45-1.84,7.14-2.57c0.35-0.07,0.59-0.39,0.56-0.75
			c-0.03-0.36-0.33-0.63-0.69-0.63C110.73,120.28,99.9,120.45,98.77,123.87z"/>
		<path class="st4" d="M148.15,119.14c-3.04,0-5.93,1.53-6.05,1.59c-0.28,0.15-0.42,0.47-0.35,0.78c0.08,0.31,0.36,0.53,0.68,0.53
			c0.06,0,6.49,0.05,7.07,3.72c0.52,3.17-6.08,8.3-8.67,10.01c-0.28,0.18-0.39,0.54-0.26,0.85c0.11,0.26,0.37,0.43,0.64,0.43
			c0.05,0,0.1,0,0.15-0.02c0.61-0.13,15.01-3.3,13.49-11.69C153.92,120.22,150.69,119.14,148.15,119.14z"/>
		<path class="st4" d="M138.27,134.75c0.05-0.27-0.06-0.54-0.29-0.7l-3.45-2.42c-0.17-0.12-0.38-0.15-0.58-0.1
			c-0.04,0.01-3.65,0.96-8.89,1.54c-2.08,0.23-4.41,0.36-6.74,0.36c-5.24,0-8.66-0.62-9.16-1.07c-0.07-0.13-0.05-0.18-0.03-0.22
			c0.09-0.25,0.58-0.55,0.89-0.67c0.35-0.13,0.53-0.5,0.42-0.86c-0.11-0.35-0.47-0.56-0.83-0.47c-3.46,0.84-5.16,2-5.03,3.47
			c0.22,2.6,6.25,3.94,11.35,4.29c0.73,0.05,1.53,0.08,2.36,0.08c0,0,0,0,0,0c8.48,0,19.35-2.66,19.46-2.69
			C138.02,135.23,138.22,135.02,138.27,134.75z"/>
		<path class="st4" d="M112.25,140.34c0.26-0.17,0.38-0.49,0.28-0.79c-0.09-0.3-0.37-0.49-0.68-0.49c-0.46,0.01-4.54,0.2-4.83,2.79
			c-0.09,0.78,0.14,1.48,0.66,2.11c1.46,1.73,5.41,2.77,12.08,3.15c0.79,0.05,1.59,0.07,2.38,0.07c8.47,0,14.17-2.65,14.41-2.76
			c0.23-0.11,0.38-0.34,0.4-0.59c0.01-0.26-0.11-0.5-0.33-0.63l-4.36-2.66c-0.15-0.09-0.33-0.12-0.51-0.09
			c-0.03,0.01-2.8,0.58-6.98,1.15c-0.79,0.11-1.78,0.16-2.94,0.16c-4.18,0-8.82-0.68-9.71-1.13
			C112.11,140.54,112.13,140.43,112.25,140.34z"/>
		<path class="st4" d="M118.2,155.19c19.4-0.02,29.81-3.47,31.82-5.64c0.71-0.77,0.79-1.5,0.73-1.97c-0.15-1.17-1.21-1.88-1.33-1.96
			c-0.29-0.19-0.68-0.14-0.91,0.12c-0.23,0.26-0.23,0.64,0,0.91c0.12,0.16,0.19,0.42-0.16,0.78c-0.8,0.75-8.89,3.02-22.36,3.71
			c-1.84,0.1-3.78,0.14-5.75,0.14c-12.06,0-20.88-1.65-22.04-2.61c0.45-0.64,3.57-1.67,6.89-2.25c0.37-0.07,0.63-0.42,0.57-0.79
			c-0.06-0.38-0.4-0.63-0.78-0.58c-0.09,0.01-0.41,0.03-0.78,0.05c-5.48,0.33-11.81,1.08-12.14,3.9c-0.1,0.86,0.16,1.64,0.76,2.32
			C94.18,152.98,98.43,155.19,118.2,155.19C118.2,155.19,118.2,155.19,118.2,155.19z"/>
		<path class="st4" d="M153.82,150.16c-0.27-0.13-0.6-0.06-0.8,0.16c-0.03,0.03-2.95,3.08-11.72,4.87
			c-3.36,0.67-9.66,1.01-18.73,1.01c-9.09,0-17.74-0.36-17.82-0.36c-0.36-0.02-0.67,0.25-0.72,0.6c-0.05,0.36,0.18,0.69,0.53,0.77
			c0.09,0.02,9.15,2.14,21.55,2.14c5.94,0,11.73-0.48,17.19-1.44c10.19-1.79,10.9-6.84,10.93-7.05
			C154.26,150.58,154.1,150.29,153.82,150.16z"/>
	</g>
	<g>
		<path class="st5" d="M66.35,52.72c0,0-0.61-5.23-6.21-5.23c-5.6,0-9.43,0.73-9.43,3.83c0,3.1,10.89,3.1,15.03,4.32
			c4.14,1.22,7.79,4.38,5.96,9.98c-1.83,5.6-7.42,6.21-16.06,6.21s-10.59-7.18-10.59-9.98h4.87c0,0-0.61,4.38,5.11,5.11
			c5.72,0.73,11.19,1.14,11.92-3.28c0.97-5.84-18.5-2.92-20.2-8.64c-1.44-4.83-0.61-11.19,9.13-12.17
			c9.73-0.97,15.09,3.32,15.09,9.73L66.35,52.72z"/>
		<path class="st5" d="M19.34,75.53l10.76,6.21c5.41,3.12,12.16-0.78,12.16-7.02V63.83V43.8h-4.39v29.7c0,3.41-3.69,5.54-6.64,3.83
			L23.72,73V41.3l27.45-15.85L78.62,41.3V73L51.17,88.84l-7.91-4.57l-5.16,2.08l13.07,7.55l31.84-18.38V38.77L51.17,20.39
			L19.33,38.77L19.34,75.53L19.34,75.53L19.34,75.53z"/>
	</g>
</g>
<g id="service2" class="st1">
	<g class="st6">
		<path class="st7" d="M157.29,97.72V80.73l-20.21-3.31c-1.19-4.78-3.07-9.27-5.55-13.42l11.77-16.78L131.3,35.22l-16.57,11.92
			c-4.13-2.5-8.66-4.42-13.47-5.6l-3.53-20.11H80.73l-3.27,20.05c-4.82,1.18-9.37,3.06-13.52,5.54l-16.53-11.8L35.4,47.23
			l11.63,16.62c-2.52,4.17-4.44,8.71-5.64,13.56l-19.96,3.32v16.98l19.95,3.53c1.19,4.86,3.1,9.41,5.64,13.57L35.23,131.3
			l12.01,12.02l16.64-11.65c4.17,2.5,8.71,4.38,13.52,5.57l3.33,20.05h16.98l3.57-20.11c4.79-1.2,9.32-3.12,13.45-5.63l16.77,11.76
			l12-12.02l-11.97-16.61c2.48-4.13,4.36-8.64,5.54-13.44L157.29,97.72z M89.36,113.05c-13.07,0-23.68-10.6-23.68-23.68
			c0-13.07,10.62-23.68,23.68-23.68c13.09,0,23.68,10.62,23.68,23.68C113.05,102.45,102.45,113.05,89.36,113.05z"/>
	</g>
	<g class="st8">
		<g>
			<path class="st9" d="M69.87,60.83V50.27c0,2.91-5.91,5.28-13.19,5.28c-7.29,0-13.19-2.36-13.19-5.28v10.55
				c0,2.92,5.91,5.28,13.19,5.28C63.97,66.1,69.87,63.74,69.87,60.83z"/>
			<path class="st9" d="M56.68,39.72c7.28,0,13.19-2.36,13.19-5.28V23.89c0-2.92-5.91-5.28-13.19-5.28
				c-7.29,0-13.19,2.36-13.19,5.28v10.55C43.49,37.36,49.39,39.72,56.68,39.72z M56.68,19.94c7.25,0,11.87,2.34,11.87,3.96
				c0,1.61-4.62,3.96-11.87,3.96c-7.25,0-11.87-2.34-11.87-3.96C44.81,22.28,49.43,19.94,56.68,19.94z"/>
			<path class="st9" d="M30.3,103.04c-7.29,0-13.19-2.36-13.19-5.27v10.55c0,2.91,5.91,5.28,13.19,5.28s13.19-2.36,13.19-5.28V97.77
				C43.49,100.68,37.59,103.04,30.3,103.04z"/>
			<path class="st9" d="M83.06,89.85c-7.28,0-13.19-2.36-13.19-5.28v6.22H43.49v-6.22c0,2.92-5.9,5.28-13.19,5.28
				s-13.19-2.36-13.19-5.28v10.55c0,2.91,5.91,5.28,13.19,5.28c7.29,0,13.19-2.36,13.19-5.28v-0.94h26.38v0.94
				c0,2.91,5.91,5.28,13.19,5.28c7.29,0,13.19-2.36,13.19-5.28V84.57C96.25,87.49,90.35,89.85,83.06,89.85z"/>
			<path class="st9" d="M83.06,103.04c-7.28,0-13.19-2.36-13.19-5.27v10.55c0,2.91,5.91,5.28,13.19,5.28
				c7.29,0,13.19-2.36,13.19-5.28V97.77C96.25,100.68,90.35,103.04,83.06,103.04z"/>
			<path class="st9" d="M85.11,66.19L69.87,41.8v-4.72c0.01,2.92-5.9,5.28-13.19,5.28c-7.29,0-13.19-2.36-13.19-5.28v4.72
				L28.25,66.19c-6.3,0.4-11.14,2.56-11.14,5.19v10.55c0,2.91,5.91,5.28,13.19,5.28c7.29,0,13.19-2.37,13.19-5.28V71.38
				c0-2.65-4.88-4.82-11.24-5.2l11.34-18.15c0.52,2.72,6.15,4.88,13.09,4.88s12.57-2.15,13.09-4.88l11.34,18.15
				c-6.35,0.38-11.24,2.55-11.24,5.2v10.55c0,2.91,5.9,5.28,13.19,5.28c7.28,0,13.19-2.37,13.19-5.28V71.38
				C96.25,68.75,91.42,66.58,85.11,66.19z M42.17,71.38c0,1.61-4.62,3.96-11.87,3.96c-7.25,0-11.87-2.34-11.87-3.96
				c0-1.62,4.62-3.96,11.87-3.96C37.55,67.43,42.17,69.77,42.17,71.38z M83.06,75.34c-7.25,0-11.87-2.35-11.87-3.96
				c0-1.61,4.62-3.96,11.87-3.96c7.25,0,11.87,2.34,11.87,3.96C94.93,72.99,90.31,75.34,83.06,75.34z"/>
		</g>
	</g>
	<g class="st8">
		<g>
			<ellipse class="st7" cx="135.51" cy="125.83" rx="16.4" ry="7.3"/>
			<path class="st7" d="M139.3,152.64c-1.15-0.29-2.01-1.23-2.22-2.38c-0.52,0.02-1.04,0.03-1.57,0.03c-9.06,0-16.4-3.27-16.4-7.3
				c0,1.68,0,2.81,0,5.58c0,4.03,7.34,7.3,16.4,7.3c1.3,0,2.56-0.07,3.78-0.2C138.76,154.74,138.73,153.59,139.3,152.64z"/>
			<path class="st7" d="M135.51,148.3c0.51,0,1.02-0.01,1.52-0.03v-0.84c0-1.4,0.96-2.61,2.3-2.94c-0.35-0.6-0.48-1.27-0.4-1.93
				c-1.1,0.1-2.24,0.16-3.42,0.16c-9.06,0-16.4-3.27-16.4-7.3c0,1.68,0,2.81,0,5.58C119.11,145.03,126.45,148.3,135.51,148.3z"/>
			<path class="st7" d="M135.51,140.71c1.62,0,3.18-0.11,4.66-0.3l1.23-1.23c0.59-0.59,1.36-0.89,2.15-0.89
				c0.53,0,1.05,0.14,1.53,0.41c0.35-1.32,1.54-2.26,2.93-2.26h2.27c0.04,0,0.08,0.01,0.12,0.01c0.96-0.93,1.51-1.96,1.51-3.04
				c0-1.48,0-3.03,0-5.58c0,4.03-7.34,7.3-16.4,7.3s-16.4-3.27-16.4-7.3c0,1.68,0,2.81,0,5.58
				C119.11,137.45,126.45,140.71,135.51,140.71z"/>
		</g>
		<g>
			<path class="st7" d="M158.26,149.7v-2.27l-2.71-0.44c-0.16-0.64-0.41-1.24-0.74-1.8l1.58-2.25l-1.61-1.61l-2.22,1.6
				c-0.55-0.34-1.16-0.59-1.8-0.75l-0.47-2.69H148l-0.44,2.69c-0.65,0.16-1.26,0.41-1.81,0.74l-2.21-1.58l-1.61,1.61l1.56,2.23
				c-0.34,0.56-0.59,1.17-0.76,1.82l-2.67,0.44v2.27l2.67,0.47c0.16,0.65,0.42,1.26,0.76,1.82l-1.58,2.21l1.61,1.61l2.23-1.56
				c0.56,0.34,1.17,0.59,1.81,0.75l0.45,2.69h2.27l0.48-2.69c0.64-0.16,1.25-0.42,1.8-0.75l2.25,1.58l1.61-1.61l-1.6-2.22
				c0.33-0.55,0.58-1.16,0.74-1.8L158.26,149.7z M149.16,151.75c-1.75,0-3.17-1.42-3.17-3.17c0-1.75,1.42-3.17,3.17-3.17
				c1.75,0,3.17,1.42,3.17,3.17C152.33,150.33,150.91,151.75,149.16,151.75z"/>
		</g>
	</g>
</g>
<g id="service3" class="st1">
	<circle class="st2" cx="89.36" cy="89.36" r="73.75"/>
	<g class="st8">
		<polygon class="st10" points="55.36,19.47 55.36,19.47 55.36,19.47 19.11,32.4 24.64,80.33 55.36,97.34 55.36,97.34 55.36,97.34 
			86.08,80.33 91.61,32.4 		"/>
		<polygon class="st11" points="55.36,19.47 55.36,28.11 55.36,28.07 55.36,67.52 55.36,67.52 55.36,97.34 55.36,97.34 86.08,80.33 
			91.61,32.4 		"/>
		<path class="st12" d="M55.36,28.07L32.7,78.89l0,0h8.45l0,0l4.56-11.37h19.24l4.56,11.37l0,0h8.45l0,0L55.36,28.07L55.36,28.07
			L55.36,28.07L55.36,28.07L55.36,28.07z M61.98,60.51H48.74l6.62-15.93L61.98,60.51z"/>
	</g>
	<title>React Logo</title>
	<circle class="st13" cx="122.68" cy="126.11" r="7.78"/>
	<g class="st8">
		<ellipse class="st14" cx="122.68" cy="126.11" rx="41.72" ry="15.93"/>
		
			<ellipse transform="matrix(0.866 -0.5 0.5 0.866 -46.6171 78.2355)" class="st14" cx="122.68" cy="126.11" rx="15.93" ry="41.72"/>
		
			<ellipse transform="matrix(0.5 -0.866 0.866 0.5 -47.8709 169.2979)" class="st14" cx="122.68" cy="126.11" rx="41.72" ry="15.93"/>
	</g>
</g>
<circle class="st15" cx="152.08" cy="67.66" r="20.02"/>
<path class="st16" d="M148.55,100.75c0.49,0.04,0.99,0.07,1.49,0.07c9.42,0,17.05-7.63,17.05-17.05c0-0.56-0.03-1.11-0.08-1.65
	l-7.75-7.75h-3.58v6.72c-1.1-1.26-2.41-1.88-3.92-1.88c-0.72,0-1.38,0.11-1.99,0.34l-5.18-5.18h-3.77v18.67L148.55,100.75z"/>
<g>
	<path class="st17" d="M141.25,78.54V56.61h4.43v21.92H141.25L141.25,78.54z"/>
	<path class="st17" d="M162.9,78.54H159v-2.33c-1.31,1.84-3.2,2.69-4.96,2.69c-1.82,0-3.39-0.74-4.69-2.21
		c-1.3-1.47-1.95-3.52-1.95-6.15c0-2.69,0.63-4.74,1.9-6.14c1.27-1.4,2.87-2.1,4.8-2.1c1.77,0,3.31,0.74,4.61,2.21v-7.9h4.2
		L162.9,78.54L162.9,78.54z M151.69,70.25c0,1.69,0.23,2.92,0.7,3.68c0.68,1.1,1.63,1.65,2.84,1.65c0.97,0,1.79-0.41,2.47-1.23
		c0.68-0.82,1.02-2.05,1.02-3.69c0-1.82-0.33-3.14-0.99-3.94c-0.66-0.8-1.5-1.2-2.53-1.2c-1,0-1.83,0.4-2.51,1.19
		C152.02,67.49,151.69,68.68,151.69,70.25z"/>
</g>
<g>
	<g>
		<rect x="27.85" y="41.05" class="st18" width="53.08" height="27.29"/>
		<path class="st7" d="M84.84,35.52H22.52c-0.48,0-0.86,0.39-0.86,0.86V70.9c0,3.76,3.05,6.81,6.81,6.81h50.41
			c3.76,0,6.81-3.05,6.81-6.81V36.38C85.7,35.91,85.31,35.52,84.84,35.52z M55.01,45.63c0.25-0.21,0.56-0.32,0.93-0.32
			c0.49,0,0.87,0.09,1.14,0.26c0.27,0.17,0.56,0.55,0.88,1.12l2.46,4.48l2.46-4.48c0.32-0.57,0.62-0.95,0.89-1.12
			c0.27-0.17,0.66-0.26,1.15-0.26c0.37,0,0.68,0.11,0.93,0.32c0.25,0.21,0.37,0.54,0.37,0.98v12.5c0,0.25-0.13,0.45-0.39,0.6
			c-0.26,0.15-0.56,0.22-0.91,0.22c-0.36,0-0.67-0.07-0.92-0.22c-0.25-0.15-0.38-0.35-0.38-0.6v-8.6l-2.34,4.16
			c-0.19,0.35-0.48,0.52-0.88,0.52c-0.39,0-0.67-0.17-0.86-0.52l-2.3-4.32v8.76c0,0.25-0.13,0.45-0.39,0.6
			c-0.26,0.15-0.56,0.22-0.91,0.22c-0.36,0-0.67-0.07-0.92-0.22c-0.25-0.15-0.38-0.35-0.38-0.6v-12.5h0
			C54.64,46.17,54.77,45.84,55.01,45.63z M43.33,45.65c0.14-0.23,0.34-0.34,0.61-0.34h8.46c0.27,0,0.47,0.11,0.61,0.34
			c0.14,0.23,0.21,0.49,0.21,0.79c0,0.31-0.07,0.58-0.22,0.81c-0.15,0.23-0.35,0.34-0.6,0.34h-2.92v11.52c0,0.25-0.13,0.46-0.39,0.6
			c-0.26,0.15-0.56,0.22-0.91,0.22c-0.36,0-0.67-0.07-0.92-0.22c-0.25-0.15-0.38-0.35-0.38-0.6V47.59h-2.94
			c-0.25,0-0.45-0.11-0.6-0.33c-0.15-0.22-0.22-0.49-0.22-0.82C43.12,46.14,43.19,45.88,43.33,45.65z M31.98,46.11
			c0-0.27,0.13-0.47,0.38-0.6c0.25-0.13,0.56-0.2,0.92-0.2c0.36,0,0.67,0.07,0.92,0.2c0.25,0.13,0.38,0.33,0.38,0.6v5.22h4.5v-5.22
			c0-0.27,0.13-0.47,0.38-0.6c0.25-0.13,0.56-0.2,0.92-0.2c0.36,0,0.67,0.07,0.92,0.2c0.25,0.13,0.38,0.33,0.38,0.6v13
			c0,0.25-0.13,0.45-0.39,0.6c-0.26,0.15-0.56,0.22-0.91,0.22c-0.36,0-0.67-0.07-0.92-0.22c-0.25-0.15-0.38-0.35-0.38-0.6v-5.74
			h-4.5v5.74c0,0.25-0.13,0.45-0.39,0.6c-0.26,0.15-0.56,0.22-0.91,0.22c-0.36,0-0.67-0.07-0.92-0.22c-0.25-0.15-0.38-0.35-0.38-0.6
			V46.11z M74.95,66.69H33.34c-1.04,0-1.88-0.84-1.88-1.88c0-1.04,0.84-1.88,1.88-1.88h41.61c1.04,0,1.88,0.84,1.88,1.88
			C76.83,65.85,75.99,66.69,74.95,66.69z M76.68,59.59c-0.14,0.23-0.33,0.34-0.57,0.34h-6.34c-0.31,0-0.57-0.07-0.8-0.22
			c-0.23-0.15-0.34-0.35-0.34-0.6v-13c0-0.27,0.13-0.47,0.38-0.6c0.25-0.13,0.56-0.2,0.92-0.2c0.36,0,0.67,0.07,0.92,0.2
			c0.25,0.13,0.38,0.33,0.38,0.6v11.54h4.88c0.24,0,0.43,0.11,0.57,0.34c0.14,0.23,0.21,0.49,0.21,0.8
			C76.89,59.1,76.82,59.37,76.68,59.59z"/>
	</g>
</g>
<g>
	<g>
		<path class="st7" d="M78.89,22.5h-0.31c-0.48,0-0.86,0.39-0.86,0.86v5.07c0,1.01-0.78,1.88-1.79,1.93
			c-1.08,0.05-1.97-0.81-1.97-1.87v-5.13c0-0.48-0.39-0.86-0.86-0.86c-0.48,0-0.86,0.39-0.86,0.86v5.07c0,1.01-0.78,1.88-1.79,1.93
			c-1.08,0.05-1.97-0.81-1.97-1.87v-5.13c0-0.48-0.39-0.86-0.86-0.86H28.47c-3.76,0-6.81,3.05-6.81,6.81v1.59
			c0,0.48,0.39,0.86,0.86,0.86h62.32c0.48,0,0.86-0.39,0.86-0.86v-1.59C85.7,25.55,82.65,22.5,78.89,22.5z M31.6,29.22
			c-0.01,0.06-0.02,0.12-0.03,0.18c-0.01,0.06-0.03,0.12-0.05,0.18c-0.02,0.06-0.04,0.12-0.06,0.17c-0.02,0.06-0.05,0.11-0.08,0.17
			c-0.03,0.05-0.06,0.11-0.09,0.16c-0.04,0.05-0.07,0.1-0.11,0.15c-0.04,0.05-0.08,0.09-0.12,0.14c-0.04,0.04-0.09,0.09-0.14,0.12
			c-0.05,0.04-0.1,0.08-0.15,0.11s-0.1,0.07-0.16,0.09s-0.11,0.06-0.17,0.08c-0.06,0.02-0.11,0.04-0.17,0.06
			c-0.06,0.02-0.12,0.03-0.18,0.04c-0.06,0.01-0.12,0.02-0.18,0.03c-0.06,0.01-0.12,0.01-0.19,0.01s-0.12,0-0.18-0.01
			c-0.06-0.01-0.12-0.02-0.18-0.03c-0.06-0.01-0.12-0.03-0.18-0.04c-0.06-0.02-0.12-0.04-0.17-0.06c-0.06-0.02-0.11-0.05-0.17-0.08
			c-0.05-0.03-0.11-0.06-0.16-0.09c-0.05-0.03-0.1-0.07-0.15-0.11s-0.09-0.08-0.14-0.12c-0.04-0.04-0.09-0.09-0.12-0.14
			s-0.08-0.1-0.11-0.15c-0.03-0.05-0.07-0.11-0.09-0.16c-0.03-0.05-0.06-0.11-0.08-0.17c-0.02-0.06-0.04-0.12-0.06-0.17
			c-0.02-0.06-0.03-0.12-0.05-0.18c-0.01-0.06-0.02-0.12-0.03-0.18c-0.01-0.06-0.01-0.12-0.01-0.18c0-0.06,0-0.12,0.01-0.19
			c0.01-0.06,0.02-0.12,0.03-0.18c0.01-0.06,0.03-0.12,0.05-0.18c0.02-0.06,0.04-0.12,0.06-0.17c0.02-0.06,0.05-0.11,0.08-0.17
			c0.03-0.05,0.06-0.11,0.09-0.16s0.07-0.1,0.11-0.15s0.08-0.09,0.12-0.14c0.04-0.04,0.09-0.09,0.14-0.12
			c0.05-0.04,0.1-0.08,0.15-0.11c0.05-0.03,0.1-0.07,0.16-0.09c0.05-0.03,0.11-0.06,0.17-0.08c0.06-0.02,0.11-0.04,0.17-0.06
			c0.06-0.02,0.12-0.03,0.18-0.05c0.06-0.01,0.12-0.02,0.18-0.03c0.12-0.01,0.25-0.01,0.37,0c0.06,0.01,0.12,0.02,0.18,0.03
			c0.06,0.01,0.12,0.03,0.18,0.05c0.06,0.02,0.12,0.04,0.17,0.06c0.06,0.02,0.11,0.05,0.17,0.08c0.05,0.03,0.11,0.06,0.16,0.09
			c0.05,0.03,0.1,0.07,0.15,0.11c0.05,0.04,0.09,0.08,0.14,0.12c0.04,0.04,0.09,0.09,0.12,0.14c0.04,0.05,0.08,0.1,0.11,0.15
			c0.03,0.05,0.07,0.1,0.09,0.16s0.06,0.11,0.08,0.17c0.02,0.06,0.05,0.12,0.06,0.17c0.02,0.06,0.03,0.12,0.05,0.18
			c0.01,0.06,0.02,0.12,0.03,0.18c0.01,0.06,0.01,0.12,0.01,0.19S31.6,29.16,31.6,29.22z M36.9,29.22
			c-0.01,0.06-0.02,0.12-0.03,0.18c-0.01,0.06-0.03,0.12-0.04,0.18c-0.02,0.06-0.04,0.12-0.06,0.17s-0.05,0.11-0.08,0.17
			c-0.03,0.05-0.06,0.11-0.09,0.16c-0.03,0.05-0.07,0.1-0.11,0.15s-0.08,0.09-0.12,0.14c-0.04,0.04-0.09,0.08-0.14,0.12
			c-0.05,0.04-0.1,0.08-0.15,0.11c-0.05,0.03-0.11,0.07-0.16,0.09s-0.11,0.06-0.17,0.08c-0.06,0.02-0.12,0.04-0.17,0.06
			c-0.06,0.02-0.12,0.03-0.18,0.04c-0.06,0.01-0.12,0.02-0.18,0.03c-0.06,0.01-0.12,0.01-0.18,0.01c-0.06,0-0.12,0-0.19-0.01
			c-0.06-0.01-0.12-0.02-0.18-0.03c-0.06-0.01-0.12-0.03-0.18-0.04c-0.06-0.02-0.12-0.04-0.17-0.06c-0.06-0.02-0.11-0.05-0.17-0.08
			c-0.05-0.03-0.11-0.06-0.16-0.09c-0.05-0.03-0.1-0.07-0.15-0.11c-0.05-0.04-0.09-0.08-0.14-0.12c-0.04-0.04-0.09-0.09-0.12-0.14
			c-0.04-0.05-0.08-0.1-0.11-0.15c-0.03-0.05-0.07-0.11-0.1-0.16c-0.03-0.05-0.06-0.11-0.08-0.17c-0.02-0.06-0.05-0.12-0.06-0.17
			c-0.02-0.06-0.03-0.12-0.05-0.18c-0.01-0.06-0.02-0.12-0.03-0.18c-0.01-0.06-0.01-0.12-0.01-0.18c0-0.06,0-0.12,0.01-0.19
			c0.01-0.06,0.02-0.12,0.03-0.18c0.01-0.06,0.03-0.12,0.05-0.18c0.02-0.06,0.04-0.12,0.06-0.17c0.02-0.06,0.05-0.11,0.08-0.17
			c0.03-0.05,0.06-0.11,0.1-0.16s0.07-0.1,0.11-0.15c0.04-0.05,0.08-0.09,0.12-0.14c0.04-0.04,0.09-0.09,0.14-0.12
			c0.05-0.04,0.1-0.08,0.15-0.11c0.05-0.03,0.1-0.07,0.16-0.1c0.05-0.03,0.11-0.05,0.17-0.08s0.12-0.04,0.17-0.06
			c0.06-0.02,0.12-0.03,0.18-0.05c0.06-0.01,0.12-0.02,0.18-0.03c0.12-0.01,0.25-0.01,0.37,0c0.06,0.01,0.12,0.02,0.18,0.03
			c0.06,0.01,0.12,0.03,0.18,0.05c0.06,0.02,0.12,0.04,0.17,0.06c0.06,0.02,0.11,0.05,0.17,0.08c0.05,0.03,0.11,0.06,0.16,0.1
			c0.05,0.03,0.1,0.07,0.15,0.11c0.05,0.04,0.09,0.08,0.14,0.12c0.04,0.04,0.09,0.09,0.12,0.14c0.04,0.05,0.08,0.1,0.11,0.15
			c0.03,0.05,0.07,0.1,0.09,0.16s0.06,0.11,0.08,0.17s0.04,0.12,0.06,0.17c0.02,0.06,0.03,0.12,0.04,0.18
			c0.01,0.06,0.02,0.12,0.03,0.18c0.01,0.06,0.01,0.12,0.01,0.19S36.91,29.16,36.9,29.22z M42.28,29.22
			c-0.01,0.06-0.02,0.12-0.03,0.18c-0.01,0.06-0.03,0.12-0.04,0.18c-0.02,0.06-0.04,0.12-0.06,0.17s-0.05,0.11-0.08,0.17
			c-0.03,0.05-0.06,0.11-0.09,0.16c-0.03,0.05-0.07,0.1-0.11,0.15c-0.04,0.05-0.08,0.09-0.12,0.14c-0.04,0.04-0.09,0.09-0.14,0.12
			c-0.05,0.04-0.1,0.08-0.15,0.11c-0.05,0.03-0.11,0.07-0.16,0.09s-0.11,0.06-0.17,0.08c-0.06,0.02-0.12,0.04-0.17,0.06
			c-0.06,0.02-0.12,0.03-0.18,0.05c-0.06,0.01-0.12,0.02-0.18,0.03c-0.06,0.01-0.12,0.01-0.18,0.01c-0.06,0-0.12,0-0.19-0.01
			c-0.06-0.01-0.12-0.02-0.18-0.03c-0.06-0.01-0.12-0.03-0.18-0.05c-0.06-0.02-0.12-0.04-0.17-0.06c-0.06-0.02-0.11-0.05-0.17-0.08
			c-0.05-0.03-0.11-0.06-0.16-0.09c-0.05-0.03-0.1-0.07-0.15-0.11c-0.05-0.04-0.09-0.08-0.14-0.12c-0.04-0.04-0.09-0.09-0.12-0.14
			s-0.08-0.1-0.11-0.15c-0.03-0.05-0.07-0.11-0.1-0.16c-0.03-0.05-0.06-0.11-0.08-0.17c-0.02-0.06-0.05-0.12-0.06-0.17
			c-0.02-0.06-0.03-0.12-0.05-0.18c-0.01-0.06-0.02-0.12-0.03-0.18c-0.01-0.06-0.01-0.12-0.01-0.18c0-0.06,0-0.12,0.01-0.19
			c0.01-0.06,0.02-0.12,0.03-0.18c0.01-0.06,0.03-0.12,0.05-0.18c0.02-0.06,0.04-0.12,0.06-0.17c0.02-0.06,0.05-0.11,0.08-0.17
			c0.03-0.05,0.06-0.11,0.1-0.16c0.03-0.05,0.07-0.1,0.11-0.15c0.04-0.05,0.08-0.09,0.12-0.14c0.04-0.04,0.09-0.09,0.14-0.12
			c0.05-0.04,0.1-0.08,0.15-0.11c0.05-0.03,0.1-0.07,0.16-0.09c0.06-0.03,0.11-0.06,0.17-0.08c0.06-0.02,0.12-0.04,0.17-0.06
			c0.06-0.02,0.12-0.03,0.18-0.05c0.06-0.01,0.12-0.02,0.18-0.03c0.12-0.01,0.25-0.01,0.37,0c0.06,0.01,0.12,0.02,0.18,0.03
			c0.06,0.01,0.12,0.03,0.18,0.05c0.06,0.02,0.12,0.04,0.17,0.06c0.06,0.02,0.11,0.05,0.17,0.08c0.05,0.03,0.11,0.06,0.16,0.09
			c0.05,0.03,0.1,0.07,0.15,0.11c0.05,0.04,0.09,0.08,0.14,0.12c0.04,0.04,0.09,0.09,0.12,0.14s0.08,0.1,0.11,0.15
			s0.07,0.1,0.09,0.16s0.06,0.11,0.08,0.17s0.04,0.12,0.06,0.17c0.02,0.06,0.03,0.12,0.04,0.18c0.01,0.06,0.02,0.12,0.03,0.18
			c0.01,0.06,0.01,0.12,0.01,0.19S42.29,29.16,42.28,29.22z"/>
	</g>
</g>
<circle class="st19" cx="139.42" cy="112" r="28.55"/>
<g>
	<path class="st18" d="M149.9,128.56l-11.77-38.38c-0.69-2.2-3.52-3.27-6.42-3.27c-2.89,0-5.73,1.07-6.42,3.27l-10.86,35.63
		c1.55,2.8,3.56,5.32,5.93,7.44c1.29-0.12,2.28-0.65,2.61-1.8l2.14-7.87h13.28l2.14,7.87c0.38,1.32,1.64,1.82,3.21,1.82
		c2.71,0,6.29-1.7,6.29-4.03C150.02,129.07,149.96,128.81,149.9,128.56z M127.12,116.04l4.59-16.86l4.59,16.86H127.12z"/>
	<path class="st18" d="M157.95,88.54c-0.65,0-1.27,0.1-1.84,0.3c-1.96,0.65-3.32,2.32-3.32,4.17c0,2.39,2.27,4.53,5.16,4.53
		c1.95,0,3.63-1.01,4.49-2.43c0.39-0.64,0.61-1.36,0.61-2.1C163.05,90.62,160.78,88.54,157.95,88.54z M157.95,103.33
		c-2.83,0-4.85,1.2-4.85,2.96v23.97c0,1.51,2.01,3.02,4.85,3.02c0.18,0,0.35-0.01,0.53-0.02c1.64-1.47,3.12-3.14,4.38-4.95v-22.02
		C162.86,104.53,160.66,103.33,157.95,103.33z"/>
</g>
<circle class="st20" cx="86.72" cy="134.14" r="36.95"/>
<g>
	<path class="st21" d="M73.1,101.66H56.23c-2.85,0-4.73,1.79-4.73,3.83v39.87c1.88,5.91,5.21,11.18,9.58,15.39
		c1.8-0.59,3.13-1.74,3.13-3.42v-17.6h8.07c11.25,0,20.05-5.22,20.05-18.91v-0.41C92.34,106.71,83.86,101.66,73.1,101.66z
		 M79.62,121.79c0,5.54-2.77,8.15-7.34,8.15h-8.07v-17.2h8.07c4.56,0,7.34,2.61,7.34,8.15V121.79z"/>
	<path class="st21" d="M102.69,133.93c0-1.22,1.39-2.61,4.64-2.61c4.4,0,6.93,2.45,9.13,2.45c2.93,0,4.56-4.32,4.56-5.95
		c0-3.42-6.77-5.87-13.86-5.87c-11.57,0-15.32,6.52-15.32,12.55c0,13.69,19.07,9.86,19.07,15.49c0,1.14-0.73,2.69-5.05,2.69
		c-6.52,0-8.4-3.67-11-3.67c-2.53,0-4.16,3.59-4.16,5.54c0,3.99,6.93,7.5,15.49,7.5c1.94,0,3.71-0.18,5.31-0.52
		c4.52-4.09,8.01-9.27,10.08-15.14C118.99,135.64,102.69,138.13,102.69,133.93z"/>
</g>
</svg>
