<?xml version="1.0" encoding="utf-8"?>
<!-- Generator: Adobe Illustrator 24.0.0, SVG Export Plug-In . SVG Version: 6.00 Build 0)  -->
<svg version="1.1" id="Layer_1" xmlns="http://www.w3.org/2000/svg" xmlns:xlink="http://www.w3.org/1999/xlink" x="0px" y="0px"
	 viewBox="0 0 178.7 178.7" style="enable-background:new 0 0 178.7 178.7;" xml:space="preserve">
<style type="text/css">
	.st0{opacity:3.000000e-02;fill:#E76108;enable-background:new    ;}
	.st1{fill:#4285F4;}
	.st2{fill:#34A853;}
	.st3{fill:#FBBC05;}
	.st4{fill:#EB4335;}
	.st5{fill:#252F3E;}
	.st6{fill:#FF9900;}
</style>
<title>service6</title>
<g id="Layer_9">
	<path class="st0" d="M136.7,72.8L136.7,72.8c-11.9-28.5-44.7-42-73.3-30C44,50.9,30.8,69.3,29.2,90.3c-16.5,2.3-28,17.5-25.8,34
		c2.1,14.9,14.8,26.1,29.9,26h103.4c21.4-0.3,38.5-18,38.1-39.4C174.5,90,157.6,73.2,136.7,72.8L136.7,72.8z"/>
	<g id="Layer_8">
		<path class="st1" d="M88,61.5c0-2.2-0.2-4.5-0.7-6.7H56.7v12.1h18C74,71.2,71.6,75,68,77.5l-0.1,0.4l9.7,7.5l0.7,0.1
			C84.4,79.8,88,71.5,88,61.5"/>
		<path class="st2" d="M56.7,93.4c8.8,0,16.2-2.9,21.6-7.9l-10.3-8c-3.3,2.2-7.3,3.4-11.3,3.3c-8.5,0-15.9-5.5-18.5-13.6h-0.4
			L27.7,75l-0.1,0.4C33.1,86.4,44.4,93.4,56.7,93.4"/>
		<path class="st3" d="M38.1,67.2c-0.7-2.1-1.1-4.3-1.1-6.5c0-2.2,0.3-4.4,1-6.5v-0.4L27.9,46l-0.3,0.2c-4.6,9.2-4.6,20.1,0,29.3
			L38.1,67.2"/>
		<path class="st4" d="M56.7,40.8c4.7-0.1,9.2,1.7,12.6,4.9l9.2-9c-5.9-5.5-13.7-8.6-21.8-8.5c-12.3,0-23.6,7-29.1,18l10.5,8.2
			C40.7,46.3,48.2,40.8,56.7,40.8"/>
	</g>
</g>
<path class="st5" d="M115,121.3c0,0.7,0.1,1.5,0.3,2.2c0.2,0.6,0.5,1.2,0.8,1.8c0.1,0.2,0.2,0.4,0.2,0.6c0,0.3-0.2,0.6-0.5,0.7
	l-1.6,1c-0.2,0.1-0.4,0.2-0.6,0.2c-0.3,0-0.5-0.1-0.7-0.3c-0.3-0.4-0.6-0.7-0.9-1.2c-0.2-0.4-0.5-0.9-0.8-1.5
	c-1.8,2.2-4.5,3.5-7.3,3.4c-2.1,0-3.7-0.6-5-1.8c-2.6-2.8-2.4-7.3,0.4-9.9c1.5-1.3,3.5-1.9,6.1-1.9c0.9,0,1.8,0.1,2.6,0.2
	c0.9,0.1,1.9,0.3,2.9,0.5v-1.8c0-1.9-0.4-3.2-1.2-4c-0.8-0.8-2.1-1.1-4-1.1c-0.9,0-1.8,0.1-2.7,0.3c-0.9,0.2-1.8,0.5-2.7,0.8
	c-0.3,0.1-0.6,0.2-0.9,0.3c-0.1,0-0.3,0.1-0.4,0.1c-0.3,0-0.5-0.2-0.5-0.8v-1.2c0-0.3,0-0.6,0.2-0.9c0.2-0.2,0.4-0.4,0.7-0.5
	c1-0.5,2-0.9,3.1-1.1c1.3-0.3,2.6-0.5,3.9-0.5c3,0,5.1,0.7,6.5,2s2.1,3.4,2.1,6.1L115,121.3L115,121.3z M105,125.1
	c0.9,0,1.7-0.2,2.6-0.4c0.9-0.3,1.7-0.9,2.4-1.6c0.4-0.5,0.7-1,0.8-1.6c0.2-0.7,0.3-1.4,0.2-2.2v-1c-0.8-0.2-1.5-0.3-2.3-0.4
	c-0.8-0.1-1.6-0.1-2.3-0.2c-1.7,0-2.9,0.3-3.7,1c-1.6,1.2-1.9,3.4-0.8,5C102.6,124.6,103.8,125.2,105,125.1L105,125.1z M124.9,127.8
	c-0.3,0-0.7-0.1-0.9-0.2c-0.3-0.3-0.4-0.6-0.5-1l-5.8-19.2c-0.1-0.3-0.2-0.7-0.2-1c0-0.3,0.2-0.6,0.5-0.6c0,0,0.1,0,0.1,0h2.4
	c0.3,0,0.7,0,1,0.2c0.3,0.3,0.4,0.6,0.5,1l4.1,16.4l3.9-16.4c0.1-0.4,0.2-0.7,0.5-1c0.3-0.2,0.6-0.3,1-0.2h2c0.4,0,0.7,0.1,1,0.2
	c0.3,0.3,0.4,0.6,0.5,1l3.9,16.6l4.3-16.6c0.1-0.4,0.3-0.7,0.5-1c0.3-0.2,0.6-0.3,1-0.2h2.3c0.3,0,0.6,0.2,0.6,0.5
	c0,0.1,0,0.1,0,0.2c0,0.1,0,0.3-0.1,0.4c0,0.2-0.1,0.4-0.2,0.6l-6,19.2c-0.1,0.4-0.3,0.7-0.5,1c-0.3,0.2-0.6,0.3-0.9,0.2h-2.1
	c-0.4,0-0.7-0.1-1-0.2c-0.3-0.3-0.4-0.6-0.5-1l-3.8-16l-3.8,16c-0.1,0.4-0.2,0.7-0.5,1c-0.3,0.2-0.6,0.3-1,0.2L124.9,127.8z
	 M156.8,128.5c-1.3,0-2.6-0.1-3.8-0.4c-1-0.2-2-0.5-2.9-1c-0.3-0.2-0.6-0.4-0.8-0.7c-0.1-0.2-0.1-0.5-0.2-0.7v-1.3
	c0-0.5,0.2-0.8,0.6-0.8c0.2,0,0.3,0,0.4,0.1c0.2,0.1,0.4,0.2,0.6,0.2c0.9,0.4,1.8,0.7,2.7,0.9c1,0.2,2,0.3,3,0.3
	c1.3,0.1,2.5-0.2,3.6-0.8c0.8-0.5,1.3-1.4,1.3-2.4c0-0.6-0.2-1.3-0.7-1.7c-0.7-0.6-1.6-1.1-2.5-1.3l-3.6-1.1c-1.8-0.6-3.2-1.4-4-2.5
	c-0.8-1-1.2-2.3-1.2-3.6c0-1,0.2-1.9,0.7-2.8c0.4-0.8,1.1-1.5,1.8-2c0.8-0.6,1.7-1,2.6-1.3c1-0.3,2.1-0.4,3.1-0.4
	c0.6,0,1.1,0,1.7,0.1c0.6,0.1,1.1,0.2,1.6,0.3c0.5,0.1,1,0.2,1.4,0.4c0.4,0.1,0.7,0.3,1,0.4c0.3,0.1,0.5,0.4,0.7,0.6
	c0.2,0.2,0.2,0.5,0.2,0.8v1.2c0,0.5-0.2,0.8-0.6,0.8c-0.3,0-0.7-0.1-0.9-0.3c-1.5-0.7-3.1-1-4.8-1c-1.1-0.1-2.3,0.2-3.3,0.7
	c-0.8,0.5-1.2,1.3-1.2,2.2c0,0.7,0.3,1.3,0.7,1.8c0.8,0.6,1.7,1.1,2.7,1.4l3.5,1.1c1.8,0.6,3.1,1.4,3.8,2.4c0.8,1,1.2,2.2,1.1,3.5
	c0,1-0.2,2-0.6,2.9c-0.4,0.8-1.1,1.6-1.8,2.2c-0.8,0.6-1.8,1.1-2.8,1.4C159.2,128.3,158,128.5,156.8,128.5L156.8,128.5z"/>
<path class="st6" d="M161.5,140.5c-8.2,6-20,9.2-30.2,9.2c-13.6,0.1-26.8-4.9-36.9-14.1c-0.8-0.7-0.1-1.6,0.8-1.1
	c19.9,11.5,44,13,65.1,4C161.7,138,162.8,139.5,161.5,140.5L161.5,140.5z"/>
<path class="st6" d="M164.9,138.7c-1-1.3-6.9-0.6-9.6-0.3c-0.8,0.1-0.9-0.6-0.2-1.1c4.7-3.3,12.3-2.3,13.2-1.2
	c0.9,1.1-0.2,8.8-4.6,12.4c-0.7,0.6-1.3,0.3-1-0.5C163.7,145.5,165.9,140,164.9,138.7z"/>
</svg>
