<?xml version="1.0" encoding="utf-8"?>
<!-- Generator: Adobe Illustrator 24.0.0, SVG Export Plug-In . SVG Version: 6.00 Build 0)  -->
<svg version="1.1" id="Layer_1" xmlns="http://www.w3.org/2000/svg" xmlns:xlink="http://www.w3.org/1999/xlink" x="0px" y="0px"
	 viewBox="0 0 178.7 178.7" style="enable-background:new 0 0 178.7 178.7;" xml:space="preserve">
<style type="text/css">
	.st0{display:none;fill:#FFFFFF;}
	.st1{fill:#F9F9F9;}
	.st2{fill:#DB380E;}
	.st3{fill:#73A1FB;}
	.st4{fill:#66A060;}
</style>
<path class="st0" d="M154.7,178.7H24c-13.3,0-24-10.8-24-24V24C0,10.8,10.8,0,24,0h130.7c13.3,0,24,10.8,24,24v130.7
	C178.7,168,168,178.7,154.7,178.7z"/>
<g id="Layer_2_1_">
	<polygon class="st1" points="162,132.3 162,48.5 89.4,6.6 16.8,48.5 16.8,132.3 89.4,174.2 	"/>
	<rect x="47.5" y="17.8" transform="matrix(0.866 -0.5 0.5 0.866 -33.2254 56.8016)" class="st1" width="83.8" height="145.2"/>
	<polygon class="st1" points="16.8,132.3 41.7,91.7 16.8,48.5 	"/>
	<polygon class="st1" points="137.8,90.4 162,48.5 89.4,6.6 	"/>
</g>
<g>
	<path class="st2" d="M123,90.1c-3.9,2.8-8.4,5.9-10.8,11.1c-4.1,9,8.5,18.9,9,19.3c0.1,0.1,0.3,0.1,0.4,0.1c0.2,0,0.3-0.1,0.4-0.2
		c0.3-0.2,0.3-0.6,0.2-0.9c-0.1-0.1-4.6-8.9-4.4-15.2c0.1-2.2,3.1-4.7,6.4-7.3c3-2.4,6.4-5.2,8.3-8.4c4.3-7.1-0.5-14-0.5-14.1
		c-0.2-0.3-0.6-0.4-0.9-0.2c-0.3,0.1-0.5,0.5-0.4,0.8c0,0.1,0.9,4.6-1.7,9.4C128.1,86.5,125.8,88.2,123,90.1z"/>
	<path class="st2" d="M139.6,93.2c0.3-0.2,0.4-0.6,0.2-0.9s-0.5-0.4-0.9-0.3c-0.7,0.3-16.3,6.3-16.3,13.6c0,5,2.2,7.7,3.7,9.6
		c0.6,0.8,1.2,1.4,1.3,2c0.5,1.6-0.7,4.5-1.2,5.5c-0.1,0.3-0.1,0.6,0.2,0.8c0.1,0.1,0.3,0.2,0.5,0.2c0.1,0,0.3,0,0.4-0.1
		c0.3-0.2,6.6-4.7,5.5-10c-0.4-2.1-1.4-3.5-2.3-4.9c-1.4-2-2.4-3.5-0.9-6.2C131.5,99.3,139.5,93.3,139.6,93.2z"/>
</g>
<g>
	<path class="st3" d="M98.8,123.9c-0.3,0.8-0.1,1.6,0.4,2.3c1.7,2.4,7.7,3.7,16.9,3.7l0,0c1.3,0,2.6,0,3.9-0.1
		c14.8-0.5,20.2-5.1,20.4-5.3c0.3-0.2,0.3-0.6,0.2-0.8c-0.1-0.3-0.5-0.4-0.8-0.3c-5.2,1.4-14.9,1.9-21.6,1.9
		c-7.5,0-11.4-0.5-12.3-0.9c0.5-0.7,3.4-1.8,7.1-2.6c0.3-0.1,0.6-0.4,0.6-0.8s-0.3-0.6-0.7-0.6C110.7,120.3,99.9,120.4,98.8,123.9z"
		/>
	<path class="st3" d="M148.1,119.1c-3,0-5.9,1.5-6.1,1.6c-0.3,0.2-0.4,0.5-0.4,0.8c0.1,0.3,0.4,0.5,0.7,0.5c0.1,0,6.5,0.1,7.1,3.7
		c0.5,3.2-6.1,8.3-8.7,10c-0.3,0.2-0.4,0.5-0.3,0.9c0.1,0.3,0.4,0.4,0.6,0.4c0.1,0,0.1,0,0.1,0c0.6-0.1,15-3.3,13.5-11.7
		C153.9,120.2,150.7,119.1,148.1,119.1z"/>
	<path class="st3" d="M138.3,134.8c0.1-0.3-0.1-0.5-0.3-0.7l-3.4-2.4c-0.2-0.1-0.4-0.1-0.6-0.1c0,0-3.6,1-8.9,1.5
		c-2.1,0.2-4.4,0.4-6.7,0.4c-5.2,0-8.7-0.6-9.2-1.1c-0.1-0.1-0.1-0.2,0-0.2c0.1-0.3,0.6-0.6,0.9-0.7c0.3-0.1,0.5-0.5,0.4-0.9
		c-0.1-0.4-0.5-0.6-0.8-0.5c-3.5,0.8-5.2,2-5,3.5c0.2,2.6,6.3,3.9,11.3,4.3c0.7,0.1,1.5,0.1,2.4,0.1l0,0c8.5,0,19.3-2.7,19.5-2.7
		C138,135.2,138.2,135,138.3,134.8z"/>
	<path class="st3" d="M112.3,140.3c0.3-0.2,0.4-0.5,0.3-0.8c-0.1-0.3-0.4-0.5-0.7-0.5c-0.5,0-4.5,0.2-4.8,2.8
		c-0.1,0.8,0.1,1.5,0.7,2.1c1.5,1.7,5.4,2.8,12.1,3.1c0.8,0.1,1.6,0.1,2.4,0.1c8.5,0,14.2-2.6,14.4-2.8c0.2-0.1,0.4-0.3,0.4-0.6
		c0-0.3-0.1-0.5-0.3-0.6l-4.4-2.7c-0.1-0.1-0.3-0.1-0.5-0.1c0,0-2.8,0.6-7,1.1c-0.8,0.1-1.8,0.2-2.9,0.2c-4.2,0-8.8-0.7-9.7-1.1
		C112.1,140.5,112.1,140.4,112.3,140.3z"/>
	<path class="st3" d="M118.2,155.2c19.4,0,29.8-3.5,31.8-5.6c0.7-0.8,0.8-1.5,0.7-2c-0.1-1.2-1.2-1.9-1.3-2
		c-0.3-0.2-0.7-0.1-0.9,0.1c-0.2,0.3-0.2,0.6,0,0.9c0.1,0.2,0.2,0.4-0.2,0.8c-0.8,0.8-8.9,3-22.4,3.7c-1.8,0.1-3.8,0.1-5.8,0.1
		c-12.1,0-20.9-1.6-22-2.6c0.4-0.6,3.6-1.7,6.9-2.3c0.4-0.1,0.6-0.4,0.6-0.8c-0.1-0.4-0.4-0.6-0.8-0.6c-0.1,0-0.4,0-0.8,0.1
		c-5.5,0.3-11.8,1.1-12.1,3.9c-0.1,0.9,0.2,1.6,0.8,2.3C94.2,153,98.4,155.2,118.2,155.2L118.2,155.2z"/>
	<path class="st3" d="M153.8,150.2c-0.3-0.1-0.6-0.1-0.8,0.2c0,0-2.9,3.1-11.7,4.9c-3.4,0.7-9.7,1-18.7,1c-9.1,0-17.7-0.4-17.8-0.4
		c-0.4,0-0.7,0.3-0.7,0.6c-0.1,0.4,0.2,0.7,0.5,0.8c0.1,0,9.2,2.1,21.5,2.1c5.9,0,11.7-0.5,17.2-1.4c10.2-1.8,10.9-6.8,10.9-7.1
		C154.3,150.6,154.1,150.3,153.8,150.2z"/>
</g>
<g>
	<path class="st4" d="M66.3,52.7c0,0-0.6-5.2-6.2-5.2s-9.4,0.7-9.4,3.8s10.9,3.1,15,4.3s7.8,4.4,6,10s-7.4,6.2-16.1,6.2
		S45,64.6,45,61.8h4.9c0,0-0.6,4.4,5.1,5.1c5.7,0.7,11.2,1.1,11.9-3.3c1-5.8-18.5-2.9-20.2-8.6c-1.4-4.8-0.6-11.2,9.1-12.2
		c9.7-1,15.1,3.3,15.1,9.7L66.3,52.7z"/>
	<path class="st4" d="M19.3,75.5l10.8,6.2c5.4,3.1,12.2-0.8,12.2-7V63.8v-20h-4.4v29.7c0,3.4-3.7,5.5-6.6,3.8L23.7,73V41.3
		l27.4-15.9l27.5,15.9V73L51.2,88.8l-7.9-4.6l-5.2,2.1l13.1,7.6L83,75.5V38.8L51.2,20.4L19.3,38.8L19.3,75.5L19.3,75.5L19.3,75.5z"
		/>
</g>
</svg>
