<?xml version="1.0" encoding="utf-8"?>
<!-- Generator: Adobe Illustrator 24.0.0, SVG Export Plug-In . SVG Version: 6.00 Build 0)  -->
<svg version="1.1" id="Layer_1" xmlns="http://www.w3.org/2000/svg" xmlns:xlink="http://www.w3.org/1999/xlink" width="420px" height="420px" x="0px" y="0px"
	 viewBox="0 0 394.64 395.24" style="enable-background:new 0 0 394.64 395.24;" xml:space="preserve">
<style type="text/css">
	.st0{display:none;}
	.st1{display:inline;fill:url(#SVGID_1_);}
	.st2{display:inline;fill:#FFFFFF;}
	.st3{display:inline;}
	.st4{fill:url(#SVGID_2_);}
	.st5{fill:#FFFFFF;}
	.st6{fill:url(#SVGID_3_);}
	.st7{fill:url(#SVGID_4_);}
	.st8{fill:url(#SVGID_5_);}
	.st9{fill:none;stroke:#1D3289;stroke-miterlimit:10;}
	.st10{fill:none;stroke:#1D3289;stroke-miterlimit:10;stroke-dasharray:2.9982,2.9982;}
	.st11{fill:#F5C713;}
	.st12{fill:#0B2139;}
	.st13{fill:none;stroke:#33354E;stroke-width:0.5;stroke-linecap:round;stroke-miterlimit:10;}
	.st14{fill:#D7DDEF;}
	.st15{font-family:'OpenSans-Extrabold';}
	.st16{font-size:34.7524px;}
	.st17{fill:#225DD9;}
	.st18{display:inline;fill:url(#SVGID_6_);}
	.st19{display:inline;fill:url(#SVGID_7_);}
	.st20{display:inline;fill:url(#SVGID_8_);}
	.st21{display:inline;fill:#E2443D;}
	.st22{fill:none;stroke:#1D3289;stroke-miterlimit:10;stroke-dasharray:2.9764,2.9764;}
	.st23{fill:#D7DDEF;stroke:#D7DDEF;stroke-width:0.25;stroke-miterlimit:10;}
	.st24{fill:#225DD9;stroke:#225DD9;stroke-width:0.25;stroke-miterlimit:10;}
	.st25{fill:#1D3289;stroke:#1D3289;stroke-width:0.25;stroke-miterlimit:10;}
	.st26{fill:#FFB620;stroke:#FFB620;stroke-width:0.25;stroke-miterlimit:10;}
	.st27{fill:#F4B7BC;stroke:#F4B7BC;stroke-width:0.25;stroke-miterlimit:10;}
	.st28{fill:none;stroke:#33354E;stroke-width:0.25;stroke-miterlimit:10;}
	.st29{fill:#33354E;stroke:#33354E;stroke-width:0.25;stroke-miterlimit:10;}
	.st30{fill:#33354E;stroke:#33354E;stroke-width:0.25;stroke-linecap:round;stroke-miterlimit:10;}
	.st31{fill:#33354E;}
	.st32{fill:none;stroke:#33354E;stroke-width:0.25;stroke-linecap:round;stroke-miterlimit:10;}
	.st33{fill:url(#SVGID_9_);stroke:#33354E;stroke-width:0.25;stroke-miterlimit:10;}
	.st34{fill:#E2443D;stroke:#E2443D;stroke-width:0.25;stroke-miterlimit:10;}
	.st35{display:inline;fill:none;stroke:#33354E;stroke-width:0.25;stroke-linecap:round;stroke-miterlimit:10;}
	
		.st36{display:inline;fill:none;stroke:#33354E;stroke-width:0.25;stroke-linecap:round;stroke-linejoin:round;stroke-miterlimit:10;}
	.st37{display:inline;fill:none;stroke:#33354E;stroke-width:0.25;stroke-miterlimit:10;}
	.st38{display:inline;fill:#1D3289;stroke:#1D3289;stroke-width:0.25;stroke-miterlimit:10;}
	.st39{display:none;fill:#33354E;stroke:#33354E;stroke-width:0.25;stroke-miterlimit:10;}
	.st40{fill:#FFFFFF;stroke:#FFFFFF;stroke-width:0.25;stroke-miterlimit:10;}
	.st41{fill:#D7DDEF;stroke:#D7DDEF;stroke-width:0.25;stroke-linecap:round;stroke-linejoin:round;stroke-miterlimit:10;}
	.st42{display:inline;fill:url(#SVGID_10_);}
	.st43{display:inline;fill:url(#SVGID_11_);}
	.st44{fill:#00071E;}
	.st45{fill:#1D3289;}
	.st46{display:none;fill:none;stroke:#33354E;stroke-width:0.25;stroke-linecap:round;stroke-linejoin:round;stroke-miterlimit:10;}
	.st47{fill:#141414;stroke:#000000;stroke-width:0.4761;stroke-miterlimit:10;}
	.st48{opacity:0.58;fill-rule:evenodd;clip-rule:evenodd;fill:url(#SVGID_12_);}
	.st49{fill-rule:evenodd;clip-rule:evenodd;fill:#E0AA00;}
	.st50{fill-rule:evenodd;clip-rule:evenodd;fill:#F5C713;}
	.st51{fill-rule:evenodd;clip-rule:evenodd;fill:url(#SVGID_13_);}
	.st52{fill-rule:evenodd;clip-rule:evenodd;fill:url(#SVGID_14_);}
	.st53{fill-rule:evenodd;clip-rule:evenodd;fill:#1D4FB1;}
	.st54{clip-path:url(#SVGID_16_);fill-rule:evenodd;clip-rule:evenodd;fill:#1F84FF;}
	.st55{clip-path:url(#SVGID_16_);fill-rule:evenodd;clip-rule:evenodd;fill:#1F85FF;}
	.st56{clip-path:url(#SVGID_16_);fill-rule:evenodd;clip-rule:evenodd;fill:#1E86FF;}
	.st57{clip-path:url(#SVGID_16_);fill-rule:evenodd;clip-rule:evenodd;fill:#1E87FF;}
	.st58{clip-path:url(#SVGID_16_);fill-rule:evenodd;clip-rule:evenodd;fill:#1E88FF;}
	.st59{clip-path:url(#SVGID_16_);fill-rule:evenodd;clip-rule:evenodd;fill:#1D89FF;}
	.st60{clip-path:url(#SVGID_16_);fill-rule:evenodd;clip-rule:evenodd;fill:#1D8AFF;}
	.st61{clip-path:url(#SVGID_16_);fill-rule:evenodd;clip-rule:evenodd;fill:#1D8BFF;}
	.st62{clip-path:url(#SVGID_16_);fill-rule:evenodd;clip-rule:evenodd;fill:#1C8CFF;}
	.st63{clip-path:url(#SVGID_16_);fill-rule:evenodd;clip-rule:evenodd;fill:#1C8DFF;}
	.st64{clip-path:url(#SVGID_16_);fill-rule:evenodd;clip-rule:evenodd;fill:#1C8EFF;}
	.st65{clip-path:url(#SVGID_16_);fill-rule:evenodd;clip-rule:evenodd;fill:#1B8FFF;}
	.st66{clip-path:url(#SVGID_16_);fill-rule:evenodd;clip-rule:evenodd;fill:#1B90FF;}
	.st67{clip-path:url(#SVGID_16_);fill-rule:evenodd;clip-rule:evenodd;fill:#1B91FF;}
	.st68{clip-path:url(#SVGID_16_);fill-rule:evenodd;clip-rule:evenodd;fill:#1A92FF;}
	.st69{clip-path:url(#SVGID_16_);fill-rule:evenodd;clip-rule:evenodd;fill:#1A93FF;}
	.st70{clip-path:url(#SVGID_16_);fill-rule:evenodd;clip-rule:evenodd;fill:#1A94FF;}
	.st71{clip-path:url(#SVGID_16_);fill-rule:evenodd;clip-rule:evenodd;fill:#1995FF;}
	.st72{clip-path:url(#SVGID_16_);fill-rule:evenodd;clip-rule:evenodd;fill:#1996FF;}
	.st73{clip-path:url(#SVGID_16_);fill-rule:evenodd;clip-rule:evenodd;fill:#1997FF;}
	.st74{clip-path:url(#SVGID_16_);fill-rule:evenodd;clip-rule:evenodd;fill:#1898FF;}
	.st75{clip-path:url(#SVGID_16_);fill-rule:evenodd;clip-rule:evenodd;fill:#1899FF;}
	.st76{clip-path:url(#SVGID_16_);fill-rule:evenodd;clip-rule:evenodd;fill:#189AFF;}
	.st77{clip-path:url(#SVGID_16_);fill-rule:evenodd;clip-rule:evenodd;fill:#179BFF;}
	.st78{clip-path:url(#SVGID_16_);fill-rule:evenodd;clip-rule:evenodd;fill:#179CFF;}
	.st79{clip-path:url(#SVGID_16_);fill-rule:evenodd;clip-rule:evenodd;fill:#169DFF;}
	.st80{clip-path:url(#SVGID_16_);fill-rule:evenodd;clip-rule:evenodd;fill:#169EFF;}
	.st81{clip-path:url(#SVGID_16_);fill-rule:evenodd;clip-rule:evenodd;fill:#169FFF;}
	.st82{clip-path:url(#SVGID_16_);fill-rule:evenodd;clip-rule:evenodd;fill:#15A0FF;}
	.st83{clip-path:url(#SVGID_16_);fill-rule:evenodd;clip-rule:evenodd;fill:#15A1FF;}
	.st84{clip-path:url(#SVGID_16_);fill-rule:evenodd;clip-rule:evenodd;fill:#15A2FF;}
	.st85{clip-path:url(#SVGID_16_);fill-rule:evenodd;clip-rule:evenodd;fill:#14A3FF;}
	.st86{clip-path:url(#SVGID_16_);fill-rule:evenodd;clip-rule:evenodd;fill:#14A4FF;}
	.st87{clip-path:url(#SVGID_16_);fill-rule:evenodd;clip-rule:evenodd;fill:#14A5FF;}
	.st88{clip-path:url(#SVGID_16_);fill-rule:evenodd;clip-rule:evenodd;fill:#13A6FF;}
	.st89{clip-path:url(#SVGID_16_);fill-rule:evenodd;clip-rule:evenodd;fill:#13A7FF;}
	.st90{clip-path:url(#SVGID_16_);fill-rule:evenodd;clip-rule:evenodd;fill:#13A8FF;}
	.st91{clip-path:url(#SVGID_16_);fill-rule:evenodd;clip-rule:evenodd;fill:#12A9FF;}
	.st92{clip-path:url(#SVGID_16_);fill-rule:evenodd;clip-rule:evenodd;fill:#12AAFF;}
	.st93{clip-path:url(#SVGID_16_);fill-rule:evenodd;clip-rule:evenodd;fill:#12ABFF;}
	.st94{clip-path:url(#SVGID_16_);fill-rule:evenodd;clip-rule:evenodd;fill:#11ACFF;}
	.st95{clip-path:url(#SVGID_16_);fill-rule:evenodd;clip-rule:evenodd;fill:#11ADFF;}
	.st96{clip-path:url(#SVGID_16_);fill-rule:evenodd;clip-rule:evenodd;fill:#11AEFF;}
	.st97{clip-path:url(#SVGID_16_);fill-rule:evenodd;clip-rule:evenodd;fill:#10AFFF;}
	.st98{clip-path:url(#SVGID_16_);fill-rule:evenodd;clip-rule:evenodd;fill:#10B0FF;}
	.st99{clip-path:url(#SVGID_16_);fill-rule:evenodd;clip-rule:evenodd;fill:#10B1FF;}
	.st100{clip-path:url(#SVGID_16_);fill-rule:evenodd;clip-rule:evenodd;fill:#0FB3FF;}
	.st101{clip-path:url(#SVGID_16_);fill-rule:evenodd;clip-rule:evenodd;fill:#0FB4FF;}
	.st102{clip-path:url(#SVGID_16_);fill-rule:evenodd;clip-rule:evenodd;fill:#0FB5FF;}
	.st103{clip-path:url(#SVGID_16_);fill-rule:evenodd;clip-rule:evenodd;fill:#0EB6FF;}
	.st104{clip-path:url(#SVGID_16_);fill-rule:evenodd;clip-rule:evenodd;fill:#0EB7FF;}
	.st105{clip-path:url(#SVGID_16_);fill-rule:evenodd;clip-rule:evenodd;fill:#0EB8FF;}
	.st106{clip-path:url(#SVGID_16_);fill-rule:evenodd;clip-rule:evenodd;fill:#0DB9FF;}
	.st107{clip-path:url(#SVGID_16_);fill-rule:evenodd;clip-rule:evenodd;fill:#0DBAFF;}
	.st108{clip-path:url(#SVGID_16_);fill-rule:evenodd;clip-rule:evenodd;fill:#0DBBFF;}
	.st109{clip-path:url(#SVGID_16_);fill-rule:evenodd;clip-rule:evenodd;fill:#0CBCFF;}
	.st110{clip-path:url(#SVGID_16_);fill-rule:evenodd;clip-rule:evenodd;fill:#0CBDFF;}
	.st111{clip-path:url(#SVGID_16_);fill-rule:evenodd;clip-rule:evenodd;fill:#0CBEFF;}
	.st112{clip-path:url(#SVGID_16_);fill-rule:evenodd;clip-rule:evenodd;fill:#0BBFFF;}
	.st113{clip-path:url(#SVGID_16_);fill-rule:evenodd;clip-rule:evenodd;fill:#0BC0FF;}
	.st114{clip-path:url(#SVGID_16_);fill-rule:evenodd;clip-rule:evenodd;fill:#0BC1FF;}
	.st115{clip-path:url(#SVGID_16_);fill-rule:evenodd;clip-rule:evenodd;fill:#0AC2FF;}
	.st116{clip-path:url(#SVGID_16_);fill-rule:evenodd;clip-rule:evenodd;fill:#0AC3FF;}
	.st117{clip-path:url(#SVGID_16_);fill-rule:evenodd;clip-rule:evenodd;fill:#0AC4FF;}
	.st118{clip-path:url(#SVGID_16_);fill-rule:evenodd;clip-rule:evenodd;fill:#09C5FF;}
	.st119{clip-path:url(#SVGID_16_);fill-rule:evenodd;clip-rule:evenodd;fill:#09C6FF;}
	.st120{clip-path:url(#SVGID_16_);fill-rule:evenodd;clip-rule:evenodd;fill:#09C7FF;}
	.st121{clip-path:url(#SVGID_16_);fill-rule:evenodd;clip-rule:evenodd;fill:#08C8FF;}
	.st122{clip-path:url(#SVGID_16_);fill-rule:evenodd;clip-rule:evenodd;fill:#08C9FF;}
	.st123{clip-path:url(#SVGID_16_);fill-rule:evenodd;clip-rule:evenodd;fill:#07CAFF;}
	.st124{clip-path:url(#SVGID_16_);fill-rule:evenodd;clip-rule:evenodd;fill:#07CBFF;}
	.st125{clip-path:url(#SVGID_16_);fill-rule:evenodd;clip-rule:evenodd;fill:#07CCFF;}
	.st126{clip-path:url(#SVGID_16_);fill-rule:evenodd;clip-rule:evenodd;fill:#06CDFF;}
	.st127{clip-path:url(#SVGID_16_);fill-rule:evenodd;clip-rule:evenodd;fill:#06CEFF;}
	.st128{clip-path:url(#SVGID_16_);fill-rule:evenodd;clip-rule:evenodd;fill:#06CFFF;}
	.st129{clip-path:url(#SVGID_16_);fill-rule:evenodd;clip-rule:evenodd;fill:#05D0FF;}
	.st130{clip-path:url(#SVGID_16_);fill-rule:evenodd;clip-rule:evenodd;fill:#05D1FF;}
	.st131{clip-path:url(#SVGID_16_);fill-rule:evenodd;clip-rule:evenodd;fill:#05D2FF;}
	.st132{clip-path:url(#SVGID_16_);fill-rule:evenodd;clip-rule:evenodd;fill:#04D3FF;}
	.st133{clip-path:url(#SVGID_16_);fill-rule:evenodd;clip-rule:evenodd;fill:#04D4FF;}
	.st134{clip-path:url(#SVGID_16_);fill-rule:evenodd;clip-rule:evenodd;fill:#04D5FF;}
	.st135{clip-path:url(#SVGID_16_);fill-rule:evenodd;clip-rule:evenodd;fill:#03D6FF;}
	.st136{clip-path:url(#SVGID_16_);fill-rule:evenodd;clip-rule:evenodd;fill:#03D7FF;}
	.st137{clip-path:url(#SVGID_16_);fill-rule:evenodd;clip-rule:evenodd;fill:#03D8FF;}
	.st138{clip-path:url(#SVGID_16_);fill-rule:evenodd;clip-rule:evenodd;fill:#02D9FF;}
	.st139{clip-path:url(#SVGID_16_);fill-rule:evenodd;clip-rule:evenodd;fill:#02DAFF;}
	.st140{clip-path:url(#SVGID_16_);fill-rule:evenodd;clip-rule:evenodd;fill:#02DBFF;}
	.st141{clip-path:url(#SVGID_16_);fill-rule:evenodd;clip-rule:evenodd;fill:#01DCFF;}
	.st142{clip-path:url(#SVGID_16_);fill-rule:evenodd;clip-rule:evenodd;fill:#01DDFF;}
	.st143{clip-path:url(#SVGID_16_);fill-rule:evenodd;clip-rule:evenodd;fill:#01DEFF;}
	.st144{clip-path:url(#SVGID_16_);fill-rule:evenodd;clip-rule:evenodd;fill:#00DFFF;}
	.st145{clip-path:url(#SVGID_16_);fill-rule:evenodd;clip-rule:evenodd;fill:#00E0FF;}
	.st146{opacity:0.3;fill-rule:evenodd;clip-rule:evenodd;fill:#792A7C;}
	.st147{fill-rule:evenodd;clip-rule:evenodd;fill:#FFD13E;}
	.st148{fill:#F7FBFE;}
	.st149{fill-rule:evenodd;clip-rule:evenodd;fill:url(#SVGID_17_);}
	.st150{opacity:0.2;fill:#6D1748;}
	.st151{opacity:0.2;fill-rule:evenodd;clip-rule:evenodd;fill:#6D1748;}
	.st152{fill-rule:evenodd;clip-rule:evenodd;fill:url(#SVGID_18_);}
	.st153{fill-rule:evenodd;clip-rule:evenodd;fill:url(#SVGID_19_);}
	.st154{fill-rule:evenodd;clip-rule:evenodd;fill:url(#SVGID_20_);}
	.st155{fill-rule:evenodd;clip-rule:evenodd;fill:url(#SVGID_21_);}
	.st156{fill-rule:evenodd;clip-rule:evenodd;fill:url(#SVGID_22_);}
</style>
<g>
	<g class="st0">
		<linearGradient id="SVGID_1_" gradientUnits="userSpaceOnUse" x1="192.3403" y1="267.1328" x2="192.3403" y2="419.3348">
			<stop  offset="0" style="stop-color:#D7DDEF"/>
			<stop  offset="1" style="stop-color:#FEFEFE"/>
		</linearGradient>
		<path class="st1" d="M194.47,287.07c3.93-0.37,6.67-0.95,8.88-1.65c2.21-0.69,3.68-1.63,4.76-2.84c1.07-1.2,1.74-2.67,2.32-4.37
			c0.61-1.67,1.25-3.48,2.05-5.51c0.81-2.02,2.19-3.96,3.9-5.53c1.8-1.47,4-2.5,6.22-2.94c4.5-0.87,9.11,0.92,12.58,6.78
			c3.49,5.88,1.59,10.81-1.58,14.92c-1.47,2.2-3.32,4.19-5.08,5.95c-0.92,0.84-1.65,1.79-2.36,2.6c-0.7,0.82-1.32,1.57-1.8,2.22
			c-1.91,2.64-0.01,5.52,2.26,9.31c1.11,1.87,2.27,3.93,3.04,6.21c0.79,2.3,1.08,4.7,0.91,7.66c-0.12,1.45-0.44,2.69-0.93,3.77
			c-0.25,0.54-0.54,1.04-0.86,1.51c-0.3,0.49-0.61,0.96-0.97,1.4c-1.43,1.75-3.43,3.04-5.68,4.16c-2.16,1.17-4.46,2.23-6.71,3.26
			c-2.23,1.05-4.41,2.08-5.87,3.39c-2.99,2.58-4.27,6.09-3.38,10.01c0.39,1.94,1.19,3.93,2.35,5.89c1.21,1.98,2.88,3.96,4.81,5.82
			c1.94,1.87,3.11,3.52,3.71,5.06c0.68,1.56,0.75,2.99,0.37,4.35c-0.37,1.37-1.25,2.66-2.31,3.95c-1.04,1.29-2.37,2.57-3.84,3.84
			c-1.46,1.27-2.73,2.47-3.67,3.66c-0.9,1.2-1.52,2.4-1.81,3.68c-0.3,1.28-0.26,2.65,0.15,4.17c0.47,1.52,1.38,3.2,2.7,5.08
			c0.67,0.94,1.04,1.94,1.15,2.97c0.14,1.03,0.08,2.08-0.24,3.16c-0.59,2.15-2.21,4.43-4.23,6.57c-4.08,4.25-10.67,8.37-17.84,9.54
			c-7.16,1.15-15.67-0.57-23.3-5.63c-3.75-2.52-7.12-5.85-10-9.91c-1.38-2.03-2.54-4.23-3.56-6.6c-1-2.36-1.87-4.88-2.31-7.52
			c-0.63-3.56-0.84-6.9-0.48-10.01c0.39-3.11,1.16-5.99,2.18-8.67c1-2.68,2.5-5.15,3.97-7.47c1.54-2.32,3.06-4.49,4.86-6.55
			c3.54-4.13,6.81-7.92,9.71-11.93c1.39-2.02,2.56-4.11,3.39-6.39c0.94-2.26,1.61-4.7,1.84-7.46c0.12-1.38,0.2-2.73,0.25-4.04
			c0.11-1.3,0.22-2.56,0.29-3.8c0.15-2.47,0.22-4.82,0.28-7.06c0.19-4.46,0.66-8.38,1.54-11.88c0.24-0.87,0.47-1.72,0.83-2.51
			c0.36-0.79,0.77-1.54,1.23-2.26c0.92-1.44,2.06-2.75,3.48-3.89c1.44-1.13,3.08-2.16,5.23-2.9
			C189.04,287.89,191.55,287.35,194.47,287.07z"/>
		<path class="st2" d="M181.4,415.38l1.04,0.04c0.67-10,1.65-20.36,2.99-30.86c0.37-1.91,0.84-3.77,1.39-5.57
			c0.62-1.8,1.38-3.53,2.17-5.19c0.81-1.66,1.64-3.25,2.61-4.75c1.01-1.49,2.06-2.91,3.14-4.23c1.08-1.32,2.19-2.56,3.31-3.7
			c1.18-1.13,2.41-2.16,3.61-3.1c2.41-1.87,4.77-3.37,7.03-4.48c-0.16-0.28-0.32-0.55-0.47-0.82c-2.02,0.91-3.93,2.16-6,3.64
			c-2.01,1.49-4.17,3.23-6.08,5.28c-1.89,2.05-3.73,4.37-5.44,6.92c-1.65,2.56-3,5.37-4.22,8.37c2.2-14.41,5.28-28.92,9.53-42.68
			c0.39-1.06,0.84-2.08,1.33-3.05c0.56-0.95,1.17-1.86,1.81-2.72c1.29-1.73,2.73-3.28,4.25-4.65c3.19-2.67,6.87-4.54,10.29-5.85
			c3.57-1.23,7.09-1.79,9.98-2.07c2.91-0.27,5.25-0.23,6.81-0.08c-0.03-0.29-0.07-0.58-0.12-0.87c-2.85-0.31-8.28-0.29-14.72,1.41
			c-0.8,0.21-1.62,0.45-2.44,0.72c-0.78,0.3-1.57,0.62-2.36,0.98c-1.58,0.72-3.17,1.56-4.74,2.54c-3.23,1.91-5.9,4.61-8.21,7.82
			c4.21-12.52,9.45-24.24,15.23-34.74c5.87-10.44,12.34-19.48,17.99-27.45c-0.28-0.22-0.57-0.42-0.85-0.6
			c-1.12,1.64-2.28,3.29-3.48,4.95c-0.6,0.82-1.21,1.65-1.83,2.49c-0.62,0.83-1.26,1.65-1.81,2.58c-1.15,1.8-2.33,3.61-3.55,5.42
			c-0.61,0.9-1.23,1.81-1.85,2.72c-0.56,0.96-1.12,1.93-1.69,2.91c-1.14,1.95-2.3,3.89-3.5,5.84c-1.13,2-2.14,4.11-3.26,6.17
			c-0.55,1.03-1.11,2.06-1.67,3.1c-0.57,1.03-1,2.16-1.51,3.23c-0.99,2.17-2.01,4.34-3.05,6.52c0.45-2.41,0.62-4.83,0.6-7.22
			c-0.02-2.39-0.26-4.76-0.4-6.92c-0.4-4.38-1.25-8.42-2.02-11.46c-0.34,0.08-0.69,0.16-1.06,0.24c0.94,3.59,1.92,8.59,2.24,14.01
			c0.52,5.58,0.07,11.37-1.78,17.38c-0.48,1.15-0.95,2.3-1.43,3.45c-0.41,1.18-0.82,2.37-1.23,3.56c-0.79,2.39-1.76,4.72-2.48,7.14
			c-0.72,2.43-1.45,4.85-2.22,7.27c-0.75,2.42-1.28,4.92-1.96,7.36c-2.46,9.85-4.58,19.81-5.93,29.61
			c-0.39-3.34-1.48-7.06-2.64-11.21c-0.63-2.08-1.38-4.28-2.25-6.62c-0.76-2.32-1.62-4.77-2.6-7.38c-0.62-1.68-1.31-3.34-1.86-4.9
			c-0.56-1.56-1.1-3.06-1.6-4.45c-1.02-2.78-1.94-5.17-2.6-6.86c-0.18,0.49-0.38,0.98-0.59,1.45c0.88,2.28,2.07,5.45,3.35,9.07
			c1.33,3.62,2.99,7.72,4.35,11.86c1.52,4.17,2.96,8.41,3.97,12.47c0.58,2.04,1.03,4.03,1.32,5.96c0.14,0.96,0.24,1.91,0.3,2.84
			c0.07,0.93,0.15,1.85,0.15,2.74c-0.37,3.36-0.97,6.68-1.21,9.97c-0.96-9.7-4.39-19.65-7.45-28.62c-0.78-2.23-1.7-4.42-2.41-6.47
			c-0.73-2.05-1.46-4-2.16-5.8c-0.7-1.8-1.37-3.45-1.97-4.91c-0.55-1.44-1.03-2.69-1.41-3.7c-0.25,0.34-0.51,0.69-0.76,1.04
			c0.7,1.9,1.85,4.58,3.09,7.71c1.25,3.14,2.49,6.73,4.01,10.59c1.02,2.66,1.92,5.56,2.96,8.61c1.06,3.06,1.98,6.25,2.78,9.5
			c0.92,3.26,1.57,6.58,2,9.91c0.56,3.33,0.66,6.69,0.53,10.04c-0.2,2.84-0.47,5.65-0.71,8.41
			C181.81,410.02,181.63,412.73,181.4,415.38z"/>
	</g>
	<g class="st0">
		<g class="st3">
			<linearGradient id="SVGID_2_" gradientUnits="userSpaceOnUse" x1="349.9668" y1="267.1329" x2="349.9668" y2="419.335">
				<stop  offset="0" style="stop-color:#D7DDEF"/>
				<stop  offset="1" style="stop-color:#FEFEFE"/>
			</linearGradient>
			<path class="st4" d="M381.35,388.29c-6.74,9.07-15.43,16.11-24.29,21.09c-4.55,2.39-8.93,4.48-13.41,5.91
				c-2.21,0.74-4.35,1.42-6.45,1.98c-2.14,0.51-4.22,0.94-6.21,1.31c-3.94,0.78-7.7,1.07-10.99,1.23c-1.65,0.08-3.18,0.12-4.6,0.13
				c-1.45-0.04-2.77-0.11-3.97-0.19c-4.78-0.32-7.48-0.84-7.48-0.84s0.85-2.75,2.43-7.07c0.4-1.07,0.84-2.24,1.31-3.51
				c0.45-1.29,0.94-2.66,1.46-4.12c1.04-2.89,2.27-5.97,3.47-9.38c1.26-3.29,2.61-6.8,4.01-10.43c1.49-3.5,2.87-7.28,4.58-10.81
				c3.21-7.3,6.93-14.38,11.79-20.89c4.78-6.58,10.43-12.23,16.45-17.46c2.86-2.68,6.06-5.12,8.96-7.58c3.06-2.41,6-4.74,8.77-6.92
				c2.9-2.16,5.48-4.25,7.92-6.1c1.24-0.93,2.41-1.8,3.5-2.62c1.07-0.83,2.06-1.6,2.96-2.3c3.65-2.79,6.02-4.42,6.02-4.42
				s1.3,2.43,3.02,6.89c0.43,1.12,0.89,2.36,1.36,3.74c0.42,1.36,0.83,2.83,1.25,4.43c0.82,3.19,1.66,6.87,2.09,10.86
				c0.24,2.01,0.45,4.11,0.6,6.31c0.1,2.17,0.08,4.42,0.03,6.75c-0.04,4.69-0.73,9.51-1.66,14.56
				C392.15,368.77,388.01,379.16,381.35,388.29z"/>
			<g>
				<path class="st5" d="M392.9,364.21l0.46-1.63c-2.33,0.65-5.34,1.55-8.73,2.71c-3.46,1.12-7.37,2.45-11.35,4.08
					c-2,0.81-4.13,1.62-6.2,2.54c-2.1,0.9-4.1,1.95-6.24,2.97c-2.11,1.03-4.19,2.16-6.21,3.41c-1.99,1.26-4.11,2.48-6.03,3.93
					c1.46-1.76,3.03-3.43,4.41-5.25l4.2-5.42c1.37-1.83,2.64-3.73,3.96-5.6c0.65-0.94,1.33-1.86,1.95-2.82l1.83-2.9
					c0.99-1.59,2.1-3.05,3.26-4.44c1.1-1.42,2.29-2.75,3.55-4c2.58-2.47,5.18-4.75,7.96-6.75c2.83-1.98,5.56-3.82,8.28-5.43
					c2.72-1.61,5.42-2.98,7.71-4.21c-0.05-0.51-0.09-1.02-0.14-1.52c-3.64,1.94-8.19,4.3-12.56,7.25c-2.15,1.49-4.51,3.02-6.64,4.76
					c-1.08,0.86-2.12,1.78-3.15,2.73c-1.07,0.92-2.11,1.9-3.1,2.92c8.05-14.17,13.97-29.51,17.91-45.31
					c-0.29-0.59-0.46-0.92-0.46-0.92h0c0,0-0.31,0.21-0.86,0.6c-3.91,15.68-9.78,30.9-17.77,44.97c0.35-1.37,0.63-2.73,0.84-4.09
					c0.17-1.37,0.24-2.75,0.27-4.09c0.02-2.71-0.07-5.26-0.56-7.76c-0.91-4.98-2.4-9.29-4.16-12.76c-0.34,0.27-0.68,0.54-1.02,0.81
					c1.09,2.19,2.02,4.69,2.81,7.5c0.79,2.81,1.44,5.92,1.55,9.13c0.16,3.23,0.04,6.67-0.8,10.01c-0.39,1.69-0.9,3.38-1.54,5.05
					c-0.7,1.64-1.55,3.25-2.54,4.82l-1.81,2.88c-0.62,0.95-1.29,1.87-1.94,2.8c-1.31,1.85-2.57,3.74-3.93,5.56l-4.17,5.38
					c-1.37,1.81-2.92,3.47-4.37,5.22c1.08-2.16,2.07-4.27,2.73-6.52c0.68-2.23,1.19-4.45,1.57-6.63c0.4-2.16,0.48-4.41,0.55-6.52
					c0.03-2.13,0.01-4.15-0.21-6.15c-0.45-4-1.21-7.59-2.12-10.67c-0.98-3.13-2.03-5.7-2.91-7.63l-0.95,0.88
					c1.01,2.33,2.37,5.6,3.25,9.39c0.93,3.81,1.72,8.35,1.64,13.11c0.06,4.85-0.78,9.9-2.46,14.98c-0.93,2.47-2.08,4.93-3.47,7.33
					c-1.43,2.37-3.21,4.57-5.19,6.69c-1.22,1.36-2.61,2.56-3.9,3.84c-1.33,1.25-2.62,2.55-3.97,3.77l-4.14,3.59l-2.07,1.79
					c-0.7,0.58-1.43,1.13-2.15,1.7c1.9-2.28,3.33-4.92,4.61-7.45c1.3-2.52,2.21-5.21,2.92-7.83c1.51-5.17,1.84-10.44,1.82-14.91
					c-0.12-4.57-0.78-8.55-1.4-11.5c-0.64-2.97-1.4-5.04-1.64-5.76l-0.82,1.31c0.56,1.65,1.31,4.53,1.92,8.43
					c0.28,1.93,0.57,4.16,0.63,6.48c0.06,2.32-0.01,4.83-0.25,7.47c-0.21,2.68-0.78,5.31-1.51,8.07c-0.37,1.37-0.81,2.76-1.3,4.15
					c-0.54,1.34-1.15,2.69-1.83,4.03c-0.68,1.34-1.42,2.67-2.24,3.98c-0.83,1.29-1.79,2.5-2.79,3.71c-1.01,1.2-2.1,2.37-3.25,3.5
					c-1.19,1.08-2.49,2.08-3.84,3.04c-3.38,2.5-7,4.65-10.55,6.89c-0.2,0.64-0.32,1-0.32,1s0.36,0.06,1.01,0.16
					c3.58-2.27,7.22-4.43,10.63-6.95c1.36-0.96,2.77-1.82,4.18-2.63c1.38-0.86,2.78-1.64,4.22-2.35c1.43-0.72,2.91-1.33,4.36-1.95
					c1.43-0.64,2.89-1.22,4.37-1.75c1.47-0.53,2.97-1,4.47-1.43c1.46-0.48,2.92-0.91,4.39-1.31c2.92-0.8,5.93-1.37,8.7-2.01
					c2.81-0.59,5.56-1.07,8.18-1.45c2.61-0.39,4.98-0.78,7.19-1.04c4.38-0.56,7.94-0.79,9.79-0.95l1.43-1.58
					c-0.88,0.03-3.22,0.24-6.68,0.59c-3.48,0.33-7.91,0.92-12.85,1.77c-10.02,1.66-21.86,4.19-32.7,9.33
					c0.72-0.57,1.46-1.12,2.16-1.71l2.08-1.81l4.17-3.62c1.36-1.23,2.67-2.54,4-3.8c1.31-1.29,2.7-2.5,3.93-3.87
					c1.99-2.13,4.19-3.96,6.4-5.69c2.17-1.76,4.47-3.32,6.85-4.73c4.59-2.95,9.59-5.25,14.31-7.37c4.85-2.01,9.43-3.8,13.66-5.2
					C386.48,366.18,390.06,364.98,392.9,364.21z"/>
			</g>
		</g>
		<g class="st3">
			<linearGradient id="SVGID_3_" gradientUnits="userSpaceOnUse" x1="66.2417" y1="267.1329" x2="66.2417" y2="419.3355">
				<stop  offset="0" style="stop-color:#D7DDEF"/>
				<stop  offset="1" style="stop-color:#FEFEFE"/>
			</linearGradient>
			<path class="st6" d="M75.26,380.41c3.77,3.92,6.83,8.31,9.61,12.9c1.45,2.19,2.71,4.6,4.04,6.8c0.65,1.12,1.26,2.27,1.86,3.38
				c0.63,1.07,1.23,2.15,1.81,3.21c1.14,2.17,2.27,4.11,3.27,5.94c0.49,0.92,0.96,1.8,1.4,2.62c0.45,0.79,0.87,1.53,1.25,2.21
				c1.52,2.73,2.4,4.49,2.4,4.49s-1.76,0.64-4.94,1.37c-0.8,0.18-1.69,0.37-2.66,0.55c-0.96,0.15-2,0.28-3.12,0.39
				c-2.24,0.23-4.82,0.42-7.57,0.28c-1.38-0.05-2.83-0.14-4.34-0.27c-1.48-0.17-3-0.43-4.57-0.72c-3.18-0.54-6.36-1.56-9.69-2.77
				c-6.5-2.59-13.07-6.64-18.46-12.27c-5.33-5.69-9.01-12.48-11.23-19.11c-1.02-3.39-1.86-6.62-2.23-9.83
				c-0.21-1.59-0.38-3.12-0.47-4.61c-0.05-1.51-0.06-2.96-0.03-4.35c0.01-2.75,0.35-5.32,0.7-7.54c0.18-1.11,0.36-2.14,0.56-3.09
				c0.23-0.96,0.47-1.84,0.7-2.62c0.9-3.14,1.64-4.86,1.64-4.86s1.71,0.97,4.35,2.64c0.65,0.42,1.37,0.88,2.14,1.37
				c0.8,0.49,1.65,1,2.54,1.55c1.78,1.1,3.64,2.34,5.75,3.59c1.03,0.64,2.07,1.3,3.11,1.99c1.08,0.67,2.19,1.34,3.27,2.05
				c2.11,1.44,4.45,2.83,6.56,4.41C67.34,373.13,71.55,376.43,75.26,380.41z"/>
			<g>
				<path class="st5" d="M65.28,371.76l-0.7-0.52c-0.46,1.36-0.98,3.17-1.42,5.35c-0.38,2.14-0.62,4.61-0.62,7.35
					c0.13,5.34,1.47,11.68,5.28,17.02c-4.65-4.07-8.9-8.6-12.8-13.4c-0.79-0.99-1.5-2.01-2.1-3.06c-0.56-1.09-1.03-2.19-1.42-3.3
					c-0.82-2.19-1.15-4.51-1.28-6.7c-0.16-2.17,0.07-4.33,0.42-6.27c0.34-1.95,0.8-3.69,1.41-5.25l-0.74-0.48
					c-1.89,4.81-3.2,12.37-0.44,19.63c-6.48-8.91-11.49-18.85-15.05-29.26c-0.4-0.23-0.62-0.36-0.62-0.36l0,0
					c0,0-0.09,0.23-0.26,0.65c3.59,10.5,8.65,20.52,15.18,29.51c-5.95-4.89-13.23-8.04-18.54-10.21l0.01,1.04
					c1.64,0.69,3.57,1.45,5.53,2.35c1.96,0.91,3.94,1.97,6.01,3.11c2.03,1.16,3.96,2.52,5.9,4c0.95,0.75,1.86,1.56,2.71,2.44
					c0.9,0.85,1.76,1.75,2.56,2.75c3.93,4.84,8.21,9.4,12.9,13.5c-5.83-3.07-12-5.15-17.8-6.64c-2.83-0.8-5.59-1.4-8.03-1.9
					c-2.39-0.54-4.51-0.94-6.14-1.21l0.45,1.08c3.93,0.69,10.39,1.96,17.23,3.95c6.83,2.07,13.94,4.82,20.2,9.66
					c1.97,1.54,4.04,2.97,6.08,4.43c2.13,1.32,4.17,2.79,6.38,3.98c-7.82-2.38-16.05-2.99-23-3.24c-3.43-0.14-6.49-0.17-8.88-0.1
					c-2.38,0.06-3.99,0.1-4.59,0.15l1.11,0.96c1.27-0.04,3.71-0.19,6.74-0.18c1.52-0.01,3.16,0.05,4.97,0.09
					c1.81,0.03,3.72,0.11,5.68,0.26c7.95,0.55,16.66,1.71,24.77,5.7c2.56,1.34,5.24,2.4,7.9,3.54c0.42-0.14,0.66-0.22,0.66-0.22
					s-0.12-0.23-0.32-0.64c-2.63-1.13-5.29-2.18-7.83-3.51c-1.01-0.5-1.98-1.04-2.9-1.64c-0.89-0.64-1.74-1.32-2.54-2.03
					c-0.8-0.71-1.56-1.43-2.25-2.22c-0.68-0.8-1.31-1.63-1.89-2.46c-0.58-0.84-1.12-1.68-1.62-2.53c-0.47-0.89-0.89-1.78-1.27-2.67
					c-0.75-1.79-1.38-3.5-1.75-5.29c-0.4-1.76-0.66-3.44-0.83-5c-0.16-1.57-0.15-3.09-0.12-4.42c0.08-2.67,0.35-4.67,0.6-5.82
					l-0.65-0.81c-0.1,0.5-0.45,1.96-0.64,4.01c-0.18,2.03-0.29,4.76,0.03,7.85c0.65,6.07,3.17,13.76,9.11,19.42
					c-2.19-1.18-4.21-2.64-6.33-3.95c-2.02-1.44-4.07-2.86-6.03-4.39c-1.53-1.25-2.93-2.57-4.11-4.04c-1.15-1.5-2.14-3.06-2.99-4.64
					c-1.57-3.29-2.56-6.61-2.9-9.89c-0.44-3.2-0.25-6.32,0.09-8.96C64.07,375.71,64.76,373.4,65.28,371.76z"/>
			</g>
		</g>
		<g class="st3">
			<linearGradient id="SVGID_4_" gradientUnits="userSpaceOnUse" x1="90.0988" y1="267.1327" x2="90.0988" y2="419.3354">
				<stop  offset="0" style="stop-color:#D7DDEF"/>
				<stop  offset="1" style="stop-color:#FEFEFE"/>
			</linearGradient>
			<path class="st7" d="M113.02,346.77c3.02,7.93,4.11,16.24,3.93,23.95c-0.17,3.88-0.5,7.57-1.2,11.07
				c-0.33,1.75-0.69,3.43-1.1,5.05c-0.44,1.63-0.91,3.18-1.39,4.66c-0.93,2.95-2.06,5.63-3.11,7.95c-1.04,2.32-2.09,4.31-3.04,5.93
				c-1.87,3.23-3.16,4.98-3.16,4.98s-1.65-1.52-4.15-4.15c-1.25-1.33-2.74-2.92-4.4-4.68c-1.65-1.79-3.4-3.8-5.32-5.94
				c-0.94-1.08-1.89-2.2-2.83-3.35c-0.97-1.15-1.97-2.33-2.94-3.55c-1.89-2.45-3.93-4.98-5.72-7.65
				c-3.76-5.32-7.12-11.05-9.51-17.36c-2.45-6.29-3.79-12.79-4.57-19.26c-0.46-3.19-0.64-6.44-0.88-9.52c-0.1-1.55-0.15-3.1-0.2-4.6
				c-0.07-1.49-0.12-2.96-0.14-4.39c-0.02-2.88-0.07-5.54-0.04-7.98c0.05-2.42,0.09-4.6,0.13-6.42c0.1-3.63,0.3-5.86,0.3-5.86
				s2.13,0.44,5.68,1.58c1.79,0.56,3.91,1.33,6.23,2.36c2.34,1.02,4.97,2.25,7.64,3.82c1.35,0.78,2.74,1.62,4.15,2.53
				c1.39,0.93,2.78,1.94,4.19,3.01c2.87,2.13,5.59,4.65,8.31,7.41C105.18,331.96,109.94,338.86,113.02,346.77z"/>
			<g>
				<path class="st5" d="M102.66,329.52l-0.82-0.98c-0.65,1.74-1.44,4.03-2.22,6.69c-0.83,2.68-1.69,5.74-2.38,9
					c-1.5,6.59-2.48,14-1.93,21.56c-2.17-6.83-4.76-13.52-7.65-20.08c-0.6-1.34-1.07-2.7-1.46-4.06c-0.42-1.35-0.75-2.71-0.99-4.07
					c-0.45-2.75-0.7-5.45-0.7-8.11c0.03-2.68,0.16-5.25,0.43-7.68c0.27-2.43,0.68-4.73,1.04-6.72l-0.99-0.61
					c-1.19,6.36-2.39,15.34-0.68,24.05c-5.55-11.5-12.28-22.41-19.86-32.67c-0.5-0.12-0.79-0.18-0.79-0.18l0,0
					c0,0-0.02,0.29-0.06,0.82c7.54,10.21,14.24,21.07,19.75,32.51c-5.84-6.76-14.1-9.96-20.04-11.19l0.04,1.05
					c1.9,0.4,3.94,1.02,6.1,1.86c2.16,0.84,4.43,1.91,6.55,3.32c2.14,1.39,4.27,3.06,6.07,5.09c0.91,1.01,1.78,2.1,2.58,3.26
					c0.76,1.18,1.44,2.44,2.03,3.77c2.88,6.52,5.46,13.18,7.61,19.97c-3.88-6.48-9.74-11.09-15.24-14.11
					c-2.82-1.49-5.52-2.63-7.95-3.46c-2.47-0.81-4.63-1.34-6.29-1.69l0.17,1.05c4.02,0.85,10.63,2.81,16.98,7.06
					c6.36,4.19,12.47,10.76,14.88,19.57c0.77,2.76,1.44,5.55,2.13,8.33c0.58,2.81,1.28,5.59,1.75,8.42
					c-3.84-8.62-10.91-14.7-17.12-18.36c-6.3-3.67-11.69-5.1-12.91-5.39l0.55,1.16c1.33,0.36,3.61,1.11,6.49,2.37
					c2.91,1.26,6.25,3.09,9.63,5.59c6.69,4.96,13.31,12.94,14.79,23.31c0.52,3.26,0.82,6.55,1.19,9.83
					c0.38,0.36,0.59,0.56,0.59,0.56s0.17-0.24,0.46-0.66c-0.37-3.3-0.67-6.6-1.2-9.88c-1.48-10.3,0.88-20.17,3.85-28.65
					c1.46-4.21,3.15-8.04,4.56-11.11c1.44-3.09,2.76-5.47,3.44-6.74l-0.43-1.54c-0.64,1.13-3.66,6.49-6.55,13.68
					c-2.94,7.25-5.89,16.23-6.33,25.63c-0.48-2.84-1.18-5.64-1.76-8.46c-0.69-2.8-1.37-5.6-2.14-8.38
					c-2.41-8.79-1.86-17.57-0.47-25.53C98.84,340.78,101.14,333.73,102.66,329.52z"/>
			</g>
		</g>
		<g class="st3">
			<linearGradient id="SVGID_5_" gradientUnits="userSpaceOnUse" x1="326.4263" y1="267.1327" x2="326.4263" y2="419.3354">
				<stop  offset="0" style="stop-color:#D7DDEF"/>
				<stop  offset="1" style="stop-color:#FEFEFE"/>
			</linearGradient>
			<path class="st8" d="M338.42,335.48c-1.66,3.81-3.86,7.26-6.29,10.55c-1.13,1.66-2.46,3.24-3.63,4.8
				c-1.21,1.5-2.43,3.01-3.61,4.46c-1.15,1.39-2.25,2.73-3.27,3.97c-1.03,1.21-1.93,2.3-2.67,3.21c-1.5,1.83-2.5,2.92-2.5,2.92
				s-0.93-1.07-2.32-3.1c-0.71-1.02-1.5-2.29-2.26-3.8c-0.78-1.51-1.63-3.26-2.3-5.22c-0.35-0.98-0.7-2.02-1.02-3.11
				c-0.3-1.08-0.55-2.21-0.78-3.39c-0.52-2.37-0.71-4.87-0.81-7.53c-0.05-5.25,0.88-10.97,3.23-16.32c2.4-5.33,6.02-9.85,9.96-13.33
				c2.04-1.7,4.03-3.24,6.13-4.44c1.04-0.61,2.04-1.19,3.05-1.69c1.03-0.49,2.03-0.93,2.99-1.32c1.9-0.81,3.78-1.36,5.42-1.79
				c1.63-0.44,3.09-0.71,4.33-0.87c2.44-0.34,3.86-0.35,3.86-0.35s-0.14,1.48-0.49,3.82c-0.19,1.16-0.39,2.55-0.6,4.13
				c-0.24,1.58-0.49,3.3-0.76,5.08c-0.29,1.85-0.6,3.76-0.9,5.67c-0.37,1.91-0.66,3.96-1.13,5.91
				C341.22,327.75,340.14,331.69,338.42,335.48z"/>
			<g>
				<path class="st5" d="M341.57,325.9l0.15-0.65c-1.08,0.09-2.51,0.27-4.15,0.61c-1.61,0.37-3.41,0.94-5.31,1.75
					c-3.69,1.66-7.72,4.45-10.36,8.65c1.51-4.42,3.43-8.7,5.63-12.83c0.46-0.84,0.96-1.63,1.52-2.36c0.59-0.71,1.22-1.37,1.88-1.97
					c1.28-1.22,2.8-2.14,4.29-2.88c1.47-0.76,3.03-1.25,4.49-1.6c1.46-0.35,2.81-0.56,4.07-0.61l0.11-0.66
					c-3.91,0.16-9.55,1.52-13.79,5.59c4.29-7.14,9.66-13.61,15.76-19.27c0.04-0.34,0.06-0.54,0.06-0.54l0,0c0,0-0.19,0.01-0.53,0.02
					c-6.15,5.71-11.56,12.22-15.88,19.42c1.65-5.59,1.64-11.58,1.53-15.9l-0.72,0.32c0.02,1.34,0.08,2.9,0.04,4.53
					c-0.04,1.63-0.18,3.32-0.36,5.09c-0.2,1.76-0.57,3.5-1.02,5.28c-0.24,0.88-0.54,1.75-0.9,2.61c-0.33,0.87-0.7,1.74-1.16,2.59
					c-2.22,4.15-4.15,8.47-5.68,12.92c0.47-4.96,0.12-9.86-0.54-14.33c-0.28-2.2-0.67-4.29-1.04-6.13c-0.33-1.82-0.69-3.4-0.98-4.61
					l-0.62,0.62c0.69,2.93,1.72,7.78,2.33,13.11c0.56,5.35,0.69,11.11-0.91,16.88c-0.52,1.82-0.94,3.67-1.38,5.51
					c-0.33,1.87-0.78,3.71-1,5.59c-0.52-6.15-2.43-12.09-4.26-17c-1.76-4.86-3.57-8.58-3.94-9.36l-0.34,1.05
					c0.4,0.87,1.21,2.53,2.07,4.63c0.84,2.1,1.89,4.7,2.82,7.52c1.89,5.7,3.54,12.14,2.98,18.95c-0.23,2.17-0.24,4.35-0.32,6.53
					c0.21,0.26,0.34,0.41,0.34,0.41s0.13-0.15,0.36-0.4c0.07-2.16,0.08-4.33,0.32-6.48c0.56-6.86,4.86-12.21,9.24-15.32
					c2.22-1.58,4.4-2.68,6.32-3.39c1.89-0.72,3.37-1.12,4.25-1.29l0.38-0.7c-0.81,0.13-4.32,0.8-8.48,3.03
					c-4.07,2.21-8.73,6.17-11.05,11.93c0.22-1.87,0.67-3.7,1-5.55c0.44-1.83,0.85-3.66,1.37-5.47c1.6-5.79,5.81-9.96,10.11-12.37
					C334.55,326.92,338.94,326.12,341.57,325.9z"/>
			</g>
		</g>
	</g>
	<g>
		<g>
			<path class="st9" d="M297.85,265.62c0.43,0.25,0.87,0.5,1.3,0.74"/>
			<path class="st10" d="M301.79,267.79c11.12,5.86,23.29,10,35.85,10.4c14.06,0.44,28.67-4.25,38.23-14.44
				c9.56-10.19,13.04-26.19,6.67-38.56c-9.39-18.23-34.38-22.47-47.96-37.9c-12.31-13.99-12.41-36.93-0.21-51.02
				c7.51-8.67,18.42-13.67,27.19-21.1c8.78-7.42,15.61-19.6,10.87-30.01c-2.91-6.39-9.32-10.25-15.79-13.43"/>
			<path class="st9" d="M355.28,71.07c-0.45-0.22-0.9-0.43-1.35-0.64"/>
		</g>
	</g>
	<g>
		<path class="st11" d="M231.33,7.02c-20.95,0-37.94,15.4-37.94,34.4c0,6.69,2.11,12.93,5.76,18.21c0.88,1.27,1.16,2.86,0.76,4.35
			l-3.24,12.1l14.8-3.96c1.13-0.3,2.31-0.17,3.38,0.29c4.98,2.18,10.57,3.41,16.48,3.41c20.95,0,37.94-15.4,37.94-34.4
			S252.29,7.02,231.33,7.02z"/>
		<g>
			<circle class="st5" cx="231.33" cy="41.41" r="4.33"/>
			<path class="st5" d="M250.11,41.41c0,2.39-1.94,4.33-4.33,4.33c-2.39,0-4.33-1.94-4.33-4.33c0-2.39,1.94-4.33,4.33-4.33
				C248.18,37.08,250.11,39.02,250.11,41.41z"/>
			<circle class="st5" cx="216.88" cy="41.41" r="4.33"/>
		</g>
	</g>
	<g>
		
			<ellipse transform="matrix(0.1619 -0.9868 0.9868 0.1619 -1.8442 159.175)" class="st12" cx="92.79" cy="80.67" rx="70.96" ry="70.96"/>
		<path class="st13" d="M92.79,151.63c-39.19,0-70.96-31.77-70.96-70.96S53.6,9.71,92.79,9.71"/>
		<g>
			<polygon class="st14" points="114.21,114.67 62.5,114.67 65.22,53.96 111.48,53.96 			"/>
			<g>
				<g>
					<path class="st14" d="M100.89,60.11c-0.85,0-1.54-0.69-1.54-1.54c0-7.7-4.93-13.96-11-13.96c-6.06,0-11,6.26-11,13.96
						c0,0.85-0.69,1.54-1.54,1.54c-0.85,0-1.54-0.69-1.54-1.54c0-9.39,6.31-17.03,14.07-17.03c7.76,0,14.07,7.64,14.07,17.03
						C102.42,59.43,101.74,60.11,100.89,60.11z"/>
				</g>
			</g>
			<polygon class="st5" points="123.08,114.67 71.37,114.67 74.1,53.96 120.36,53.96 			"/>
			<text transform="matrix(1 0 0 1 88.594 97.8311)" class="st11 st15 st16">$</text>
			<g>
				<path class="st17" d="M86.98,58.58c0,1.26-1.02,2.29-2.29,2.29c-1.26,0-2.29-1.02-2.29-2.29c0-1.26,1.02-2.29,2.29-2.29
					C85.96,56.29,86.98,57.31,86.98,58.58z"/>
				<path class="st17" d="M112.05,58.58c0,1.26-1.02,2.29-2.29,2.29s-2.29-1.02-2.29-2.29c0-1.26,1.02-2.29,2.29-2.29
					S112.05,57.31,112.05,58.58z"/>
				<g>
					<path class="st5" d="M109.76,60.11c-0.85,0-1.54-0.69-1.54-1.54c0-7.7-4.93-13.96-11-13.96c-6.06,0-11,6.26-11,13.96
						c0,0.85-0.69,1.54-1.54,1.54c-0.85,0-1.54-0.69-1.54-1.54c0-9.39,6.31-17.03,14.07-17.03c7.76,0,14.07,7.64,14.07,17.03
						C111.3,59.43,110.61,60.11,109.76,60.11z"/>
				</g>
			</g>
		</g>
	</g>
	<g class="st0">
		<linearGradient id="SVGID_6_" gradientUnits="userSpaceOnUse" x1="221.9884" y1="98.1419" x2="178.4431" y2="470.7896">
			<stop  offset="0" style="stop-color:#1D3289"/>
			<stop  offset="1" style="stop-color:#33354E"/>
		</linearGradient>
		<path class="st18" d="M203.26,418.21h-29.78v-64.54c0-2.7,2.19-4.89,4.89-4.89h19.99c2.7,0,4.89,2.19,4.89,4.89V418.21z"/>
		<linearGradient id="SVGID_7_" gradientUnits="userSpaceOnUse" x1="260.1371" y1="103.1065" x2="216.6572" y2="475.1947">
			<stop  offset="0" style="stop-color:#1D3289"/>
			<stop  offset="1" style="stop-color:#33354E"/>
		</linearGradient>
		<path class="st19" d="M243.65,418.21h-29.78v-92.86c0-2.7,2.19-4.89,4.89-4.89h19.99c2.7,0,4.89,2.19,4.89,4.89V418.21z"/>
		<linearGradient id="SVGID_8_" gradientUnits="userSpaceOnUse" x1="338.9081" y1="112.5056" x2="295.4503" y2="484.4048">
			<stop  offset="0" style="stop-color:#1D3289"/>
			<stop  offset="1" style="stop-color:#33354E"/>
		</linearGradient>
		<path class="st20" d="M324.41,418.21h-29.78V309.97c0-2.7,2.19-4.89,4.89-4.89h19.99c2.7,0,4.89,2.19,4.89,4.89V418.21z"/>
		<path class="st21" d="M284.03,418.21h-29.78V287.97c0-2.7,2.19-4.89,4.89-4.89h19.99c2.7,0,4.89,2.19,4.89,4.89V418.21z"/>
	</g>
	<g>
		<g>
			<path class="st9" d="M128.36,301.19c-0.5-0.05-1-0.1-1.49-0.15"/>
			<path class="st22" d="M123.92,300.68c-34.3-4.44-66.93-21.06-90.63-46.27c-7.46-7.94-14.14-16.83-18.06-26.99
				c-3.93-10.16-4.91-21.73-1.12-31.95c1.96-5.27,5.41-10.31,10.57-12.56c5.15-2.25,12.12-0.81,14.78,4.14
				c2.67,4.95-1.37,12.46-6.96,11.84c-4.5-0.49-7.23-5.19-8.52-9.53c-4.9-16.57,1.82-35.82,15.69-46.02"/>
			<path class="st9" d="M40.88,142.49c0.41-0.28,0.84-0.55,1.26-0.82"/>
		</g>
	</g>
	<g class="st0">
		<g class="st3">
			<path class="st23" d="M187.79,138.25l3.84-2.12l-8.83-15.95l-3.84,2.12c-0.52,0.29-0.7,0.93-0.42,1.45l7.8,14.09
				C186.62,138.35,187.27,138.54,187.79,138.25z"/>
			<path class="st24" d="M185.97,317.98c-1.99,30.33-5.4,63.95-10.89,100.24h-36.71l4.55-100.24L185.97,317.98z"/>
			<polygon class="st25" points="155.05,344.94 150.35,418.21 138.38,418.21 142.93,317.98 154.71,317.98 			"/>
			<path class="st24" d="M162.59,317.98l-1.25,13.84c-0.43,4.74-2.13,9.26-4.9,13.13c-5.16,7.2-13.54,19.91-16.14,29.92
				c-3.85,14.82-5.33,43.35-5.33,43.35H97.23c0,0,3.76-47.12,2.22-100.24H162.59z"/>
			<path class="st26" d="M211.69,191.82c0,0-28.92-44.11-55.68-39.91l28.77,64.39c0,0,29.84,15.71,44.16,6.81
				c11.13-6.92,11.7-41.79,11.41-56.97l-21.71-5.12L211.69,191.82z"/>
			<path class="st27" d="M241.81,158.04c1.15-0.69,2.01-1.77,2.44-3.04l3.16-9.48c0.54-1.62,0.02-3.4-1.31-4.47l-12.26-9.91
				c-1.47-1.19-3.66-0.77-4.58,0.88c0,0-3,5.35-3.15,5.63c-0.06-0.03-0.12-0.05-0.18-0.08l-3.3-1.35c-1.57-0.64-3.38-0.23-4.51,1.05
				l-3.92,4.42c-1.25,1.41-1.35,3.5-0.23,5.02l6.04,8.24l-1.37,6.08l21.71,5.12c-0.08-4.35-0.24-7.08-0.24-7.08L241.81,158.04z"/>
			<path class="st26" d="M185.97,317.98H94.63c-2.03-24.35-6.35-50.14-14.64-73.68c-8.59-24.39-11.15-43.31-11.41-56.58
				c-0.26-12.99,9.27-24.12,22.12-26.04l65.31-9.76c14.86-2.22,28.51,8.6,29.72,23.58C188.02,204.08,190.2,253.6,185.97,317.98
				L185.97,317.98z"/>
			<path class="st28" d="M105.01,317.98c-2.03-24.35-6.35-50.14-14.64-73.68c-8.59-24.39-11.15-43.31-11.42-56.58"/>
			<path class="st29" d="M101.34,204.08l-32.05-22.8c-0.49,2.07-0.75,4.22-0.71,6.44c0.27,13.27,2.82,32.19,11.41,56.58
				c2.22,6.31,4.15,12.78,5.83,19.33L101.34,204.08z"/>
			<path class="st26" d="M90.7,161.68c-38.71,5.78-59.48,81.76-59.48,81.76s-7.02,43.6-8.92,63.7l17.74,3.07l16.23-56.02
				c0,0,22-22.82,32.64-32.56C114.39,198.3,106.37,159.33,90.7,161.68z"/>
			<path class="st27" d="M22.3,307.14c-0.3,3.14-0.47,5.71-0.47,7.45v21.98c0,3.05,2.08,5.7,5.04,6.42l10.38,2.53
				c2.86,0.7,5.84-0.58,7.31-3.14l3.39-5.92c1.25-2.2,1.15-4.91-0.28-7l-5.08-7.46l-3.95-6.92l1.41-4.87L22.3,307.14z"/>
			<polygon class="st27" points="113,158.34 130.04,136.32 158.2,128.48 166.33,134.15 145.14,163.25 			"/>
			<polygon class="st30" points="146.67,138.5 155.87,148.52 162.25,139.76 			"/>
			<path class="st27" d="M169.01,135.77c-0.33-3.45-0.97-7.08-2-10.76c3.19-2.34,0.19-6.13-2.32-8.5c-0.9-0.85-1.66-1.84-2.24-2.93
				c-2.15-4.07-4.87-7.99-8.28-11.55c-2.65-2.76-6.49-4.38-10.6-5.17c-11.84-2.25-23.27,5.14-25.54,16.51
				c-2.27,11.37,5.5,22.41,17.33,24.66c3.58,0.68,7.13,0.47,10.39-0.45C154.65,147.14,170,146.29,169.01,135.77z"/>
			<path class="st31" d="M167.63,131.57c-1.21-5.16-8.57-5.21-8.24,0.4C159.66,136.51,168.69,136.06,167.63,131.57z"/>
			<path class="st31" d="M159.65,116.27c0,0.75-0.61,1.35-1.35,1.35c-0.75,0-1.35-0.61-1.35-1.35c0-0.75,0.61-1.35,1.35-1.35
				C159.05,114.92,159.65,115.52,159.65,116.27z"/>
			<path class="st32" d="M156.94,111.65c-1.07,0.42-2.74,1.45-3.4,3.96"/>
			<path class="st32" d="M146.65,132.47c-2.61,1.51-6.2,0.17-8.03-2.99c-1.82-3.16-1.18-6.94,1.43-8.45"/>
			<linearGradient id="SVGID_9_" gradientUnits="userSpaceOnUse" x1="151.9959" y1="55.281" x2="123.7808" y2="151.5215">
				<stop  offset="0" style="stop-color:#1D3289"/>
				<stop  offset="1" style="stop-color:#33354E"/>
			</linearGradient>
			<path class="st33" d="M152.43,102.84c1.37-0.71,2.21-2.17,1.99-3.69c-0.24-1.69-1.26-3.75-4.46-5.07
				c-6.24-2.58-42.96,3.12-31.31,16.95c0,0-3.6,0.77-4.19,5.25c-0.65,4.87,3.85,15.41,13.6,19.36c0.96,0.39,1.31,1.56,0.67,2.38
				l-3.74,4.83l16.38-10.57l0,0c-1.08-0.62-2.05-1.56-2.75-2.78c-1.82-3.16-1.18-6.94,1.43-8.45c0.65-0.38,1.37-0.58,2.1-0.61
				c4.15,0,6.86,5.24,9.17,5.24s2.71-6.65-1.22-8.34C146.36,115.72,142.53,107.99,152.43,102.84z"/>
			<path class="st23" d="M208.38,133.59l4.18,5.74c0.32,0.44,0.93,0.55,1.38,0.25l3.19-2.08c0.11-0.07,0.21-0.17,0.29-0.28
				l7.75-11.4c0.23-0.34,0.24-0.78,0.01-1.13l-0.19-0.29c-0.29-0.45-0.87-0.6-1.34-0.34l-14.93,8.02
				C208.17,132.39,208.01,133.09,208.38,133.59z"/>
			<path class="st23" d="M217.29,137.4l19.25,16.3c0.55,0.47,1.39,0.36,1.81-0.23l5.95-8.34c0.37-0.51,0.29-1.22-0.18-1.64
				l-13.24-11.87c-1.58-1.42-3.56-2.3-5.67-2.52l-2.12-0.22L217.29,137.4z"/>
			<path class="st34" d="M184.64,113.9l40.62-21.84l13.28,24l-40.72,21.89c-2.22,1.19-4.98,0.38-6.2-1.82l-8.83-15.95
				C181.55,117.93,182.38,115.11,184.64,113.9z"/>
			<path class="st23" d="M249.19,52.57c3.77,10.4-14.92,34.51-23.93,39.49l13.28,24c9.02-4.96,39.39-7.89,46.17,0.85L249.19,52.57z"
				/>
			<path class="st29" d="M251.96,50.65l35.81,64.88c0.43,0.77,0.16,1.74-0.6,2.18l-0.1,0.06c-0.79,0.46-1.79,0.18-2.23-0.62
				l-35.81-64.88c-0.43-0.77-0.16-1.74,0.6-2.18l0.1-0.06C250.52,49.57,251.52,49.85,251.96,50.65z"/>
			<path class="st27" d="M246.1,141.05l-12.26-9.91c-1.47-1.19-3.66-0.77-4.58,0.88l-3.16,5.64c-0.06-0.03-0.11-0.07-0.17-0.09
				l-3.3-1.35c-1.57-0.64-3.38-0.23-4.51,1.05l-3.92,4.42c-1.25,1.41-1.35,3.5-0.23,5.02l5.64-1.68l0.89-1.41h4.25
				c0.38,0,0.74-0.07,1.08-0.2l1.55,3.76c0.33,0.81,0.89,1.51,1.59,2.03l2.03,1.49c0.82,0.6,1.81,0.93,2.83,0.93h5.11
				c1.2,0,2.36-0.45,3.25-1.27l5.23-4.84C247.95,143.91,247.43,142.12,246.1,141.05z"/>
		</g>
		<path class="st35" d="M145.75,137.58c5.24,5.64,12.73,7.65,17.8,6.2"/>
		<path class="st35" d="M47.94,336.45c1.25-2.2,1.15-4.91-0.28-7l-5.08-7.46l-3.95-6.92l1.41-4.87l-17.74-3.07"/>
		<path class="st35" d="M94.63,317.98c0,0,91.34,0,91.34,0c4.22-64.37,2.05-113.89-0.25-142.48c-1.2-14.98-14.85-25.8-29.72-23.58"
			/>
		<path class="st35" d="M161.34,331.81c-0.43,4.74-2.13,9.26-4.9,13.13c-5.16,7.2-13.54,19.91-16.14,29.92
			c-3.85,14.82-5.33,43.35-5.33,43.35"/>
		<path class="st35" d="M56.26,254.19c0,0,22-22.82,32.64-32.56c10.53-9.63,15.34-21.94,16.25-32.9"/>
		<path class="st35" d="M220.49,143.62h4.25c0.38,0,0.74-0.07,1.08-0.2l1.55,3.76c0.33,0.81,0.89,1.51,1.59,2.03l2.03,1.49
			c0.82,0.6,1.81,0.93,2.83,0.93h5.11c1.2,0,2.36-0.45,3.25-1.27"/>
		<polyline class="st35" points="240.34,166.15 218.63,161.03 210.19,198.46 		"/>
		<path class="st35" d="M249.19,52.57c3.77,10.4-14.92,34.51-23.93,39.49l13.28,24"/>
		<path class="st36" d="M284.84,117.15l-35.81-64.88c-0.43-0.77-0.16-1.74,0.6-2.18"/>
		<path class="st35" d="M238.54,116.06l-40.72,21.89c-2.22,1.19-4.98,0.38-6.2-1.82l-8.83-15.95"/>
		<path class="st37" d="M102.79,418.21c0,0,3.76-47.12,2.22-100.24"/>
		<polyline class="st37" points="159.02,144.19 145.14,163.25 113,158.34 		"/>
	</g>
	<g class="st0">
		<polygon class="st38" points="278.28,78.4 305.7,50.23 305.44,69.35 		"/>
		<polygon class="st38" points="279.87,83.06 300.21,83.06 304.18,92.06 		"/>
		<polygon class="st38" points="276.52,73.52 280.52,51.48 290,48.26 		"/>
	</g>
	<path class="st39" d="M367.99,426.79H46.65c-2.37,0-4.29-1.92-4.29-4.29l0,0c0-2.37,1.92-4.29,4.29-4.29h321.35
		c2.37,0,4.29,1.92,4.29,4.29l0,0C372.28,424.87,370.36,426.79,367.99,426.79z"/>
	<g>
		<path class="st12" d="M338.74,143.46c-4.76-3.17-10.97-3.17-15.73,0l-36.34,24.18c-1.36,0.9-2.18,2.43-2.18,4.06v56.21h92.77
			v-56.21c0-1.63-0.82-3.16-2.18-4.06L338.74,143.46z"/>
		<path class="st5" d="M377.26,170.99L338.7,201.6c-4.8-3-10.85-3-15.65,0l-38.56-30.61v1.45l37.55,29.81l-37.55,24.98v0.68h1.03
			l37.81-25.15c4.59-3.05,10.51-3.05,15.1,0l37.8,25.15h1.03v-0.68l-37.55-24.98l37.55-29.81V170.99z"/>
		<g>
			<g>
				<path class="st40" d="M323.05,201.6c4.8-3,10.85-3,15.65,0l29-23.02V145l-12.2-12.2h-61.45v45.77L323.05,201.6z"/>
			</g>
			<polyline class="st28" points="355.5,132.8 294.05,132.8 294.05,178.58 			"/>
			<polygon class="st41" points="355.5,145 367.7,145 355.5,132.8 			"/>
		</g>
		<g>
			<rect x="308.27" y="153.27" class="st41" width="44.99" height="3.62"/>
			<rect x="308.27" y="159.89" class="st41" width="44.99" height="3.62"/>
			<rect x="308.27" y="166.52" class="st41" width="44.99" height="3.62"/>
			<rect x="308.27" y="173.14" class="st41" width="44.99" height="3.62"/>
			<rect x="308.27" y="179.77" class="st41" width="44.99" height="3.62"/>
		</g>
	</g>
	<g class="st0">
		<linearGradient id="SVGID_10_" gradientUnits="userSpaceOnUse" x1="338.9824" y1="139.386" x2="186.5895" y2="329.8771">
			<stop  offset="0" style="stop-color:#D7DDEF"/>
			<stop  offset="1" style="stop-color:#225DD9"/>
		</linearGradient>
		<path class="st42" d="M286.94,261.82c-7.12-7.12-17.53-18.68-17.53-34.59c0-1.06-0.06-2.12-0.25-3.21
			c-1.29-7.47-7.37-13.43-14.86-14.59c-6.14-0.96-11.82,1.19-15.71,5.12c-0.76,0.77-1.84,1.11-2.91,0.99l-5.34-0.61
			c-0.4-0.05-0.66,0.41-0.42,0.73l3.32,4.43c0.63,0.84,0.88,1.92,0.63,2.94c-0.33,1.35-0.47,2.76-0.49,4.21
			c-0.28,22.55,17.99,43.41,52.33,38.37C287.55,265.34,288.24,263.13,286.94,261.82z"/>
		<linearGradient id="SVGID_11_" gradientUnits="userSpaceOnUse" x1="290.1137" y1="214.6237" x2="236.7034" y2="282.8923">
			<stop  offset="0" style="stop-color:#D7DDEF"/>
			<stop  offset="0.3171" style="stop-color:#96AFE7"/>
			<stop  offset="0.8462" style="stop-color:#225DD9"/>
		</linearGradient>
		<path class="st43" d="M291.36,208.04l-37,27.95l19.28,18.42c10.01-5.2,14.4-12.33,16.32-17.27c0.62-1.61-0.89-3.03-2.34-2.66
			c2.35-3.52,3.76-6.84,4.59-9.44c0.59-1.85-1.57-3.35-3.12-2.18l-0.49,0.37c3.24-5.05,4.98-9.72,5.89-13.07
			C295,208.32,292.88,206.89,291.36,208.04z"/>
		<line class="st36" x1="254.36" y1="235.99" x2="279.86" y2="216.73"/>
	</g>
	<g>
		<polygon class="st44" points="346.57,67.17 346.57,56.85 288.71,34.66 		"/>
		<polygon class="st17" points="344.72,61.18 346.57,67.17 288.71,34.66 		"/>
		<path class="st12" d="M344.72,61.18l-11.09,25.94l-44.92-52.46L344.72,61.18z M346.57,56.85l8.84-20.65l-66.7-1.54L346.57,56.85z"
			/>
	</g>
	<g class="st0">
		<g class="st3">
			<path class="st45" d="M371.29,300.92c-2.5,2.03-5.59,6.2-9.32,11.57c-3.76,5.36-8.17,11.81-13.79,18.61
				c-3.41,4.19-6.75,8.13-9.92,11.85c-3.12,3.75-6.14,7.23-8.76,10.52c-5.3,6.52-9.32,12.06-11.03,15.91
				c1.71-3.83,3.25-10.49,6.34-18.59c1.51-4.06,3.48-8.43,5.91-12.96c2.47-4.5,5.48-9.12,9.1-13.57
				c5.98-7.26,12.73-12.21,18.45-15.71C364.01,305,368.79,302.94,371.29,300.92z"/>
		</g>
		<g class="st3">
			<path class="st45" d="M50.88,342.79c2.32,2.32,6.92,4.94,12.42,8.96c5.5,3.99,11.97,9.38,17.78,16.86
				c7.08,9.17,11.9,18.7,15.27,26.79c3.41,8.09,5.46,14.74,7.47,18.52c-2.02-3.79-6.45-9.16-12.07-15.68
				c-5.61-6.55-12.42-14.2-19.22-23.02c-5.59-7.19-9.77-14.07-13.22-19.82C55.9,349.65,53.2,345.1,50.88,342.79z"/>
		</g>
		<g class="st3">
			<path class="st45" d="M15.72,379.8c0.31,1.41,2.07,3.35,4.3,5.41c2.22,2.1,4.75,4.27,6.74,7.18c2.48,3.53,4.32,7.27,6.36,10.48
				c1.97,3.2,4.06,5.79,5.76,6.6c-1.68-0.81-4.98-0.93-9.02-2.3c-2.03-0.65-4.16-1.66-6.28-3.05c-2.08-1.42-4.08-3.28-5.7-5.58
				c-2.62-3.82-3.15-8.13-2.94-11.47C15.12,383.69,16.03,381.19,15.72,379.8z"/>
		</g>
		<g class="st3">
			<path class="st45" d="M401.6,389.48c-1.08,0.95-1.85,3.45-3.24,6.37c-1.38,2.92-3.39,6.27-6.74,8.78
				c-4.1,3.07-8.72,4.6-12.65,5.53c-3.94,0.95-7.19,1.31-8.81,2.27c1.62-0.96,3.49-3.65,5.87-6.8c2.39-3.15,5.25-6.76,9.12-9.65
				C391.41,391.29,399.42,391.43,401.6,389.48z"/>
		</g>
	</g>
	<path class="st46" d="M273.64,254.41c10.01-5.2,14.4-12.33,16.32-17.27c0.62-1.61-0.89-3.03-2.34-2.66"/>
</g>
<path class="st47" d="M258.61,389.9h-96.73c-10.04,0-18.19-8.14-18.19-18.19V118.21c0-10.04,8.14-18.19,18.19-18.19h96.73
	c10.04,0,18.19,8.14,18.19,18.19v253.51C276.8,381.76,268.66,389.9,258.61,389.9z"/>
<path class="st5" d="M265.84,376.76H154.66c-2.85,0-5.16-2.31-5.16-5.16V120.04c0-2.85,2.31-5.16,5.16-5.16h111.18
	c2.85,0,5.16,2.31,5.16,5.16v251.56C271,374.45,268.69,376.76,265.84,376.76z"/>
<g>
	
		<linearGradient id="SVGID_12_" gradientUnits="userSpaceOnUse" x1="259.5918" y1="280.976" x2="259.5918" y2="281.4618" gradientTransform="matrix(0.9554 -0.2953 0.2953 0.9554 -97.1366 20.8749)">
		<stop  offset="0" style="stop-color:#F8F0F4"/>
		<stop  offset="0.9829" style="stop-color:#CEC4DE"/>
	</linearGradient>
	<path class="st48" d="M234.15,212.82c0.04,0.13-0.03,0.26-0.16,0.3c-0.13,0.04-0.26-0.03-0.3-0.16c-0.04-0.13,0.03-0.26,0.16-0.3
		S234.11,212.69,234.15,212.82z"/>
	<path class="st49" d="M215.82,221.22c0,0,0.58,3.75,4.9,7.52c0,0,7.4,5.67,21.97,1.17c13.49-4.17,17.87-13.33,17.87-13.33
		s1.02-4.39-0.59-9.01L215.82,221.22z"/>
	
		<ellipse transform="matrix(0.9554 -0.2953 0.2953 0.9554 -52.7005 79.8046)" class="st50" cx="237.89" cy="214.4" rx="23.1" ry="10.31"/>
	
		<radialGradient id="SVGID_13_" cx="275.3627" cy="278.1159" r="9.6678" gradientTransform="matrix(0.9554 -0.2953 0.2953 0.9554 -97.1366 20.8749)" gradientUnits="userSpaceOnUse">
		<stop  offset="0" style="stop-color:#5178FE"/>
		<stop  offset="0.9944" style="stop-color:#713592"/>
	</radialGradient>
	<path class="st51" d="M237.89,214.4l5.27-13.6c0,0,10.69-2.22,17.19,2.13L237.89,214.4z"/>
	
		<linearGradient id="SVGID_14_" gradientUnits="userSpaceOnUse" x1="262.9429" y1="277.9711" x2="271.9923" y2="277.9711" gradientTransform="matrix(0.9554 -0.2953 0.2953 0.9554 -97.1366 20.8749)">
		<stop  offset="0" style="stop-color:#FF6E27"/>
		<stop  offset="0.998" style="stop-color:#E03347"/>
	</linearGradient>
	<polygon class="st52" points="239.71,201.57 243.16,200.81 237.89,214.4 	"/>
	<path class="st53" d="M237.89,214.4l15.53,3.89l1.54,4.99l2.92,0.05c0,0,3.89-4.32,4.51-9.55c0,0,0.54-5.08,0-7.4L237.89,214.4z"/>
	<g>
		<g>
			<defs>
				<path id="SVGID_15_" d="M237.89,214.4l19.91,2.34c0,0,8.67-8.15,2.54-13.81L237.89,214.4z"/>
			</defs>
			<clipPath id="SVGID_16_">
				<use xlink:href="#SVGID_15_"  style="overflow:visible;"/>
			</clipPath>
			<rect x="237.89" y="202.94" class="st54" width="28.58" height="13.81"/>
			<path class="st54" d="M267.02,202.39v5.38v5.16h0.73c-2.31,1.66-4.98,3.22-7.91,4.59v-0.22h-22.5v-3.72h-3.13
				c0.55-1.62,1.63-3.36,3.15-5.11c3.04-3.49,7.85-7.01,13.71-9.75v3.67H267.02z"/>
			<path class="st55" d="M267.02,202.39v5.38v5.1h0.6c-2.29,1.64-4.93,3.19-7.82,4.54v-0.12h-22.45v-3.78h-2.9
				c0.54-1.61,1.61-3.33,3.12-5.05c3.01-3.45,7.77-6.94,13.56-9.64v3.57H267.02z"/>
			<path class="st56" d="M267.02,202.39v5.39v5.05h0.46c-2.26,1.62-4.87,3.15-7.74,4.49v-0.02h-22.4l-2.62,0.5
				c-1.18-2.54,0.06-5.92,3.04-9.33c2.98-3.41,7.68-6.86,13.41-9.53v3.47H267.02z"/>
			<path class="st57" d="M267.02,202.39v5.39v4.99h0.33c-2.24,1.6-4.82,3.12-7.65,4.44c-2.83,1.32-5.65,2.33-8.32,3.01v-2.93h-14.04
				l-2.39,0.4c-1.17-2.51,0.06-5.85,3.01-9.23c2.94-3.38,7.6-6.79,13.26-9.43v3.36H267.02z"/>
			<path class="st58" d="M267.02,202.39v5.39v4.93h0.2c-2.21,1.59-4.76,3.08-7.56,4.39c-2.8,1.31-5.58,2.3-8.22,2.98v-2.79h-14.09
				l-2.16,0.29c-1.16-2.48,0.06-5.79,2.97-9.13c2.91-3.34,7.51-6.71,13.11-9.32v3.26H267.02z"/>
			<path class="st59" d="M267.02,202.39v5.4v4.88h0.06c-2.19,1.57-4.71,3.05-7.48,4.34c-5.54,2.58-11.01,3.93-15.39,4.01v-3.72
				h-6.87l-1.93,0.18c-1.14-2.45,0.06-5.72,2.94-9.02c2.88-3.3,7.43-6.63,12.96-9.22v3.16H267.02z"/>
			<path class="st60" d="M267.02,202.39v5.4v2.44h2.92c-0.91,0.81-1.91,1.61-2.99,2.38c-2.16,1.55-4.66,3.01-7.39,4.29
				c-5.47,2.55-10.89,3.88-15.21,3.96v-3.58h-7l-1.7,0.07c-1.13-2.43,0.06-5.66,2.91-8.92c2.84-3.26,7.34-6.56,12.81-9.11v3.06
				H267.02z"/>
			<path class="st61" d="M267.02,202.39v5.4v2.41h2.75c-0.9,0.8-1.88,1.59-2.95,2.35c-2.14,1.53-4.6,2.98-7.31,4.24
				c-5.41,2.52-10.76,3.84-15.04,3.92c-4.28,0.08-7.48-1.07-8.6-3.46c-2.24-4.8,4.72-12.77,15.54-17.82v2.96H267.02z"/>
			<path class="st62" d="M267.02,202.39v5.41v2.38h2.58c-0.89,0.79-1.86,1.57-2.92,2.33c-2.11,1.51-4.55,2.94-7.22,4.19
				c-5.35,2.49-10.63,3.79-14.86,3.87c-4.23,0.08-7.39-1.05-8.5-3.42c-2.21-4.74,4.66-12.62,15.35-17.61v2.85H267.02z"/>
			<path class="st63" d="M267.02,202.39v5.41v2.36h2.41c-0.88,0.78-1.84,1.55-2.88,2.3c-2.09,1.5-4.49,2.91-7.13,4.14
				c-5.28,2.46-10.51,3.75-14.68,3.83c-4.18,0.08-7.31-1.04-8.4-3.38c-2.18-4.68,4.61-12.47,15.17-17.4v2.75H267.02z"/>
			<path class="st64" d="M267.02,202.39v5.42v2.33h2.24c-0.86,0.77-1.82,1.53-2.85,2.27c-2.06,1.48-4.44,2.87-7.05,4.09
				c-5.22,2.43-10.38,3.7-14.51,3.78c-4.13,0.08-7.22-1.03-8.3-3.34c-2.16-4.63,4.55-12.32,14.99-17.19v2.65H267.02z"/>
			<path class="st65" d="M267.02,202.39v5.42v2.3h2.08c-0.85,0.76-1.8,1.51-2.81,2.24c-2.04,1.46-4.39,2.84-6.96,4.04
				c-5.15,2.4-10.25,3.66-14.33,3.73c-4.08,0.08-7.13-1.02-8.2-3.3c-2.13-4.57,4.5-12.17,14.81-16.98v2.55H267.02z"/>
			<path class="st66" d="M267.02,202.39v5.42v2.27h1.91c-0.84,0.75-1.77,1.49-2.78,2.21c-2.01,1.44-4.33,2.8-6.88,3.99
				c-5.09,2.37-10.13,3.61-14.15,3.69c-4.03,0.08-7.04-1-8.1-3.26c-2.11-4.51,4.44-12.02,14.62-16.77v2.45H267.02z"/>
			<path class="st67" d="M267.02,202.39v5.43v2.24h1.74c-0.83,0.74-1.75,1.47-2.75,2.19c-1.99,1.42-4.28,2.77-6.79,3.94
				c-10.05,4.69-19.89,4.88-21.97,0.42c-2.08-4.46,4.39-11.87,14.44-16.56v2.34H267.02z"/>
			<path class="st68" d="M267.02,202.39v5.43h3.78c-2.58,2.96-6.66,5.95-11.62,8.26c-9.93,4.63-19.64,4.82-21.69,0.42
				c-2.05-4.4,4.33-11.72,14.26-16.35v2.24H267.02z"/>
			<path class="st69" d="M267.02,202.39v5.43h3.58c-2.55,2.92-6.57,5.87-11.47,8.16c-9.8,4.57-19.39,4.76-21.41,0.41
				c-2.03-4.34,4.27-11.57,14.07-16.14v2.14H267.02z"/>
			<path class="st70" d="M267.02,202.39v5.44h3.38c-2.51,2.88-6.49,5.79-11.32,8.05c-9.67,4.51-19.14,4.69-21.14,0.41
				c-2-4.29,4.22-11.42,13.89-15.93v2.04H267.02z"/>
			<path class="st71" d="M267.02,202.39v5.44h3.19c-2.48,2.85-6.4,5.72-11.17,7.95c-9.55,4.45-18.88,4.63-20.86,0.4
				s4.16-11.27,13.71-15.72v1.93H267.02z"/>
			<path class="st72" d="M267.02,202.39v5.45h2.99c-2.45,2.81-6.32,5.64-11.03,7.84c-9.42,4.39-18.63,4.57-20.58,0.4
				c-1.95-4.17,4.11-11.12,13.53-15.51v1.83H267.02z"/>
			<path class="st73" d="M267.02,202.39v5.45h2.79c-2.41,2.77-6.23,5.57-10.88,7.73c-9.29,4.33-18.38,4.51-20.3,0.39
				c-1.92-4.12,4.05-10.97,13.34-15.3v1.73H267.02z"/>
			<path class="st74" d="M267.02,202.39v5.45h2.6c-2.38,2.73-6.15,5.49-10.73,7.63c-9.16,4.27-18.13,4.45-20.02,0.39
				c-1.89-4.06,4-10.82,13.16-15.1v1.63H267.02z"/>
			<path class="st75" d="M267.02,202.39v5.46h2.4c-2.35,2.69-6.06,5.41-10.58,7.52c-9.04,4.22-17.88,4.39-19.74,0.38
				c-1.87-4.01,3.94-10.67,12.98-14.89v1.53H267.02z"/>
			<path class="st76" d="M267.02,202.39v5.46h2.2c-2.32,2.66-5.97,5.34-10.43,7.42c-8.91,4.16-17.62,4.32-19.47,0.38
				c-1.84-3.95,3.89-10.52,12.8-14.68v1.42H267.02z"/>
			<path class="st77" d="M267.02,202.39v5.46h2.01c-2.28,2.62-5.89,5.26-10.28,7.31c-8.78,4.1-17.37,4.26-19.19,0.37
				c-1.82-3.89,3.83-10.37,12.61-14.47v1.32H267.02z"/>
			<path class="st78" d="M267.02,202.39v5.47h1.81c-2.25,2.58-5.8,5.19-10.13,7.2c-8.65,4.04-17.12,4.2-18.91,0.36
				c-1.79-3.84,3.78-10.22,12.43-14.26v1.22H267.02z"/>
			<path class="st79" d="M267.02,202.39v5.47h1.61c-2.22,2.54-5.72,5.11-9.98,7.1c-8.53,3.98-16.87,4.14-18.63,0.36
				c-1.76-3.78,3.72-10.07,12.25-14.05v1.12H267.02z"/>
			<path class="st80" d="M267.02,202.39v5.48h1.42c-2.18,2.5-5.63,5.03-9.83,6.99c-8.4,3.92-16.62,4.08-18.35,0.35
				c-1.74-3.72,3.66-9.92,12.06-13.84v1.02H267.02z"/>
			<path class="st81" d="M267.02,202.39v5.48h1.22c-2.15,2.47-5.55,4.96-9.68,6.89c-8.27,3.86-16.37,4.02-18.08,0.35
				c-1.71-3.67,3.61-9.77,11.88-13.63v0.91H267.02z"/>
			<path class="st82" d="M267.02,202.39v5.48h1.02c-2.12,2.43-5.46,4.88-9.54,6.78c-8.15,3.8-16.11,3.95-17.8,0.34
				c-1.68-3.61,3.55-9.62,11.7-13.42v0.81H267.02z"/>
			<path class="st83" d="M267.02,202.39v5.49h0.83c-2.08,2.39-5.38,4.8-9.39,6.67c-8.02,3.74-15.86,3.89-17.52,0.34
				c-1.66-3.55,3.5-9.47,11.52-13.21v0.71H267.02z"/>
			<path class="st84" d="M267.02,202.39v5.49h0.63c-2.05,2.35-5.29,4.73-9.24,6.57c-7.89,3.68-15.61,3.83-17.24,0.33
				c-1.63-3.5,3.44-9.32,11.33-13v0.61H267.02z"/>
			<path class="st85" d="M267.02,202.39v5.5h0.43c-2.02,2.31-5.21,4.65-9.09,6.46c-7.76,3.62-15.36,3.77-16.96,0.33
				c-1.61-3.44,3.39-9.17,11.15-12.79v0.5H267.02z"/>
			<path class="st86" d="M267.02,202.39v5.5h0.24c-1.98,2.28-5.12,4.57-8.94,6.36c-7.64,3.56-15.11,3.71-16.69,0.32
				c-1.58-3.38,3.33-9.02,10.97-12.58v0.4H267.02z"/>
			<path class="st87" d="M269.06,201.78c1.55,3.33-3.28,8.87-10.78,12.37c-7.51,3.5-14.85,3.64-16.41,0.32
				c-1.55-3.33,3.28-8.87,10.78-12.37v0.3h14.37L269.06,201.78z"/>
			<path class="st88" d="M268.83,201.88c1.53,3.27-3.22,8.72-10.6,12.16c-7.38,3.44-14.6,3.58-16.13,0.31
				c-1.53-3.27,3.22-8.72,10.6-12.16v0.2h14.32L268.83,201.88z"/>
			<path class="st89" d="M268.6,201.99c1.5,3.22-3.16,8.57-10.42,11.95c-7.25,3.38-14.35,3.52-15.85,0.31
				c-1.5-3.22,3.16-8.57,10.42-11.95v0.1h14.28L268.6,201.99z"/>
			<path class="st90" d="M268.37,202.1c1.47,3.16-3.11,8.42-10.24,11.74c-7.13,3.32-14.1,3.46-15.57,0.3
				c-1.47-3.16,3.11-8.42,10.24-11.74C259.92,199.07,266.89,198.94,268.37,202.1z"/>
			
				<ellipse transform="matrix(0.9062 -0.4228 0.4228 0.9062 -64.0346 127.5196)" class="st91" cx="255.46" cy="208.12" rx="13.99" ry="6.2"/>
			<path class="st92" d="M267.91,202.31c1.42,3.05-3,8.12-9.87,11.32c-6.87,3.21-13.6,3.34-15.02,0.29c-1.42-3.05,3-8.12,9.87-11.32
				C259.76,199.4,266.49,199.27,267.91,202.31z"/>
			<path class="st93" d="M267.68,202.42c1.39,2.99-2.94,7.96-9.69,11.11c-6.75,3.15-13.34,3.27-14.74,0.28
				c-1.39-2.99,2.94-7.96,9.69-11.11C259.68,199.56,266.28,199.43,267.68,202.42z"/>
			
				<ellipse transform="matrix(0.9062 -0.4228 0.4228 0.9062 -64.0346 127.5195)" class="st94" cx="255.46" cy="208.12" rx="13.22" ry="5.86"/>
			
				<ellipse transform="matrix(0.9062 -0.4228 0.4228 0.9062 -64.0344 127.5187)" class="st95" cx="255.46" cy="208.12" rx="12.97" ry="5.75"/>
			
				<ellipse transform="matrix(0.9062 -0.4228 0.4228 0.9062 -64.0345 127.5193)" class="st96" cx="255.46" cy="208.12" rx="12.71" ry="5.64"/>
			
				<ellipse transform="matrix(0.9062 -0.4228 0.4228 0.9062 -64.0346 127.5196)" class="st97" cx="255.46" cy="208.12" rx="12.46" ry="5.52"/>
			<path class="st98" d="M266.52,202.96c1.26,2.71-2.66,7.21-8.77,10.06c-6.11,2.85-12.09,2.97-13.35,0.26
				c-1.26-2.71,2.66-7.21,8.77-10.06C259.29,200.37,265.26,200.25,266.52,202.96z"/>
			
				<ellipse transform="matrix(0.9062 -0.4228 0.4228 0.9062 -64.0345 127.5193)" class="st99" cx="255.46" cy="208.12" rx="11.95" ry="5.3"/>
			
				<ellipse transform="matrix(0.9062 -0.4228 0.4228 0.9062 -64.0346 127.5197)" class="st100" cx="255.46" cy="208.12" rx="11.7" ry="5.18"/>
			<path class="st101" d="M265.83,203.28c1.18,2.54-2.5,6.76-8.23,9.43c-5.73,2.67-11.33,2.78-12.51,0.24s2.5-6.76,8.23-9.43
				C259.05,200.85,264.65,200.74,265.83,203.28z"/>
			
				<ellipse transform="matrix(0.9062 -0.4228 0.4228 0.9062 -64.0346 127.5194)" class="st102" cx="255.46" cy="208.12" rx="11.19" ry="4.96"/>
			
				<ellipse transform="matrix(0.9062 -0.4228 0.4228 0.9062 -64.0346 127.5195)" class="st103" cx="255.46" cy="208.12" rx="10.93" ry="4.85"/>
			
				<ellipse transform="matrix(0.9062 -0.4228 0.4228 0.9062 -64.0345 127.5194)" class="st104" cx="255.46" cy="208.12" rx="10.68" ry="4.73"/>
			
				<ellipse transform="matrix(0.9062 -0.4228 0.4228 0.9062 -64.0345 127.5192)" class="st105" cx="255.46" cy="208.12" rx="10.43" ry="4.62"/>
			<path class="st106" d="M264.68,203.82c1.05,2.26-2.22,6.01-7.31,8.39c-5.09,2.37-10.07,2.47-11.12,0.21
				c-1.05-2.26,2.22-6.01,7.31-8.39C258.65,201.66,263.63,201.56,264.68,203.82z"/>
			<path class="st107" d="M264.45,203.93c1.03,2.2-2.17,5.86-7.13,8.18c-4.96,2.32-9.82,2.41-10.85,0.21
				c-1.03-2.2,2.17-5.86,7.13-8.18S263.42,201.73,264.45,203.93z"/>
			<path class="st108" d="M264.22,204.03c1,2.14-2.11,5.71-6.95,7.97c-4.84,2.26-9.57,2.35-10.57,0.2c-1-2.14,2.11-5.71,6.95-7.97
				C258.49,201.98,263.22,201.89,264.22,204.03z"/>
			<path class="st109" d="M263.99,204.14c0.97,2.09-2.05,5.56-6.76,7.76c-4.71,2.2-9.32,2.29-10.29,0.2
				c-0.97-2.09,2.05-5.56,6.76-7.76C258.41,202.14,263.02,202.05,263.99,204.14z"/>
			
				<ellipse transform="matrix(0.9062 -0.4228 0.4228 0.9062 -64.0347 127.5198)" class="st110" cx="255.46" cy="208.12" rx="9.15" ry="4.06"/>
			
				<ellipse transform="matrix(0.9062 -0.4228 0.4228 0.9062 -64.0347 127.5199)" class="st111" cx="255.46" cy="208.12" rx="8.9" ry="3.95"/>
			<path class="st112" d="M263.3,204.46c0.89,1.92-1.89,5.11-6.21,7.13c-4.33,2.02-8.56,2.1-9.46,0.18
				c-0.89-1.92,1.89-5.11,6.21-7.13C258.17,202.63,262.4,202.55,263.3,204.46z"/>
			
				<ellipse transform="matrix(0.9062 -0.4228 0.4228 0.9062 -64.0345 127.5193)" class="st113" cx="255.46" cy="208.12" rx="8.39" ry="3.72"/>
			<path class="st114" d="M262.84,204.68c0.84,1.81-1.78,4.81-5.85,6.71c-4.07,1.9-8.06,1.98-8.9,0.17
				c-0.84-1.81,1.78-4.81,5.85-6.71C258.01,202.95,262,202.87,262.84,204.68z"/>
			<path class="st115" d="M262.61,204.79c0.82,1.75-1.72,4.66-5.67,6.5c-3.95,1.84-7.81,1.91-8.62,0.17
				c-0.82-1.75,1.72-4.66,5.67-6.5C257.93,203.11,261.79,203.04,262.61,204.79z"/>
			<path class="st116" d="M262.38,204.89c0.79,1.69-1.67,4.51-5.48,6.29c-3.82,1.78-7.55,1.85-8.34,0.16
				c-0.79-1.69,1.67-4.51,5.48-6.29C257.85,203.27,261.59,203.2,262.38,204.89z"/>
			<path class="st117" d="M262.15,205c0.76,1.64-1.61,4.36-5.3,6.08c-3.69,1.72-7.3,1.79-8.06,0.16c-0.76-1.64,1.61-4.36,5.3-6.08
				C257.77,203.44,261.38,203.37,262.15,205z"/>
			
				<ellipse transform="matrix(0.9062 -0.4228 0.4228 0.9062 -64.0346 127.5195)" class="st118" cx="255.46" cy="208.12" rx="7.12" ry="3.16"/>
			
				<ellipse transform="matrix(0.9062 -0.4228 0.4228 0.9062 -64.0348 127.5204)" class="st119" cx="255.46" cy="208.12" rx="6.87" ry="3.04"/>
			<path class="st120" d="M261.46,205.32c0.68,1.47-1.44,3.91-4.75,5.45c-3.31,1.54-6.55,1.61-7.23,0.14
				c-0.68-1.47,1.44-3.91,4.75-5.45C257.53,203.92,260.77,203.86,261.46,205.32z"/>
			
				<ellipse transform="matrix(0.9062 -0.4228 0.4228 0.9062 -64.0347 127.5198)" class="st121" cx="255.46" cy="208.12" rx="6.36" ry="2.82"/>
			<path class="st122" d="M260.99,205.54c0.63,1.35-1.33,3.61-4.39,5.03c-3.05,1.43-6.04,1.48-6.67,0.13
				c-0.63-1.35,1.33-3.61,4.39-5.03C257.37,204.24,260.36,204.19,260.99,205.54z"/>
			<path class="st123" d="M260.76,205.65c0.61,1.3-1.28,3.46-4.2,4.82c-2.93,1.37-5.79,1.42-6.4,0.12c-0.61-1.3,1.28-3.46,4.2-4.82
				C257.29,204.4,260.16,204.35,260.76,205.65z"/>
			<path class="st124" d="M260.53,205.75c0.58,1.24-1.22,3.31-4.02,4.61c-2.8,1.31-5.54,1.36-6.12,0.12
				c-0.58-1.24,1.22-3.31,4.02-4.61C257.22,204.57,259.95,204.51,260.53,205.75z"/>
			
				<ellipse transform="matrix(0.9062 -0.4228 0.4228 0.9062 -64.0347 127.5201)" class="st125" cx="255.46" cy="208.12" rx="5.34" ry="2.37"/>
			<path class="st126" d="M260.07,205.97c0.53,1.13-1.11,3.01-3.66,4.19c-2.55,1.19-5.04,1.24-5.56,0.11
				c-0.53-1.13,1.11-3.01,3.66-4.19C257.06,204.89,259.55,204.84,260.07,205.97z"/>
			<path class="st127" d="M259.84,206.08c0.5,1.07-1.05,2.86-3.47,3.98c-2.42,1.13-4.78,1.17-5.28,0.1
				c-0.5-1.07,1.05-2.86,3.47-3.98C256.98,205.05,259.34,205.01,259.84,206.08z"/>
			<path class="st128" d="M259.61,206.18c0.47,1.02-1,2.71-3.29,3.77c-2.29,1.07-4.53,1.11-5.01,0.1c-0.47-1.02,1-2.71,3.29-3.77
				C256.9,205.21,259.14,205.17,259.61,206.18z"/>
			
				<ellipse transform="matrix(0.9062 -0.4228 0.4228 0.9062 -64.0344 127.5188)" class="st129" cx="255.46" cy="208.12" rx="4.32" ry="1.92"/>
			<path class="st130" d="M259.15,206.4c0.42,0.9-0.89,2.4-2.92,3.35c-2.04,0.95-4.03,0.99-4.45,0.09c-0.42-0.9,0.89-2.4,2.92-3.35
				C256.74,205.54,258.73,205.5,259.15,206.4z"/>
			<path class="st131" d="M258.92,206.51c0.39,0.85-0.83,2.25-2.74,3.14c-1.91,0.89-3.78,0.93-4.17,0.08
				c-0.39-0.85,0.83-2.25,2.74-3.14C256.66,205.7,258.53,205.66,258.92,206.51z"/>
			<path class="st132" d="M258.69,206.61c0.37,0.79-0.78,2.1-2.56,2.94c-1.78,0.83-3.52,0.86-3.89,0.08
				c-0.37-0.79,0.78-2.1,2.56-2.94S258.32,205.82,258.69,206.61z"/>
			<path class="st133" d="M258.46,206.72c0.34,0.73-0.72,1.95-2.38,2.73c-1.65,0.77-3.27,0.8-3.62,0.07
				c-0.34-0.73,0.72-1.95,2.38-2.73C256.5,206.02,258.12,205.99,258.46,206.72z"/>
			<path class="st134" d="M258.23,206.83c0.32,0.68-0.67,1.8-2.19,2.52c-1.53,0.71-3.02,0.74-3.34,0.06
				c-0.32-0.68,0.67-1.8,2.19-2.52C256.42,206.18,257.91,206.15,258.23,206.83z"/>
			<path class="st135" d="M258,206.94c0.29,0.62-0.61,1.65-2.01,2.31c-1.4,0.65-2.77,0.68-3.06,0.06c-0.29-0.62,0.61-1.65,2.01-2.31
				C256.34,206.34,257.71,206.32,258,206.94z"/>
			<path class="st136" d="M257.77,207.04c0.26,0.56-0.56,1.5-1.83,2.1c-1.27,0.59-2.52,0.62-2.78,0.05c-0.26-0.56,0.56-1.5,1.83-2.1
				C256.26,206.5,257.5,206.48,257.77,207.04z"/>
			<path class="st137" d="M257.54,207.15c0.24,0.51-0.5,1.35-1.65,1.89c-1.15,0.53-2.27,0.56-2.5,0.05
				c-0.24-0.51,0.5-1.35,1.65-1.89C256.18,206.67,257.3,206.64,257.54,207.15z"/>
			<path class="st138" d="M257.31,207.26c0.21,0.45-0.44,1.2-1.46,1.68c-1.02,0.48-2.01,0.49-2.22,0.04
				c-0.21-0.45,0.44-1.2,1.46-1.68C256.1,206.83,257.1,206.81,257.31,207.26z"/>
			<path class="st139" d="M257.08,207.37c0.18,0.39-0.39,1.05-1.28,1.47c-0.89,0.42-1.76,0.43-1.95,0.04
				c-0.18-0.39,0.39-1.05,1.28-1.47C256.02,206.99,256.89,206.97,257.08,207.37z"/>
			<path class="st140" d="M256.85,207.47c0.16,0.34-0.33,0.9-1.1,1.26c-0.76,0.36-1.51,0.37-1.67,0.03c-0.16-0.34,0.33-0.9,1.1-1.26
				C255.94,207.15,256.69,207.14,256.85,207.47z"/>
			<path class="st141" d="M256.62,207.58c0.13,0.28-0.28,0.75-0.91,1.05c-0.64,0.3-1.26,0.31-1.39,0.03
				c-0.13-0.28,0.28-0.75,0.91-1.05C255.86,207.31,256.48,207.3,256.62,207.58z"/>
			<path class="st142" d="M256.39,207.69c0.11,0.23-0.22,0.6-0.73,0.84c-0.51,0.24-1.01,0.25-1.11,0.02
				c-0.11-0.23,0.22-0.6,0.73-0.84C255.78,207.47,256.28,207.46,256.39,207.69z"/>
			<path class="st143" d="M256.16,207.8c0.08,0.17-0.17,0.45-0.55,0.63c-0.38,0.18-0.76,0.19-0.83,0.02
				c-0.08-0.17,0.17-0.45,0.55-0.63C255.7,207.64,256.08,207.63,256.16,207.8z"/>
			<path class="st144" d="M255.92,207.9c0.05,0.11-0.11,0.3-0.37,0.42c-0.25,0.12-0.5,0.12-0.56,0.01c-0.05-0.11,0.11-0.3,0.37-0.42
				C255.62,207.8,255.87,207.79,255.92,207.9z"/>
			<path class="st145" d="M255.69,208.01c0.03,0.06-0.06,0.15-0.18,0.21c-0.13,0.06-0.25,0.06-0.28,0.01
				c-0.03-0.06,0.06-0.15,0.18-0.21C255.54,207.96,255.67,207.96,255.69,208.01z"/>
		</g>
	</g>
	<polygon class="st146" points="257.81,216.75 257.89,223.34 254.97,223.29 253.43,218.29 237.89,214.4 	"/>
	<path class="st147" d="M226.7,226.36c0,0,5.84,1.08,13.98-1.43c8.52-2.63,12.75-6.64,12.75-6.64s-4.98,3.56-13.08,6.07
		C232.24,226.86,226.7,226.36,226.7,226.36z"/>
</g>
<g>
	<rect x="156.98" y="130.9" class="st148" width="106.55" height="6.56"/>
	<rect x="156.98" y="147.84" class="st148" width="106.55" height="6.55"/>
	<rect x="156.98" y="164.77" class="st148" width="78.03" height="6.56"/>
</g>
<g>
	<rect x="156.98" y="322.6" class="st148" width="106.55" height="6.56"/>
	<rect x="156.98" y="339.54" class="st148" width="106.55" height="6.56"/>
	<rect x="156.98" y="356.47" class="st148" width="106.55" height="6.56"/>
</g>
<g>
	<linearGradient id="SVGID_17_" gradientUnits="userSpaceOnUse" x1="211.8421" y1="282.9348" x2="211.8421" y2="248.7174">
		<stop  offset="1.984140e-03" style="stop-color:#FF3363"/>
		<stop  offset="1" style="stop-color:#FF6E27"/>
	</linearGradient>
	<polygon class="st149" points="166.05,282.24 165.69,282.93 184.11,275.64 199.31,280.78 212.96,260.03 230.67,282.62 
		255.69,253.69 257.46,255.46 257.99,248.72 251.86,250.77 253.66,252.07 230.85,278.31 212.96,256.89 198.74,279 184.01,274.72 	
		"/>
	<polygon class="st150" points="170.61,298.03 166.29,298.03 166.29,283.86 170.61,282.05 	"/>
	<polygon class="st150" points="179.77,298.03 175.45,298.03 175.45,280.51 179.77,278.7 	"/>
	<polygon class="st150" points="188.93,298.03 184.61,298.03 184.61,277.36 188.93,278.98 	"/>
	<polygon class="st150" points="198.09,298.03 193.78,298.03 193.78,280.11 198.09,281.57 	"/>
	<polygon class="st150" points="207.25,298.03 202.94,298.03 202.94,277.36 207.25,270.73 	"/>
	<polygon class="st150" points="216.42,298.03 212.1,298.03 212.1,263.5 212.95,261.88 216.42,266.44 	"/>
	<polygon class="st150" points="225.58,298.03 221.26,298.03 221.26,272.23 225.58,278.28 	"/>
	<polygon class="st150" points="234.74,298.03 230.43,298.03 230.43,284.38 234.74,279.95 	"/>
	<polygon class="st150" points="243.9,298.03 239.59,298.03 239.59,275 243.9,269.53 	"/>
	<polygon class="st150" points="253.07,298.03 248.75,298.03 248.75,263.93 253.07,258.75 	"/>
	<rect x="164.51" y="298.03" class="st151" width="91.79" height="1.18"/>
</g>
<g>
	<linearGradient id="SVGID_18_" gradientUnits="userSpaceOnUse" x1="171.9664" y1="242.4646" x2="171.9664" y2="208.2768">
		<stop  offset="0" style="stop-color:#FFA700"/>
		<stop  offset="1" style="stop-color:#FFD328"/>
	</linearGradient>
	<polygon class="st152" points="168.8,242.46 168.29,210.64 175.64,208.28 175.64,242.34 	"/>
	<linearGradient id="SVGID_19_" gradientUnits="userSpaceOnUse" x1="183.3775" y1="242.4299" x2="183.3775" y2="195.464">
		<stop  offset="1.984140e-03" style="stop-color:#E03347"/>
		<stop  offset="1" style="stop-color:#FF6E27"/>
	</linearGradient>
	<polygon class="st153" points="179.58,242.43 178.88,196.99 187.88,195.46 187.41,242.35 	"/>
	<linearGradient id="SVGID_20_" gradientUnits="userSpaceOnUse" x1="194.1108" y1="242.3351" x2="194.1108" y2="222.8101">
		<stop  offset="5.586610e-03" style="stop-color:#713592"/>
		<stop  offset="1" style="stop-color:#5178FE"/>
	</linearGradient>
	<polygon class="st154" points="190.01,242.33 190.6,222.81 198.21,222.81 197.22,242.34 	"/>
	<linearGradient id="SVGID_21_" gradientUnits="userSpaceOnUse" x1="190.9325" y1="242.2128" x2="188.4002" y2="223.1017">
		<stop  offset="5.586590e-03" style="stop-color:#530E68"/>
		<stop  offset="1" style="stop-color:#60309D"/>
	</linearGradient>
	<polygon class="st155" points="190.6,222.81 188.75,225.04 188.71,242.33 190.01,242.33 	"/>
	<linearGradient id="SVGID_22_" gradientUnits="userSpaceOnUse" x1="178.7695" y1="242.1842" x2="174.3003" y2="208.4547">
		<stop  offset="1.984130e-03" style="stop-color:#C93347"/>
		<stop  offset="1" style="stop-color:#FF7527"/>
	</linearGradient>
	<polygon class="st156" points="175.64,208.28 177.63,209.86 177.63,242.33 175.64,242.34 	"/>
</g>
</svg>
