<?xml version="1.0" encoding="utf-8"?>
<!-- Generator: Adobe Illustrator 24.0.0, SVG Export Plug-In . SVG Version: 6.00 Build 0)  -->
<svg version="1.1" id="f38ee091-c82c-4da1-851f-4c077abd9110"
	 xmlns="http://www.w3.org/2000/svg" xmlns:xlink="http://www.w3.org/1999/xlink" width="550px" height="550px" x="0px" y="0px" viewBox="0 0 1233 1045"
	 style="enable-background:new 0 0 1233 1045;" xml:space="preserve">
<style type="text/css">
	.st0{fill:#F2F2F2;}
	.st1{display:none;fill:#FF6584;}
	.st2{display:none;fill:none;stroke:#2F2E41;stroke-width:2;}
	.st3{opacity:0.34;fill:#FFFFFF;enable-background:new    ;}
	.st4{opacity:0.4;fill:#FFFFFF;enable-background:new    ;}
	.st5{fill:#3F3D56;}
	.st6{fill:#061E30;}
	.st7{fill:#0B2139;}
	.st8{fill:#E23237;}
	.st9{fill:#B52E31;}
	.st10{fill:#FFFFFF;}
	.st11{opacity:0.34;fill:#53C1DE;enable-background:new    ;}
	.st12{fill:#4285F4;}
	.st13{fill:#34A853;}
	.st14{fill:#FBBC05;}
	.st15{fill:#EB4335;}
	.st16{fill:#252F3E;}
	.st17{fill:#FF9900;}
	.st18{display:none;opacity:0.5;}
	.st19{display:inline;fill:#E6E6E6;}
	.st20{fill:#051523;}
	.st21{fill:#03111C;}
	.st22{display:none;fill:#0B2139;}
	.st23{display:none;opacity:0.1;enable-background:new    ;}
	.st24{display:none;opacity:0.15;enable-background:new    ;}
	.st25{display:none;fill:#2F2E41;}
	.st26{fill:none;stroke:#E6E6E6;stroke-miterlimit:10;}
	.st27{fill:#F5C713;}
	.st28{fill:#CCCCCC;}
	.st29{fill:none;stroke:#3F3D56;stroke-width:2;stroke-miterlimit:10;}
	.st30{fill:#E6E6E6;}
	.st31{fill:#A0616A;}
	.st32{opacity:0.5;fill:#F5C713;enable-background:new    ;}
	.st33{fill:#E0E0E0;}
	.st34{fill:#FBBEBE;}
</style>
<title></title>
<path class="st0" d="M931.1,420.4C886.2,243.8,731,116.3,548.8,111.2c-96.3-2.7-197.7,29.2-271.4,141
	C145.5,452,285.5,590,383.1,655.7c47.2,31.8,89.6,70,126.2,113.5c65.9,78.2,192.8,175.5,343.8,23.1C962.6,681.8,961,538,931.1,420.4
	z"/>
<path class="st1" d="M1161,459.7c0,45.8-37.2,119-83,119s-83-73.2-83-119s37.2-83,83-83S1161,413.9,1161,459.7z"/>
<path class="st2" d="M1081.1,581.7c-10.4,3.6-12.9,17.8-9.3,28.2c3.6,10.4,11.2,19.1,15,29.4c1.7,5.2,3,10.6,3.7,16
	c2.2,13,4.4,26.2,2.7,39.2c-1.6,12.4-6.6,24.1-12.2,35.2c-10.8,21.6-24,42-39.3,60.7"/>
<path class="st1" d="M1086,586.7c-5.3-3.4-10.7-3.4-16,0v-16h16V586.7z"/>
<path class="st2" d="M1070,578.4c5,2.6,11,2.5,16-0.1"/>
<ellipse class="st3" cx="1112.5" cy="424.7" rx="17.5" ry="21"/>
<path class="st1" d="M93,446.7c0,45.8,37.2,119,83,119s83-73.2,83-119s-37.2-83-83-83S93,400.9,93,446.7z"/>
<path class="st2" d="M172.9,568.7c10.4,3.6,12.9,17.8,9.3,28.2c-3.6,10.4-11.2,19.1-15,29.4c-1.7,5.2-3,10.6-3.7,16
	c-2.2,13-4.4,26.2-2.7,39.2c1.6,12.4,6.6,24.1,12.2,35.2c10.8,21.6,24,42,39.3,60.7"/>
<path class="st1" d="M168,573.7c5.3-3.4,10.7-3.4,16,0v-16h-16V573.7z"/>
<path class="st2" d="M184,565.4c-5,2.6-11,2.5-16-0.1"/>
<ellipse class="st4" cx="141.5" cy="411.7" rx="17.5" ry="21"/>
<path class="st5" d="M1101,811.7c0,47.2-222.1,131-496,131s-470-169.8-470-217s196.1,46,470,46S1101,764.5,1101,811.7z"/>
<path class="st6" d="M1101,811.7c0,47.2-222.1,131-496,131s-470-169.8-470-217s196.1,46,470,46S1101,764.5,1101,811.7z"/>
<path class="st7" d="M1101,811.2c0,47.2-222.1,85.5-496,85.5s-470-123.8-470-171s196.1,0,470,0S1101,764,1101,811.2z"/>
<path class="st6" d="M529.2,678.1l-10,64.1c0,0-49.5,26.3-14.7,27s198.6,0,198.6,0s31.7,0-18.5-27.8l-10-67.2L529.2,678.1z"/>
<path class="st7" d="M497.5,768.6c7.9-7,21.7-14.3,21.7-14.3l10-64.1l145.3,0.1l10,63.2c11.7,6.5,19,11.5,23.2,15.3
	c6.5-1.5,13.5-6.9-23.2-27.3l-10-67.2l-145.3,3.9l-10,64.1C519.1,742.3,477.6,764.4,497.5,768.6z"/>
<path class="st8" d="M165.2,382l76.8-27.4l78.8,26.9L308,483.1l-66.1,36.6l-65-36.1L165.2,382z"/>
<path class="st9" d="M319.9,389.3l-67.8-23.1v142l56.8-31.4L319.9,389.3L319.9,389.3z"/>
<path class="st10" d="M242.1,373.9l-47.8,106.4l17.9-0.3l9.6-24h42.9l10.5,24.3l17.1,0.3L242.1,373.9L242.1,373.9z M242.2,408
	l16.2,33.8H228L242.2,408z"/>
<path class="st3" d="M403.8,211.9c0,14.5,14.1,28.2,36.5,35.9c-4.5,22.5-0.9,40.7,11.3,47.8c12.6,7.3,31.4,2.3,49.2-13.2
	c17.3,15,34.9,20.9,47.1,13.9c12.6-7.2,16.5-26.6,12-49.8c23.4-7.6,36.4-19.2,36.5-33.9c0-14.2-14.1-26.5-36.2-34.2
	c5-24.2,0.9-41.9-11.9-49.3c-12.3-7.1-30.1-1-47.7,14.3c-18.3-16.3-35.9-21.4-48.6-14c-12.3,7.1-15.9,25.5-11.5,48.5
	C418.9,185.2,403.9,197.8,403.8,211.9z"/>
<path class="st11" d="M555.5,185.8c-1.8-0.6-3.7-1.2-5.5-1.8c0.3-1.2,0.6-2.5,0.9-3.8c4.2-20.2,1.6-36.5-7.7-41.9
	c-8.9-5.2-23.5,0.1-38.3,12.9c-1.5,1.3-2.9,2.6-4.3,3.9c-0.9-0.9-1.9-1.8-2.8-2.6c-15.4-13.8-30.9-19.6-40.2-14.2
	c-8.9,5.1-11.6,20.5-7.9,39.6c0.4,1.9,0.8,3.8,1.2,5.7c-2.2,0.6-4.3,1.3-6.3,2c-18.1,6.3-29.7,16.1-29.8,26.4
	c0,10.6,12.3,21.3,31.2,27.8c1.5,0.5,3.1,1,4.6,1.5c-0.5,2-1,4.1-1.4,6.1c-3.6,18.8-0.9,33.8,8,39c9.2,5.3,24.6-0.1,39.7-13.1
	c1.2-1,2.4-2.1,3.6-3.3c1.5,1.5,3,2.9,4.6,4.2c14.5,12.6,28.8,17.7,37.7,12.5c9.2-5.3,12.2-21.3,8.4-40.9c-0.3-1.5-0.6-3-1-4.6
	c1.1-0.3,2.1-0.6,3.2-1c19.6-6.4,32.4-16.9,32.5-27.6C585.9,202.3,574,192.3,555.5,185.8L555.5,185.8z"/>
<path class="st10" d="M552,230.9c-0.9,0.3-1.9,0.6-2.9,0.9c-2.4-7.5-5.3-14.8-8.7-21.9c3.3-7,6.1-14.2,8.5-21.5
	c1.8,0.5,3.5,1.1,5.1,1.6c16,5.5,25.7,13.7,25.7,20C579.7,216.7,569.1,225.3,552,230.9L552,230.9z M544.9,244.9
	c1.7,8.7,1.9,16.6,0.8,22.8c-1,5.5-3.1,9.2-5.7,10.7c-5.4,3.1-17.1-1-29.6-11.8c-1.4-1.2-2.9-2.6-4.3-4c5.2-5.8,10.1-11.9,14.5-18.3
	c7.9-0.6,15.7-1.8,23.4-3.5C544.3,242.2,544.6,243.6,544.9,244.9L544.9,244.9z M473.1,277.6c-5.3,1.9-9.6,1.9-12.1,0.4
	c-5.4-3.2-7.7-15.3-4.5-31.5c0.4-1.9,0.8-3.8,1.3-5.7c7.7,1.7,15.4,2.8,23.2,3.4c4.5,6.4,9.4,12.6,14.8,18.4c-1.1,1-2.2,2-3.3,3
	C485.7,271.4,479,275.6,473.1,277.6L473.1,277.6z M448.3,230.5c-8.4-2.9-15.3-6.7-20.1-10.8c-4.3-3.7-6.4-7.3-6.4-10.3
	c0-6.3,9.4-14.3,25.1-19.7c2-0.7,3.9-1.3,5.9-1.9c2.3,7.5,5.1,14.7,8.3,21.8c-3.3,7.2-6.2,14.5-8.6,22.1
	C451.2,231.5,449.8,231,448.3,230.5z M456.9,173.7c-3.2-16.6-1-29.1,4.4-32.2c5.8-3.3,18.5,1.5,32,13.5c0.9,0.8,1.7,1.6,2.6,2.4
	c-5.3,5.7-10.2,11.8-14.8,18.1c-7.7,0.7-15.4,1.8-23,3.5C457.6,177.3,457.2,175.5,456.9,173.7L456.9,173.7z M531.3,192.4
	c-1.7-2.9-3.4-5.8-5.2-8.6c5.5,0.7,10.8,1.7,15.7,2.8c-1.6,5-3.5,10-5.6,14.8C534.6,198.3,533,195.3,531.3,192.4L531.3,192.4z
	 M501,162.7c3.6,3.9,7,8,10.1,12.3c-6.8-0.3-13.6-0.4-20.4-0.1C494.1,170.5,497.5,166.4,501,162.7L501,162.7z M470.3,192.2
	c-1.7,2.9-3.3,5.9-4.9,8.9c-2.1-5.1-4-10.1-5.4-15c4.9-1.1,10.2-2,15.7-2.6C473.8,186.4,472.1,189.3,470.3,192.2z M475.7,236.3
	c-5.3-0.6-10.6-1.5-15.9-2.6c1.5-4.9,3.4-10,5.6-15.2c1.6,3,3.2,6,4.9,8.9C472,230.4,473.8,233.4,475.7,236.3z M500.9,257.3
	c-3.5-3.8-7-8-10.3-12.5c3.3,0.1,6.7,0.2,10.1,0.2c3.5,0,7-0.1,10.4-0.2C507.9,249.2,504.5,253.3,500.9,257.3z M536.2,218.4
	c2.2,5,4.1,10,5.7,15.2c-5.3,1.2-10.7,2.1-16.1,2.7c1.8-2.9,3.6-5.8,5.3-8.8C532.9,224.6,534.6,221.5,536.2,218.4z M524.8,223.9
	c-2.6,4.5-5.4,9-8.3,13.3c-5.1,0.3-10.4,0.5-15.8,0.5s-10.6-0.2-15.6-0.5c-3-4.4-5.8-8.8-8.4-13.4c-2.6-4.5-5.1-9.2-7.3-13.9
	c2.3-4.7,4.7-9.4,7.4-13.9l0,0c2.6-4.5,5.4-9,8.4-13.3c5.1-0.4,10.4-0.6,15.7-0.5c5.3,0,10.6,0.2,15.7,0.6c2.9,4.3,5.7,8.8,8.3,13.3
	s5.1,9.2,7.4,13.9C529.9,214.6,527.5,219.3,524.8,223.9L524.8,223.9z M540.3,141.6c5.8,3.4,8,16.8,4.3,34.4
	c-0.2,1.1-0.5,2.3-0.8,3.4c-7.6-1.7-15.3-3-23.1-3.7c-4.4-6.4-9.3-12.5-14.5-18.3c1.3-1.2,2.6-2.5,4-3.6
	C522.9,142.8,534.9,138.4,540.3,141.6L540.3,141.6z"/>
<path class="st11" d="M500.4,197c8.4,0,15.3,6.9,15.2,15.3c0,8.4-6.9,15.3-15.3,15.2c-8.4,0-15.3-6.9-15.2-15.3l0,0
	C485.1,203.8,492,197,500.4,197L500.4,197"/>
<g id="Layer_8">
	<path class="st12" d="M952.8,694.3c0-1.9-0.2-3.8-0.6-5.6h-25.9v10.2h15.2c-0.6,3.6-2.6,6.9-5.7,9l-0.1,0.3l8.2,6.4l0.6,0.1
		C949.7,709.8,952.8,702.7,952.8,694.3"/>
	<path class="st13" d="M926.2,721.3c7.5,0,13.7-2.5,18.3-6.7l-8.7-6.7c-2.8,1.9-6.2,2.9-9.6,2.8c-7.2,0-13.5-4.7-15.7-11.5h-0.3
		l-8.5,6.6l-0.1,0.3C906.2,715.4,915.8,721.3,926.2,721.3"/>
	<path class="st14" d="M910.5,699.1c-0.6-1.8-0.9-3.6-0.9-5.5s0.3-3.7,0.8-5.5v-0.4l-8.6-6.7l-0.3,0.1c-3.9,7.8-3.9,17,0,24.8
		L910.5,699.1"/>
	<path class="st15" d="M926.2,676.7c4-0.1,7.8,1.4,10.7,4.1l7.8-7.6c-5-4.7-11.6-7.3-18.5-7.2c-10.4,0-20,5.9-24.7,15.2l8.9,6.9
		C912.7,681.4,919.1,676.8,926.2,676.7"/>
</g>
<path class="st16" d="M968,323.5c0,1.2,0.1,2.5,0.5,3.7c0.4,1,0.8,2,1.3,3c0.2,0.3,0.3,0.6,0.3,0.9c-0.1,0.5-0.3,1-0.8,1.2l-2.6,1.7
	c-0.3,0.2-0.7,0.4-1.1,0.4c-0.5,0-0.9-0.2-1.2-0.6c-0.6-0.6-1-1.2-1.5-1.9c-0.4-0.7-0.9-1.5-1.3-2.4c-2.9,3.7-7.4,5.7-12.1,5.7
	c-3.4,0-6.2-1-8.2-3c-4.3-4.7-4-12,0.7-16.3c2.5-2.1,5.8-3.2,10.1-3.2c1.5,0,2.9,0.1,4.4,0.3c1.5,0.2,3.1,0.5,4.7,0.9v-3
	c0-3.1-0.7-5.3-1.9-6.6c-1.3-1.3-3.5-1.9-6.7-1.9c-1.5,0-3,0.2-4.4,0.5c-1.5,0.4-3,0.8-4.4,1.4c-0.5,0.2-0.9,0.4-1.4,0.5
	c-0.2,0.1-0.4,0.1-0.7,0.1c-0.6,0-0.9-0.4-0.9-1.3v-2c0-0.5,0.1-1,0.3-1.4c0.3-0.4,0.7-0.7,1.1-0.9c1.6-0.8,3.4-1.4,5.1-1.9
	c2.1-0.5,4.2-0.8,6.4-0.8c4.9,0,8.5,1.1,10.8,3.3s3.4,5.6,3.4,10.1L968,323.5L968,323.5z M951.4,329.7c1.4,0,2.9-0.3,4.2-0.7
	c1.5-0.5,2.9-1.4,3.9-2.6c0.7-0.8,1.1-1.7,1.4-2.6c0.3-1.2,0.4-2.4,0.4-3.6v-1.7c-1.2-0.3-2.5-0.5-3.8-0.7s-2.6-0.2-3.9-0.2
	c-2.8,0-4.8,0.5-6.1,1.6c-2.6,1.9-3.2,5.6-1.3,8.2C947.4,328.9,949.3,329.8,951.4,329.7L951.4,329.7z M984.3,334.1
	c-0.6,0.1-1.1-0.1-1.6-0.4c-0.4-0.4-0.7-1-0.9-1.6l-9.6-31.7c-0.2-0.5-0.3-1.1-0.4-1.6c-0.1-0.5,0.3-0.9,0.8-1c0.1,0,0.2,0,0.2,0h4
	c0.6-0.1,1.1,0.1,1.6,0.4c0.4,0.4,0.7,1,0.9,1.6l6.9,27.2l6.4-27.2c0.1-0.6,0.4-1.2,0.8-1.6c0.5-0.3,1.1-0.4,1.6-0.4h3.3
	c0.6-0.1,1.2,0.1,1.6,0.4c0.4,0.4,0.7,1,0.8,1.6l6.5,27.5l7.1-27.5c0.1-0.6,0.4-1.2,0.9-1.6c0.5-0.3,1-0.4,1.6-0.4h3.8
	c0.5-0.1,1,0.3,1,0.8c0,0.1,0,0.2,0,0.3c0,0.2,0,0.4-0.1,0.7c-0.1,0.4-0.2,0.7-0.3,1l-9.9,31.7c-0.1,0.6-0.4,1.2-0.9,1.6
	c-0.5,0.3-1,0.4-1.6,0.4h-3.5c-0.6,0.1-1.2-0.1-1.6-0.4c-0.4-0.5-0.7-1-0.8-1.6l-6.4-26.5l-6.3,26.4c-0.1,0.6-0.4,1.2-0.8,1.6
	c-0.5,0.3-1.1,0.5-1.6,0.4L984.3,334.1z M1037.1,335.2c-2.1,0-4.3-0.2-6.3-0.7c-1.6-0.3-3.2-0.9-4.7-1.6c-0.5-0.2-1-0.6-1.3-1.1
	c-0.2-0.4-0.2-0.8-0.2-1.1v-2.1c0-0.9,0.3-1.3,0.9-1.3c0.3,0,0.5,0,0.7,0.1c0.2,0.1,0.6,0.2,1,0.4c1.5,0.6,3,1.1,4.5,1.4
	c1.6,0.3,3.2,0.5,4.9,0.5c2.1,0.1,4.2-0.3,6-1.4c1.4-0.8,2.2-2.3,2.1-3.9c0-1.1-0.4-2.1-1.1-2.9c-1.2-1-2.6-1.7-4.1-2.1l-6-1.9
	c-3-0.9-5.2-2.3-6.6-4.2c-1.3-1.7-2-3.8-2-5.9c0-1.6,0.3-3.2,1.1-4.6c0.7-1.3,1.7-2.5,3-3.4c1.3-1,2.7-1.7,4.3-2.1
	c1.7-0.5,3.4-0.7,5.1-0.7c0.9,0,1.8,0,2.8,0.2c0.9,0.1,1.8,0.3,2.7,0.5s1.6,0.4,2.3,0.7c0.6,0.2,1.2,0.4,1.7,0.7
	c0.5,0.2,0.9,0.6,1.2,1c0.3,0.4,0.4,0.9,0.4,1.4v1.9c0,0.9-0.3,1.3-0.9,1.3c-0.5-0.1-1.1-0.2-1.6-0.5c-2.5-1.1-5.2-1.6-7.9-1.6
	c-1.9-0.1-3.8,0.3-5.5,1.1c-1.3,0.8-2,2.2-1.9,3.7c0,1.1,0.4,2.2,1.2,2.9c1.3,1.1,2.9,1.8,4.5,2.3l5.8,1.9c3,0.9,5.1,2.3,6.4,3.9
	c1.3,1.7,1.9,3.7,1.9,5.8c0,1.7-0.3,3.3-1.1,4.8c-0.7,1.4-1.8,2.6-3,3.6c-1.4,1.1-2.9,1.8-4.6,2.3C1041,335,1039,335.2,1037.1,335.2
	L1037.1,335.2z"/>
<path class="st17" d="M1044.8,355.2c-13.5,10-33.1,15.3-50,15.3c-22.5,0.1-44.3-8.2-61-23.3c-1.3-1.1-0.1-2.7,1.4-1.8
	c32.9,19,72.7,21.4,107.7,6.7C1045.1,351,1047,353.5,1044.8,355.2L1044.8,355.2z"/>
<path class="st17" d="M1050.5,348.8c-1.7-2.2-11.4-1.1-15.8-0.5c-1.3,0.2-1.5-1-0.3-1.9c7.7-5.4,20.4-3.9,21.9-2
	c1.5,1.9-0.4,14.6-7.6,20.6c-1.1,0.9-2.2,0.5-1.7-0.8C1048.5,360.1,1052.2,350.9,1050.5,348.8z"/>
<path class="st7" d="M296.8,231.2h608.4c12.7,0,23,10.3,23,23V664c0,12.7-10.3,23-23,23H296.8c-12.7,0-23-10.3-23-23V254.2
	C273.8,241.5,284.1,231.2,296.8,231.2z"/>
<rect id="pc" x="295.8" y="255.5" class="st10" width="610.4" height="341.5"/>
<g id="Layer_2_1_" class="st18">
	<circle class="st19" cx="305.5" cy="270.5" r="5.5"/>
	<circle class="st19" cx="333.6" cy="270.5" r="5.5"/>
	<circle class="st19" cx="361.7" cy="270.5" r="5.5"/>
	<circle class="st19" cx="389.8" cy="270.5" r="5.5"/>
	<circle class="st19" cx="417.9" cy="270.5" r="5.5"/>
	<circle class="st19" cx="446" cy="270.5" r="5.5"/>
	<circle class="st19" cx="474.1" cy="270.5" r="5.5"/>
	<circle class="st19" cx="502.2" cy="270.5" r="5.5"/>
	<circle class="st19" cx="530.3" cy="270.5" r="5.5"/>
	<circle class="st19" cx="558.4" cy="270.5" r="5.5"/>
	<circle class="st19" cx="586.5" cy="270.5" r="5.5"/>
	<circle class="st19" cx="614.5" cy="270.5" r="5.5"/>
	<circle class="st19" cx="642.6" cy="270.5" r="5.5"/>
	<circle class="st19" cx="670.7" cy="270.5" r="5.5"/>
	<circle class="st19" cx="698.8" cy="270.5" r="5.5"/>
	<circle class="st19" cx="726.9" cy="270.5" r="5.5"/>
	<circle class="st19" cx="755" cy="270.5" r="5.5"/>
	<circle class="st19" cx="783.1" cy="270.5" r="5.5"/>
	<circle class="st19" cx="811.2" cy="270.5" r="5.5"/>
	<circle class="st19" cx="839.3" cy="270.5" r="5.5"/>
	<circle class="st19" cx="867.4" cy="270.5" r="5.5"/>
	<circle class="st19" cx="895.5" cy="270.5" r="5.5"/>
	<circle class="st19" cx="305.5" cy="298.9" r="5.5"/>
	<circle class="st19" cx="333.6" cy="298.9" r="5.5"/>
	<circle class="st19" cx="361.7" cy="298.9" r="5.5"/>
	<circle class="st19" cx="389.8" cy="298.9" r="5.5"/>
	<circle class="st19" cx="417.9" cy="298.9" r="5.5"/>
	<circle class="st19" cx="446" cy="298.9" r="5.5"/>
	<circle class="st19" cx="474.1" cy="298.9" r="5.5"/>
	<circle class="st19" cx="502.2" cy="298.9" r="5.5"/>
	<circle class="st19" cx="530.3" cy="298.9" r="5.5"/>
	<circle class="st19" cx="558.4" cy="298.9" r="5.5"/>
	<circle class="st19" cx="586.5" cy="298.9" r="5.5"/>
	<circle class="st19" cx="614.5" cy="298.9" r="5.5"/>
	<circle class="st19" cx="642.6" cy="298.9" r="5.5"/>
	<circle class="st19" cx="670.7" cy="298.9" r="5.5"/>
	<circle class="st19" cx="698.8" cy="298.9" r="5.5"/>
	<circle class="st19" cx="726.9" cy="298.9" r="5.5"/>
	<circle class="st19" cx="755" cy="298.9" r="5.5"/>
	<circle class="st19" cx="783.1" cy="298.9" r="5.5"/>
	<circle class="st19" cx="811.2" cy="298.9" r="5.5"/>
	<circle class="st19" cx="839.3" cy="298.9" r="5.5"/>
	<circle class="st19" cx="867.4" cy="298.9" r="5.5"/>
	<circle class="st19" cx="895.5" cy="298.9" r="5.5"/>
	<circle class="st19" cx="305.5" cy="327.4" r="5.5"/>
	<circle class="st19" cx="333.6" cy="327.4" r="5.5"/>
	<circle class="st19" cx="361.7" cy="327.4" r="5.5"/>
	<circle class="st19" cx="389.8" cy="327.4" r="5.5"/>
	<circle class="st19" cx="417.9" cy="327.4" r="5.5"/>
	<circle class="st19" cx="446" cy="327.4" r="5.5"/>
	<circle class="st19" cx="474.1" cy="327.4" r="5.5"/>
	<circle class="st19" cx="502.2" cy="327.4" r="5.5"/>
	<circle class="st19" cx="530.3" cy="327.4" r="5.5"/>
	<circle class="st19" cx="558.4" cy="327.4" r="5.5"/>
	<circle class="st19" cx="586.5" cy="327.4" r="5.5"/>
	<circle class="st19" cx="614.5" cy="327.4" r="5.5"/>
	<circle class="st19" cx="642.6" cy="327.4" r="5.5"/>
	<circle class="st19" cx="670.7" cy="327.4" r="5.5"/>
	<circle class="st19" cx="698.8" cy="327.4" r="5.5"/>
	<circle class="st19" cx="726.9" cy="327.4" r="5.5"/>
	<circle class="st19" cx="755" cy="327.4" r="5.5"/>
	<circle class="st19" cx="783.1" cy="327.4" r="5.5"/>
	<circle class="st19" cx="811.2" cy="327.4" r="5.5"/>
	<circle class="st19" cx="839.3" cy="327.4" r="5.5"/>
	<circle class="st19" cx="867.4" cy="327.4" r="5.5"/>
	<circle class="st19" cx="895.5" cy="327.4" r="5.5"/>
	<circle class="st19" cx="305.5" cy="355.8" r="5.5"/>
	<circle class="st19" cx="333.6" cy="355.8" r="5.5"/>
	<circle class="st19" cx="361.7" cy="355.8" r="5.5"/>
	<circle class="st19" cx="389.8" cy="355.8" r="5.5"/>
	<circle class="st19" cx="417.9" cy="355.8" r="5.5"/>
	<circle class="st19" cx="446" cy="355.8" r="5.5"/>
	<circle class="st19" cx="474.1" cy="355.8" r="5.5"/>
	<circle class="st19" cx="502.2" cy="355.8" r="5.5"/>
	<circle class="st19" cx="530.3" cy="355.8" r="5.5"/>
	<circle class="st19" cx="558.4" cy="355.8" r="5.5"/>
	<circle class="st19" cx="586.5" cy="355.8" r="5.5"/>
	<circle class="st19" cx="614.5" cy="355.8" r="5.5"/>
	<circle class="st19" cx="642.6" cy="355.8" r="5.5"/>
	<circle class="st19" cx="670.7" cy="355.8" r="5.5"/>
	<circle class="st19" cx="698.8" cy="355.8" r="5.5"/>
	<circle class="st19" cx="726.9" cy="355.8" r="5.5"/>
	<circle class="st19" cx="755" cy="355.8" r="5.5"/>
	<circle class="st19" cx="783.1" cy="355.8" r="5.5"/>
	<circle class="st19" cx="811.2" cy="355.8" r="5.5"/>
	<circle class="st19" cx="839.3" cy="355.8" r="5.5"/>
	<circle class="st19" cx="867.4" cy="355.8" r="5.5"/>
	<circle class="st19" cx="895.5" cy="355.8" r="5.5"/>
	<circle class="st19" cx="305.5" cy="384.3" r="5.5"/>
	<circle class="st19" cx="333.6" cy="384.3" r="5.5"/>
	<circle class="st19" cx="361.7" cy="384.3" r="5.5"/>
	<circle class="st19" cx="389.8" cy="384.3" r="5.5"/>
	<circle class="st19" cx="417.9" cy="384.3" r="5.5"/>
	<circle class="st19" cx="446" cy="384.3" r="5.5"/>
	<circle class="st19" cx="474.1" cy="384.3" r="5.5"/>
	<circle class="st19" cx="502.2" cy="384.3" r="5.5"/>
	<circle class="st19" cx="530.3" cy="384.3" r="5.5"/>
	<circle class="st19" cx="558.4" cy="384.3" r="5.5"/>
	<circle class="st19" cx="586.5" cy="384.3" r="5.5"/>
	<circle class="st19" cx="614.5" cy="384.3" r="5.5"/>
	<circle class="st19" cx="642.6" cy="384.3" r="5.5"/>
	<circle class="st19" cx="670.7" cy="384.3" r="5.5"/>
	<circle class="st19" cx="698.8" cy="384.3" r="5.5"/>
	<circle class="st19" cx="726.9" cy="384.3" r="5.5"/>
	<circle class="st19" cx="755" cy="384.3" r="5.5"/>
	<circle class="st19" cx="783.1" cy="384.3" r="5.5"/>
	<circle class="st19" cx="811.2" cy="384.3" r="5.5"/>
	<circle class="st19" cx="839.3" cy="384.3" r="5.5"/>
	<circle class="st19" cx="867.4" cy="384.3" r="5.5"/>
	<circle class="st19" cx="895.5" cy="384.3" r="5.5"/>
	<circle class="st19" cx="305.5" cy="412.7" r="5.5"/>
	<circle class="st19" cx="333.6" cy="412.7" r="5.5"/>
	<circle class="st19" cx="361.7" cy="412.7" r="5.5"/>
	<circle class="st19" cx="389.8" cy="412.7" r="5.5"/>
	<circle class="st19" cx="417.9" cy="412.7" r="5.5"/>
	<circle class="st19" cx="446" cy="412.7" r="5.5"/>
	<circle class="st19" cx="474.1" cy="412.7" r="5.5"/>
	<circle class="st19" cx="502.2" cy="412.7" r="5.5"/>
	<circle class="st19" cx="530.3" cy="412.7" r="5.5"/>
	<circle class="st19" cx="558.4" cy="412.7" r="5.5"/>
	<circle class="st19" cx="586.5" cy="412.7" r="5.5"/>
	<circle class="st19" cx="614.5" cy="412.7" r="5.5"/>
	<circle class="st19" cx="642.6" cy="412.7" r="5.5"/>
	<circle class="st19" cx="670.7" cy="412.7" r="5.5"/>
	<circle class="st19" cx="698.8" cy="412.7" r="5.5"/>
	<circle class="st19" cx="726.9" cy="412.7" r="5.5"/>
	<circle class="st19" cx="755" cy="412.7" r="5.5"/>
	<circle class="st19" cx="783.1" cy="412.7" r="5.5"/>
	<circle class="st19" cx="811.2" cy="412.7" r="5.5"/>
	<circle class="st19" cx="839.3" cy="412.7" r="5.5"/>
	<circle class="st19" cx="867.4" cy="412.7" r="5.5"/>
	<circle class="st19" cx="895.5" cy="412.7" r="5.5"/>
	<circle class="st19" cx="305.5" cy="441.2" r="5.5"/>
	<circle class="st19" cx="333.6" cy="441.2" r="5.5"/>
	<circle class="st19" cx="361.7" cy="441.2" r="5.5"/>
	<circle class="st19" cx="389.8" cy="441.2" r="5.5"/>
	<circle class="st19" cx="417.9" cy="441.2" r="5.5"/>
	<circle class="st19" cx="446" cy="441.2" r="5.5"/>
	<circle class="st19" cx="474.1" cy="441.2" r="5.5"/>
	<circle class="st19" cx="502.2" cy="441.2" r="5.5"/>
	<circle class="st19" cx="530.3" cy="441.2" r="5.5"/>
	<circle class="st19" cx="558.4" cy="441.2" r="5.5"/>
	<circle class="st19" cx="586.5" cy="441.2" r="5.5"/>
	<circle class="st19" cx="614.5" cy="441.2" r="5.5"/>
	<circle class="st19" cx="642.6" cy="441.2" r="5.5"/>
	<circle class="st19" cx="670.7" cy="441.2" r="5.5"/>
	<circle class="st19" cx="698.8" cy="441.2" r="5.5"/>
	<circle class="st19" cx="726.9" cy="441.2" r="5.5"/>
	<circle class="st19" cx="755" cy="441.2" r="5.5"/>
	<circle class="st19" cx="783.1" cy="441.2" r="5.5"/>
	<circle class="st19" cx="811.2" cy="441.2" r="5.5"/>
	<circle class="st19" cx="839.3" cy="441.2" r="5.5"/>
	<circle class="st19" cx="867.4" cy="441.2" r="5.5"/>
	<circle class="st19" cx="895.5" cy="441.2" r="5.5"/>
	<circle class="st19" cx="305.5" cy="469.6" r="5.5"/>
	<circle class="st19" cx="333.6" cy="469.6" r="5.5"/>
	<circle class="st19" cx="361.7" cy="469.6" r="5.5"/>
	<circle class="st19" cx="389.8" cy="469.6" r="5.5"/>
	<circle class="st19" cx="417.9" cy="469.6" r="5.5"/>
	<circle class="st19" cx="446" cy="469.6" r="5.5"/>
	<circle class="st19" cx="474.1" cy="469.6" r="5.5"/>
	<circle class="st19" cx="502.2" cy="469.6" r="5.5"/>
	<circle class="st19" cx="530.3" cy="469.6" r="5.5"/>
	<circle class="st19" cx="558.4" cy="469.6" r="5.5"/>
	<circle class="st19" cx="586.5" cy="469.6" r="5.5"/>
	<circle class="st19" cx="614.5" cy="469.6" r="5.5"/>
	<circle class="st19" cx="642.6" cy="469.6" r="5.5"/>
	<circle class="st19" cx="670.7" cy="469.6" r="5.5"/>
	<circle class="st19" cx="698.8" cy="469.6" r="5.5"/>
	<circle class="st19" cx="726.9" cy="469.6" r="5.5"/>
	<circle class="st19" cx="755" cy="469.6" r="5.5"/>
	<circle class="st19" cx="783.1" cy="469.6" r="5.5"/>
	<circle class="st19" cx="811.2" cy="469.6" r="5.5"/>
	<circle class="st19" cx="839.3" cy="469.6" r="5.5"/>
	<circle class="st19" cx="867.4" cy="469.6" r="5.5"/>
	<circle class="st19" cx="895.5" cy="469.6" r="5.5"/>
	<circle class="st19" cx="305.5" cy="498.1" r="5.5"/>
	<circle class="st19" cx="333.6" cy="498.1" r="5.5"/>
	<circle class="st19" cx="361.7" cy="498.1" r="5.5"/>
	<circle class="st19" cx="389.8" cy="498.1" r="5.5"/>
	<circle class="st19" cx="417.9" cy="498.1" r="5.5"/>
	<circle class="st19" cx="446" cy="498.1" r="5.5"/>
	<circle class="st19" cx="474.1" cy="498.1" r="5.5"/>
	<circle class="st19" cx="502.2" cy="498.1" r="5.5"/>
	<circle class="st19" cx="530.3" cy="498.1" r="5.5"/>
	<circle class="st19" cx="558.4" cy="498.1" r="5.5"/>
	<circle class="st19" cx="586.5" cy="498.1" r="5.5"/>
	<circle class="st19" cx="614.5" cy="498.1" r="5.5"/>
	<circle class="st19" cx="642.6" cy="498.1" r="5.5"/>
	<circle class="st19" cx="670.7" cy="498.1" r="5.5"/>
	<circle class="st19" cx="698.8" cy="498.1" r="5.5"/>
	<circle class="st19" cx="726.9" cy="498.1" r="5.5"/>
	<circle class="st19" cx="755" cy="498.1" r="5.5"/>
	<circle class="st19" cx="783.1" cy="498.1" r="5.5"/>
	<circle class="st19" cx="811.2" cy="498.1" r="5.5"/>
	<circle class="st19" cx="839.3" cy="498.1" r="5.5"/>
	<circle class="st19" cx="867.4" cy="498.1" r="5.5"/>
	<circle class="st19" cx="895.5" cy="498.1" r="5.5"/>
	<circle class="st19" cx="305.5" cy="526.5" r="5.5"/>
	<circle class="st19" cx="333.6" cy="526.5" r="5.5"/>
	<circle class="st19" cx="361.7" cy="526.5" r="5.5"/>
	<circle class="st19" cx="389.8" cy="526.5" r="5.5"/>
	<circle class="st19" cx="417.9" cy="526.5" r="5.5"/>
	<circle class="st19" cx="446" cy="526.5" r="5.5"/>
	<circle class="st19" cx="474.1" cy="526.5" r="5.5"/>
	<circle class="st19" cx="502.2" cy="526.5" r="5.5"/>
	<circle class="st19" cx="530.3" cy="526.5" r="5.5"/>
	<circle class="st19" cx="558.4" cy="526.5" r="5.5"/>
	<circle class="st19" cx="586.5" cy="526.5" r="5.5"/>
	<circle class="st19" cx="614.5" cy="526.5" r="5.5"/>
	<circle class="st19" cx="642.6" cy="526.5" r="5.5"/>
	<circle class="st19" cx="670.7" cy="526.5" r="5.5"/>
	<circle class="st19" cx="698.8" cy="526.5" r="5.5"/>
	<circle class="st19" cx="726.9" cy="526.5" r="5.5"/>
	<circle class="st19" cx="755" cy="526.5" r="5.5"/>
	<circle class="st19" cx="783.1" cy="526.5" r="5.5"/>
	<circle class="st19" cx="811.2" cy="526.5" r="5.5"/>
	<circle class="st19" cx="839.3" cy="526.5" r="5.5"/>
	<circle class="st19" cx="867.4" cy="526.5" r="5.5"/>
	<circle class="st19" cx="895.5" cy="526.5" r="5.5"/>
	<circle class="st19" cx="305.5" cy="557.5" r="5.5"/>
	<circle class="st19" cx="333.6" cy="557.5" r="5.5"/>
	<circle class="st19" cx="361.7" cy="557.5" r="5.5"/>
	<circle class="st19" cx="389.8" cy="557.5" r="5.5"/>
	<circle class="st19" cx="417.9" cy="557.5" r="5.5"/>
	<circle class="st19" cx="446" cy="557.5" r="5.5"/>
	<circle class="st19" cx="474.1" cy="557.5" r="5.5"/>
	<circle class="st19" cx="502.2" cy="557.5" r="5.5"/>
	<circle class="st19" cx="530.3" cy="557.5" r="5.5"/>
	<circle class="st19" cx="558.4" cy="557.5" r="5.5"/>
	<circle class="st19" cx="586.5" cy="557.5" r="5.5"/>
	<circle class="st19" cx="614.5" cy="557.5" r="5.5"/>
	<circle class="st19" cx="642.6" cy="557.5" r="5.5"/>
	<circle class="st19" cx="670.7" cy="557.5" r="5.5"/>
	<circle class="st19" cx="698.8" cy="557.5" r="5.5"/>
	<circle class="st19" cx="726.9" cy="557.5" r="5.5"/>
	<circle class="st19" cx="755" cy="557.5" r="5.5"/>
	<circle class="st19" cx="783.1" cy="557.5" r="5.5"/>
	<circle class="st19" cx="811.2" cy="557.5" r="5.5"/>
	<circle class="st19" cx="839.3" cy="557.5" r="5.5"/>
	<circle class="st19" cx="867.4" cy="557.5" r="5.5"/>
	<circle class="st19" cx="895.5" cy="557.5" r="5.5"/>
	<circle class="st19" cx="305.5" cy="584.5" r="5.5"/>
	<circle class="st19" cx="333.6" cy="584.5" r="5.5"/>
	<circle class="st19" cx="361.7" cy="584.5" r="5.5"/>
	<circle class="st19" cx="389.8" cy="584.5" r="5.5"/>
	<circle class="st19" cx="417.9" cy="584.5" r="5.5"/>
	<circle class="st19" cx="446" cy="584.5" r="5.5"/>
	<circle class="st19" cx="474.1" cy="584.5" r="5.5"/>
	<circle class="st19" cx="502.2" cy="584.5" r="5.5"/>
	<circle class="st19" cx="530.3" cy="584.5" r="5.5"/>
	<circle class="st19" cx="558.4" cy="584.5" r="5.5"/>
	<circle class="st19" cx="586.5" cy="584.5" r="5.5"/>
	<circle class="st19" cx="614.5" cy="584.5" r="5.5"/>
	<circle class="st19" cx="642.6" cy="584.5" r="5.5"/>
	<circle class="st19" cx="670.7" cy="584.5" r="5.5"/>
	<circle class="st19" cx="698.8" cy="584.5" r="5.5"/>
	<circle class="st19" cx="726.9" cy="584.5" r="5.5"/>
	<circle class="st19" cx="755" cy="584.5" r="5.5"/>
	<circle class="st19" cx="783.1" cy="584.5" r="5.5"/>
	<circle class="st19" cx="811.2" cy="584.5" r="5.5"/>
	<circle class="st19" cx="839.3" cy="584.5" r="5.5"/>
	<circle class="st19" cx="867.4" cy="584.5" r="5.5"/>
	<circle class="st19" cx="895.5" cy="584.5" r="5.5"/>
</g>
<circle class="st0" cx="601" cy="244.7" r="3.9"/>
<path class="st7" d="M928.3,624.1v40c0,12.7-10.3,23-23,23l0,0H296.8c-12.7,0-23-10.3-23-23l0,0v-40H928.3z"/>
<polygon class="st6" points="771.8,811 771.8,818.8 356.1,818.8 356.1,812.6 356.7,811 366.9,783.2 763.3,783.2 "/>
<path class="st20" d="M931.8,803.5c-0.8,3.2-3.6,6.7-10.1,9.9c-23.2,11.6-70.3-3.1-70.3-3.1s-36.3-6.2-36.3-22.4
	c1-0.7,2.1-1.3,3.2-1.9c9.7-5.2,42.1-17.9,99.4,0.5c4.2,1.3,8,3.8,10.9,7.1C930.8,796.4,932.6,799.8,931.8,803.5z"/>
<path class="st6" d="M931.8,803.5c-28.4,10.9-53.7,11.7-79.6-6.3c-13.1-9.1-25-11.3-33.9-11.2c9.7-5.2,42.1-17.9,99.4,0.5
	c4.2,1.3,8,3.8,10.9,7.1C930.8,796.4,932.6,799.8,931.8,803.5z"/>
<ellipse class="st0" cx="896.2" cy="794" rx="10" ry="3.1"/>
<ellipse class="st0" cx="601" cy="655.8" rx="14.7" ry="14.7"/>
<polygon class="st21" points="771.8,811 771.8,818.8 356.1,818.8 356.1,812.6 356.7,811 "/>
<path class="st2" d="M964.1,415.7c-10.4,3.6-12.9,17.8-9.3,28.2s11.2,19.1,15,29.4c1.7,5.2,3,10.6,3.7,16c2.2,13,4.4,26.2,2.7,39.2
	c-1.6,12.4-6.6,24.1-12.2,35.2c-10.8,21.6-24,42-39.3,60.7"/>
<path class="st22" d="M1044,293.7c0,45.8-37.2,119-83,119s-83-73.2-83-119s37.2-83,83-83S1044,247.9,1044,293.7L1044,293.7z"/>
<path class="st22" d="M969,420.7c-5.3-3.4-10.7-3.4-16,0v-16h16V420.7z"/>
<path class="st2" d="M953,412.4c5,2.6,11,2.5,16-0.1"/>
<polygon class="st22" points="696.6,399.6 696.6,486.1 673.7,532.3 673.7,532.3 673,533.7 612.4,529.7 589.1,528.2 535.1,524.6 
	535.1,421.1 589.1,422.6 613.3,423.3 674.5,425 "/>
<polygon class="st23" points="696.6,404.7 696.6,486.1 691,497.4 691,497.4 685.3,508.9 685.3,508.9 673.7,532.3 675,445.7 
	675.3,428.3 686.3,416.1 686.3,416.1 691.1,410.8 "/>
<polygon class="st22" points="699.7,376.6 699.7,406.8 696.6,411.7 691.1,420.6 686.1,428.4 675.3,445.7 675,445.7 530.3,438.3 
	530.3,408.5 530.7,408.1 548,389.4 554.2,382.6 565.5,370.4 "/>
<polygon class="st23" points="675.3,415.9 675.3,445.7 530.3,438.3 530.3,408.5 530.7,408.1 "/>
<polygon class="st24" points="699.7,376.6 699.7,406.8 675.3,445.7 675.3,415.9 "/>
<polygon class="st25" points="691.1,390.5 691.1,410.8 691.1,420.6 691,497.4 691,497.4 685.3,508.9 686.1,428.4 686.3,416.1 
	686.3,416.1 686.5,397.9 548,389.4 554.2,382.6 "/>
<polygon class="st25" points="623.1,391.5 613.4,412.5 613.3,423.3 612.4,529.7 589.1,528.2 589.1,411.1 601.6,391.5 "/>
<path class="st25" d="M591.2,392.9c-5.6,1.9-11.6,2.1-17.4,0.6c-1.1-0.2-2.2-0.7-3-1.4c-1-1.1-1.6-2.3-1.9-3.7
	c-1-2.9-1.6-5.9-1.7-8.9c0.1-3,1.2-6.2,3.7-8c0.5-0.3,1-0.7,1.4-1.1c0.5-0.7,0.9-1.4,1.1-2.2c1.7-5.1,5-10.4,10.3-11.2
	c4.9-0.7,9.3,2.7,13,5.8l8.2,7c2.5-6.7,10-10.1,16.7-7.6c3.4,1.3,6.1,3.9,7.5,7.3c5-5.6,11.3-9.9,18.3-12.6c1.6-0.6,3.4-1.1,4.8-0.2
	c0.9,0.6,1.5,1.5,1.9,2.6c2.2,4.9,3.5,10.2,3.6,15.6c1.2-0.4,2.5,0,3.2,1.1c0.6,1,1,2.2,1.1,3.4c0.2,1.9,0.3,3.8,0.3,5.7
	c0,2-0.2,4.2-1.5,5.7c-1.7,2-4.6,2.2-7.2,2.2c1.2,1.1,0.6,3.3-0.7,4.3s-3.2,1-4.8,0.9c-6.4-0.1-13.2-0.2-18.5-3.8
	c-2.1-1.4-3.9-3.3-6-4.7c-5.2-3.4-11.7-3.6-17.6-3.3C600.6,386.7,596.3,391.2,591.2,392.9z"/>
<path class="st25" d="M590,391.5c0,0-53.4,7.5-60.9,39.8l11.2-1.7l7.9,14.1c0,0,8.3-31.5,32.7-38.9S614,396,614,396
	s17,4.1,32.3,53.4l8.7-12l15.3,3.3c0,0-11.2-38.5-41.4-49.3H590V391.5z"/>
<path d="M173.8,165.7h42.8v3.4h-38.9v25.6h36.6v3.4h-36.6v28.1H217v3.4h-43.2V165.7z M220.5,165.7h4.5l20.2,28.1l20.6-28.1l28-35.7
	l-46,66.8l23.7,32.9h-4.7l-21.6-29.9l-21.7,29.9h-4.6l23.9-32.9L220.5,165.7z M273.2,169.1v-3.4H322v3.4h-22.5v60.5h-3.9v-60.5
	H273.2z M120.2,165.7h4.9l67.7,101.2l-28-37.3l-40.5-59.1l-0.2,59.1h-3.9V165.7z M321.6,225.2c-0.8,0-1.4-0.6-1.4-1.4
	c0-0.8,0.6-1.4,1.4-1.4c0.8,0,1.4,0.6,1.4,1.4l0,0C323,224.6,322.4,225.2,321.6,225.2L321.6,225.2z M325.4,221.5h2.1
	c0,1.1,0.9,1.9,2.1,1.9c1.4,0,2.1-0.8,2.1-2.4v-9.8h2.1v9.8c0,2.8-1.6,4.4-4.3,4.4C327.1,225.4,325.4,223.8,325.4,221.5z
	 M336.7,221.3h2.1c0.2,1.3,1.5,2.1,3.3,2.1c1.7,0,3-0.9,3-2.1c0-1.1-0.8-1.7-2.6-2.1l-1.8-0.4c-2.5-0.6-3.6-1.8-3.6-3.8
	c0-2.5,2-4.1,5-4.1c2.8,0,4.8,1.6,5,4H345c-0.2-1.3-1.3-2.1-2.9-2.1c-1.7,0-2.8,0.8-2.8,2.1c0,1,0.7,1.5,2.5,2l1.5,0.4
	c2.8,0.7,4,1.8,4,3.9c0,2.6-2,4.3-5.3,4.3C338.9,225.4,336.8,223.8,336.7,221.3L336.7,221.3z"/>
<rect x="316.2" y="336.8" class="st26" width="363.6" height="201.4"/>
<rect x="315.9" y="309.4" class="st27" width="363.9" height="15.5"/>
<circle class="st10" cx="323.8" cy="278.1" r="2.3"/>
<circle class="st10" cx="332.6" cy="278.1" r="2.3"/>
<circle class="st10" cx="341.3" cy="278.1" r="2.3"/>
<path class="st28" d="M572.4,356.6H460.7c-0.5-0.1-0.9-0.6-0.9-1.1c0.1-0.4,0.4-0.8,0.9-0.9h111.7c0.5,0.1,0.9,0.6,0.9,1.1
	C573.2,356.2,572.9,356.5,572.4,356.6z"/>
<path class="st28" d="M495,367.4h-71c-0.5-0.1-0.9-0.6-0.9-1.1c0.1-0.4,0.4-0.8,0.9-0.9h71c0.5,0.1,0.9,0.6,0.9,1.1
	C495.8,367,495.5,367.3,495,367.4z"/>
<path class="st28" d="M572.4,367.6h-71c-0.5-0.1-0.9-0.6-0.9-1.1c0.1-0.4,0.4-0.8,0.9-0.9h71c0.5,0.1,0.9,0.6,0.9,1.1
	C573.2,367.2,572.9,367.5,572.4,367.6z"/>
<path class="st28" d="M495.2,378.2h-71c-0.5-0.1-0.9-0.6-0.9-1.1c0.1-0.4,0.4-0.8,0.9-0.9h71c0.5,0.1,0.9,0.6,0.9,1.1
	C496,377.8,495.7,378.2,495.2,378.2z"/>
<path class="st28" d="M495.4,389h-71c-0.5-0.1-0.9-0.6-0.9-1.1c0.1-0.4,0.4-0.8,0.9-0.9h71c0.5,0.1,0.9,0.6,0.9,1.1
	C496.2,388.6,495.8,389,495.4,389z"/>
<path class="st28" d="M527.6,378.2h-20.3c-0.5-0.1-0.9-0.6-0.9-1.1c0.1-0.4,0.4-0.8,0.9-0.9h20.3c0.5,0.1,0.9,0.6,0.9,1.1
	C528.4,377.8,528.1,378.2,527.6,378.2L527.6,378.2z"/>
<path class="st28" d="M527.6,388.8h-20.3c-0.5-0.1-0.9-0.6-0.9-1.1c0.1-0.4,0.4-0.8,0.9-0.9h20.3c0.5,0.1,0.9,0.6,0.9,1.1
	C528.4,388.4,528.1,388.8,527.6,388.8L527.6,388.8z"/>
<path class="st28" d="M561.7,388.8h-20.3c-0.5-0.1-0.9-0.6-0.9-1.1c0.1-0.4,0.4-0.8,0.9-0.9h20.3c0.5,0.1,0.9,0.6,0.9,1.1
	C562.5,388.4,562.2,388.8,561.7,388.8z"/>
<path class="st28" d="M417.5,309.7h-16.4c-0.4-0.1-0.7-0.5-0.7-0.9c0-0.4,0.3-0.6,0.7-0.7h16.4c0.4,0.1,0.7,0.5,0.7,0.9
	C418.1,309.4,417.8,309.7,417.5,309.7z"/>
<path class="st28" d="M494.8,480.6h-71c-0.5-0.1-0.9-0.6-0.9-1.1c0.1-0.4,0.4-0.8,0.9-0.9h71c0.5,0.1,0.9,0.6,0.9,1.1
	C495.6,480.2,495.2,480.5,494.8,480.6L494.8,480.6z"/>
<path class="st28" d="M494.4,502.2h-71c-0.5-0.1-0.9-0.6-0.9-1.1c0.1-0.4,0.4-0.8,0.9-0.9h71c0.5,0.1,0.9,0.6,0.9,1.1
	C495.2,501.8,494.9,502.1,494.4,502.2z"/>
<path class="st28" d="M494.6,513h-71c-0.5-0.1-0.9-0.6-0.9-1.1c0.1-0.4,0.4-0.8,0.9-0.9h71c0.5,0.1,0.9,0.6,0.9,1.1
	C495.4,512.6,495.1,512.9,494.6,513L494.6,513z"/>
<path class="st28" d="M524.9,502.4h-20.3c-0.5-0.1-0.9-0.6-0.9-1.1c0.1-0.4,0.4-0.8,0.9-0.9h20.3c0.5,0.1,0.9,0.6,0.9,1.1
	C525.7,502,525.4,502.3,524.9,502.4L524.9,502.4z"/>
<path class="st28" d="M524.9,513h-20.3c-0.5-0.1-0.9-0.6-0.9-1.1c0.1-0.4,0.4-0.8,0.9-0.9h20.3c0.5,0.1,0.9,0.6,0.9,1.1
	C525.7,512.6,525.4,512.9,524.9,513L524.9,513z"/>
<path class="st28" d="M559.1,502.4h-20.3c-0.5-0.1-0.9-0.6-0.9-1.1c0.1-0.4,0.4-0.8,0.9-0.9h20.3c0.5,0.1,0.9,0.6,0.9,1.1
	C559.9,502,559.5,502.3,559.1,502.4z"/>
<path class="st28" d="M572.5,491.4H460.8c-0.5-0.1-0.9-0.6-0.9-1.1c0.1-0.4,0.4-0.8,0.9-0.9h111.7c0.5,0.1,0.9,0.6,0.9,1.1
	C573.3,491,573,491.3,572.5,491.4z"/>
<path class="st28" d="M417.5,418.1h-16.4c-0.4-0.1-0.7-0.5-0.7-0.9s0.3-0.6,0.7-0.7h16.4c0.4,0.1,0.7,0.5,0.7,0.9
	S417.9,418,417.5,418.1z"/>
<polygon class="st27" points="477.6,406.5 450,433.7 477.6,461 483.8,454.8 463,433.9 484,412.9 "/>
<polygon class="st27" points="518.3,406.5 545.9,433.7 518.3,461 512.1,454.8 533,433.9 511.9,412.9 "/>
<path class="st29" d="M738.8,344.2c0-16.4,24-29.7,53.7-29.7s53.7,13.3,53.7,29.7"/>
<path class="st30" d="M809.3,325.9h-43.7c-8.6-14.6-8.6-29.1,0-43.7h43.7C797.3,296.8,797.3,311.4,809.3,325.9z"/>
<rect x="771.9" y="287.4" class="st27" width="24.6" height="3.1"/>
<rect x="763.9" y="297.7" class="st10" width="32.6" height="1"/>
<rect x="763.9" y="303" class="st10" width="32.6" height="1"/>
<rect x="763.9" y="308.4" class="st10" width="32.6" height="1"/>
<path class="st31" d="M797.1,368.3l-1.7,1.1c0,0,1.8,6.2,2.5,6.4c0.7,0.2,2.5-5.3,2.5-5.3L797.1,368.3z"/>
<path class="st29" d="M846.1,344.2c0,17.2-24,31.1-53.7,31.1s-53.7-13.9-53.7-31.1"/>
<path class="st29" d="M836.4,375.8c-12,6.5-27.7,10.4-44.8,10.4c-16.4,0-31.5-3.6-43.3-9.6"/>
<path class="st29" d="M819.3,306.5c22.8,6,39.1,19.2,40.6,34.8"/>
<path class="st29" d="M726.5,331.1c3.8-7.1,10.9-13.3,20.1-18.1"/>
<path class="st0" d="M773.7,406.8h43.7c8.6-14.6,8.6-29.1,0-43.7h-43.7C785.8,377.7,785.8,392.3,773.7,406.8z"/>
<rect x="788.1" y="371.5" class="st27" width="24.6" height="3.1"/>
<rect x="785.5" y="421.6" class="st10" width="37.4" height="1.2"/>
<rect x="785.5" y="427.8" class="st10" width="37.4" height="1.2"/>
<path class="st0" d="M755.2,377.2h-43.7c-8.6-14.6-8.6-29.1,0-43.7h43.7C743.1,348.1,743.1,362.6,755.2,377.2z"/>
<rect x="716.3" y="338.7" class="st27" width="24.6" height="3.1"/>
<rect x="711" y="347.4" class="st10" width="32.6" height="1"/>
<rect x="711" y="352.7" class="st10" width="32.6" height="1"/>
<rect x="711" y="358.1" class="st10" width="32.6" height="1"/>
<rect x="711" y="363.5" class="st10" width="32.6" height="1"/>
<path class="st0" d="M826.6,357.1h43.7c8.6-14.6,8.6-29.1,0-43.7h-43.7C838.7,327.9,838.7,342.5,826.6,357.1z"/>
<rect x="837.8" y="323.7" class="st27" width="37.4" height="1.2"/>
<rect x="758.9" y="458" class="st32" width="50.2" height="5.4"/>
<rect x="722.7" y="481.1" class="st33" width="54.9" height="5.4"/>
<rect x="790.3" y="481.1" class="st33" width="54.9" height="5.4"/>
<rect x="722.5" y="492.7" class="st33" width="122.6" height="5.4"/>
<rect x="722.5" y="504.2" class="st33" width="122.6" height="5.4"/>
<rect x="758.7" y="529.8" class="st27" width="50.2" height="8.1"/>
<circle class="st6" cx="1059.2" cy="463.4" r="11"/>
<path class="st6" d="M1062.3,452.7c6.1,0,11,4.9,11,11c0,1.8-0.5,3.6-1.3,5.2c3.8-4.8,3-11.7-1.7-15.5c-4.8-3.8-11.7-3-15.5,1.7
	c-0.4,0.5-0.8,1.1-1.1,1.7C1055.8,454.2,1059,452.7,1062.3,452.7z"/>
<circle class="st6" cx="1038.6" cy="430.9" r="32.4"/>
<path class="st6" d="M1013.2,410.8c11.6-13.1,31.5-14.6,44.9-3.4c-0.3-0.3-0.5-0.5-0.8-0.8c-13.4-11.9-33.9-10.7-45.8,2.7
	c-11.9,13.4-10.7,33.8,2.7,45.7c0.3,0.2,0.6,0.5,0.8,0.7C1002.4,443.8,1001.6,423.9,1013.2,410.8z"/>
<path class="st34" d="M1069.9,513.6l5,28.3l5.8,55.7c0,0,1.7,22.4-5.8,23.3c-7.5,0.9-5.8-24.9-5.8-24.9l-8.3-47.4l-3.3-29.1
	L1069.9,513.6z"/>
<circle class="st34" cx="1039.1" cy="438" r="20"/>
<polygon class="st34" points="1023.3,446.3 1020,465.4 1041.6,470.4 1041.6,452.1 "/>
<polygon class="st34" points="971.8,725.6 969.3,742.2 979.3,743 985.1,728.9 "/>
<polygon class="st34" points="1049.1,728.1 1051.6,741.4 1062.4,741.4 1062.4,728.9 "/>
<path class="st7" d="M1056.6,541.9l-54.9,8.3l-3.3,39.1l-6.7,56.5l-24.1,82.3l24.1,2.5L1035,620l10.8,111.4h24.9l1.7-113.9
	c0,0,0.8-63.2-12.5-67.3L1056.6,541.9z"/>
<path class="st6" d="M981.8,740.5l-14.1-2.5l-5.8,28.3c0,0-10.8,38.2,3.3,34.9s11.6-34.9,11.6-34.9L981.8,740.5z"/>
<path class="st6" d="M1049.1,740.5l14.1-2.5l5.8,28.3c0,0,10.8,38.2-3.3,34.9s-11.6-34.9-11.6-34.9L1049.1,740.5z"/>
<path class="st34" d="M980.1,501.1c0,0-6.7,34.9-3.3,43.2c3.3,8.3,22.4,37.4,22.4,37.4l5.8-12.5l-16.6-32.4l5.8-33.3L980.1,501.1z"
	/>
<path class="st27" d="M1045.8,477l-1.7-12.5c0,0-20.8-3.3-24.1-9.1l-5.8,10l-19.1,4.2c0,0-10.8,0-11.6,8.3s-5.8,24.9-5.8,24.9l15,5
	l11.6,43.2l49.9-7.5l-2.5-22.4l2.5-5.8l2.5,6.7l15.8-3.3c0,0,0.8-29.9-15-34.9L1045.8,477z"/>
<polygon class="st6" points="1020.5,416.1 1020.5,437 1025.3,437 1031.5,430.4 1030.6,437 1052,437 1050.7,430.4 1053.3,437 
	1056.8,437 1056.8,416.1 "/>
</svg>
